<svg id="Layer_1" data-name="Layer 1" xmlns="http://www.w3.org/2000/svg" viewBox="0 0 512 512"><defs><style>.cls-1,.cls-2{fill:red;}.cls-1,.cls-3,.cls-4{stroke:#000;stroke-miterlimit:10;}.cls-1,.cls-3{stroke-width:10px;}.cls-3{fill:none;}.cls-4{fill:#fff;stroke-width:6px;}</style></defs><title>bandana</title><path class="cls-1" d="M502.56,286.73H65.09c2.67-86.94,56.92-161,133.44-193.16q5.8-2.44,11.79-4.55a221.45,221.45,0,0,1,151.1,1.5c4,1.48,7.87,3.09,11.73,4.8a218.78,218.78,0,0,1,48.43,29.54q6.82,5.47,13.17,11.47,5.17,4.89,10,10.09h0q6,6.45,11.46,13.38s0,0,0,0A214.77,214.77,0,0,1,502.56,286.73Z"/><path class="cls-2" d="M156.28,381.68a75.83,75.83,0,0,1,.75,21.63c-2,15.89-7.54,31.11-15.37,42.57-13.17,19.3-35.86,19.63-45.2,18.83l.06-.79s33.57-18.84,26.09-44.49c-2.47-8.47-6.9-17.51-13-27-1.5-2.32-3.09-4.69-4.7-7.08-8.52-12.68-17.7-26.41-23.08-39-10-23.29,18.8-46.31,19.86-47.16h0c9.15-2.58,16.77-7.28,21.63-13.23l2.75.71a182.15,182.15,0,0,0,15.2,49.1c2,4.1,3.92,8.25,5.7,12.3a92.22,92.22,0,0,1,4.39,12c1.28,4.58,2.5,9.26,3.51,14C155.39,376.64,155.87,379.16,156.28,381.68Z"/><path class="cls-2" d="M101.69,299.25h0a60.2,60.2,0,0,1-16.08,2.21h-.22a59.72,59.72,0,0,1-16.63-2.3c-15.91-4.6-27.11-15.61-27.11-28.46,0-17,19.59-30.77,43.74-30.77s43.74,13.78,43.74,30.77a24.1,24.1,0,0,1-5.8,15.32C118.46,292,110.84,296.67,101.69,299.25Z"/><path class="cls-2" d="M85.6,301.47v.16s-26.27,21.73-24,37.54a116.18,116.18,0,0,0,8.23,29.7c7.13,16,12.93,32.44,8.95,45.54-2.19,7.22-11.4,13.72-22.6,18.18-26.59,10.59-39.34,12.81-45.35,12.86v-.37s35.11-24.81,33.09-35.24c-4.57-23.54-20.94-64.37-21-85.5-.12-23.47,45.87-25.1,45.87-25.1l0-.08a59.72,59.72,0,0,0,16.63,2.3Z"/><path class="cls-3" d="M101.68,299.26a60.2,60.2,0,0,1-16.08,2.21h-.22a59.72,59.72,0,0,1-16.63-2.3c-15.91-4.6-27.11-15.61-27.11-28.46,0-17,19.59-30.77,43.74-30.77s43.74,13.78,43.74,30.77a24.1,24.1,0,0,1-5.8,15.32c-4.86,6-12.48,10.65-21.63,13.23"/><path class="cls-3" d="M68.73,299.24s-46,1.63-45.87,25.1c.11,21.13,16.48,62,21,85.5,2,10.42-33.09,35.24-33.09,35.24"/><path class="cls-3" d="M85.6,301.63s-26.27,21.73-24,37.54a116.18,116.18,0,0,0,8.23,29.7c7.13,16,12.93,32.44,8.95,45.54-2.19,7.22-11.4,13.72-22.6,18.18-26.59,10.59-39.34,12.81-45.35,12.86-4.13,0-5-1-5-1"/><path class="cls-3" d="M101.71,299.24h0c-1.06.84-29.85,23.86-19.86,47.16,5.38,12.56,14.57,26.29,23.08,39,1.61,2.39,3.2,4.76,4.7,7.08,6.1,9.44,10.53,18.48,13,27,7.48,25.65-26.09,44.49-26.09,44.49"/><path class="cls-3" d="M126.07,286.73a182.15,182.15,0,0,0,15.2,49.1c2,4.1,3.92,8.25,5.7,12.3a92.22,92.22,0,0,1,4.39,12c1.28,4.58,2.5,9.26,3.51,14,.53,2.51,1,5,1.41,7.56a75.83,75.83,0,0,1,.75,21.63c-2,15.89-7.54,31.11-15.37,42.57-13.17,19.3-35.86,19.63-45.2,18.83-2.63-.23-4.21-.54-4.21-.54"/><ellipse class="cls-4" cx="204.71" cy="164.1" rx="6.29" ry="17.5"/><ellipse class="cls-4" cx="204.71" cy="212.45" rx="6.29" ry="17.5"/><ellipse class="cls-4" cx="180.77" cy="187.83" rx="17.65" ry="6.24"/><ellipse class="cls-4" cx="228.65" cy="188.72" rx="17.65" ry="6.24"/><ellipse class="cls-4" cx="283.82" cy="106.7" rx="6.29" ry="17.5"/><ellipse class="cls-4" cx="283.82" cy="155.05" rx="6.29" ry="17.5"/><ellipse class="cls-4" cx="259.89" cy="130.43" rx="17.65" ry="6.24"/><ellipse class="cls-4" cx="307.76" cy="131.32" rx="17.65" ry="6.24"/><ellipse class="cls-4" cx="283.82" cy="211.56" rx="6.29" ry="17.5"/><ellipse class="cls-4" cx="283.82" cy="259.92" rx="6.29" ry="17.5"/><ellipse class="cls-4" cx="259.89" cy="235.29" rx="17.65" ry="6.24"/><ellipse class="cls-4" cx="307.76" cy="236.18" rx="17.65" ry="6.24"/><ellipse class="cls-4" cx="366.99" cy="164.54" rx="6.29" ry="17.5"/><ellipse class="cls-4" cx="366.99" cy="212.9" rx="6.29" ry="17.5"/><ellipse class="cls-4" cx="343.05" cy="188.27" rx="17.65" ry="6.24"/><ellipse class="cls-4" cx="390.93" cy="189.16" rx="17.65" ry="6.24"/><ellipse class="cls-4" cx="133.83" cy="212.01" rx="6.29" ry="17.5"/><ellipse class="cls-4" cx="133.83" cy="260.36" rx="6.29" ry="17.5"/><ellipse class="cls-4" cx="109.9" cy="235.74" rx="17.65" ry="6.24"/><ellipse class="cls-4" cx="157.77" cy="236.63" rx="17.65" ry="6.24"/><ellipse class="cls-4" cx="133.56" cy="154.61" rx="6.29" ry="17.5"/><ellipse class="cls-4" cx="158.49" cy="130.87" rx="17.65" ry="6.24"/><ellipse class="cls-4" cx="450.15" cy="212.01" rx="6.29" ry="17.5"/><ellipse class="cls-4" cx="450.15" cy="260.36" rx="6.29" ry="17.5"/><ellipse class="cls-4" cx="426.22" cy="235.74" rx="17.65" ry="6.24"/><ellipse class="cls-4" cx="474.09" cy="236.63" rx="17.65" ry="6.24"/><path class="cls-4" d="M456.24,159.81s0,0,0,0c-.68,7.57-3.16,13.17-6.09,13.17-3.47,0-6.28-7.84-6.28-17.5a42.8,42.8,0,0,1,.91-9.06Q450.78,152.88,456.24,159.81Z"/><path class="cls-4" d="M434.76,136.33a44.11,44.11,0,0,1-8.55.78c-9.74,0-17.64-2.79-17.64-6.24,0-2.88,5.52-5.3,13-6Q428.41,130.32,434.76,136.33Z"/><path class="cls-4" d="M211,96.85c0,9.67-2.82,17.5-6.29,17.5s-6.28-7.84-6.28-17.5c0-1.12,0-2.23.11-3.29q5.8-2.44,11.79-4.55A44,44,0,0,1,211,96.85Z"/><path class="cls-4" d="M373.28,98.65c0,9.67-2.82,17.5-6.28,17.5s-6.29-7.84-6.29-17.5a44.15,44.15,0,0,1,.72-8.14c4,1.48,7.87,3.09,11.73,4.8Q373.28,96.94,373.28,98.65Z"/><path class="cls-4" d="M211,281.75a46.56,46.56,0,0,1-.26,5H198.69a46.54,46.54,0,0,1-.26-5c0-9.67,2.82-17.49,6.28-17.49S211,272.09,211,281.75Z"/><path class="cls-4" d="M373.28,282.2a43.85,43.85,0,0,1-.22,4.53H360.92a43.85,43.85,0,0,1-.22-4.53c0-9.67,2.82-17.5,6.29-17.5S373.28,272.53,373.28,282.2Z"/><ellipse class="cls-4" cx="81.59" cy="288.68" rx="17.65" ry="6.24"/><ellipse class="cls-4" cx="55.17" cy="267.31" rx="6.29" ry="17.5"/><path class="cls-4" d="M152.36,363a24.09,24.09,0,0,1-6.27.78c-7.15,0-13-2.79-13-6.24,0-2.88,4.05-5.3,9.56-6Q147.69,357,152.36,363Z"/><ellipse class="cls-4" cx="127.84" cy="333.99" rx="6.29" ry="17.5"/><ellipse class="cls-4" cx="127.84" cy="381.58" rx="6.29" ry="17.5"/><ellipse class="cls-4" cx="107.07" cy="357.61" rx="15.82" ry="6.24"/><ellipse class="cls-4" cx="55.65" cy="409.41" rx="6.29" ry="17.5"/><ellipse class="cls-4" cx="54.65" cy="349.26" rx="6.29" ry="17.5"/><path class="cls-4" d="M31.78,321.63c8.24,0,14.92,2.79,14.92,6.23s-6.68,6.24-14.92,6.24a32.51,32.51,0,0,1-6.93-.72q1.89-5.9,4.09-11.63Q30.32,321.63,31.78,321.63Z"/><path class="cls-4" d="M134.13,451.93a43.85,43.85,0,0,1-.22,4.53H121.77a43.85,43.85,0,0,1-.22-4.53c0-9.67,2.82-17.5,6.29-17.5S134.13,442.27,134.13,451.93Z"/><path class="cls-4" d="M60.46,306.09c0,9.67-2.82,17.5-6.29,17.5s-6.28-7.84-6.28-17.5c0-1.12,0-2.23.11-3.29q5.8-2.44,11.79-4.55A44,44,0,0,1,60.46,306.09Z"/></svg>