<svg id="Layer_1" data-name="Layer 1" xmlns="http://www.w3.org/2000/svg" viewBox="0 0 512 512"><defs><style>.cls-1{fill:#f7931e;}.cls-2{fill:#b3b3b3;}.cls-3{fill:#754c24;}.cls-4,.cls-5{fill:none;}.cls-4,.cls-5,.cls-6{stroke:#000;stroke-width:10px;}.cls-4,.cls-6{stroke-miterlimit:10;}.cls-5{stroke-linecap:round;stroke-linejoin:round;}</style></defs><title>barrel</title><path class="cls-1" d="M455.87,221.29q.13,5.64.14,11.34a439.47,439.47,0,0,1-7.05,79h-.07s-19.31,8.62-49.39,18.26c1.23-18.1,2-36.8,1.94-55.32,0-11.28-.44-22.5-1.14-33.46C433.94,230.76,455.87,221.29,455.87,221.29Z"/><path class="cls-2" d="M451.8,171.35a442.39,442.39,0,0,1,4.07,49.94s-21.93,9.47-55.57,19.76c-1.05-16.6-2.74-32.62-4.7-47.38C429.6,182.18,451.8,171.35,451.8,171.35Z"/><path class="cls-2" d="M448.89,311.57H449a398.18,398.18,0,0,1-13,51.85s-15.8,6.58-40.82,14.21c1.71-15,3.26-31.16,4.39-47.81C429.58,320.19,448.89,311.57,448.89,311.57Z"/><path class="cls-1" d="M435.58,100.73a404.33,404.33,0,0,1,16.22,70.62s-22.2,10.83-56.2,22.32c-4.78-35.9-11.17-64.35-13.86-75.54C411.52,109.91,432.23,102,435.58,100.73Z"/><path class="cls-2" d="M209.73,135.9a576.68,576.68,0,0,1-84.4-15.24c-32.56-8.37-53.46-16.56-53.46-16.56l-.55-.18a356.1,356.1,0,0,1,16.2-41.77h0c2.26-4.86,4.61-9.64,7-14.28a47.91,47.91,0,0,1,6.62-5.38c-3.56,3.16-5.47,6.48-5.47,9.92h0c0,21,70.86,38.06,158.24,38.06s158.26-17,158.26-38.06h0c0-3.43-1.89-6.74-5.44-9.91a47.52,47.52,0,0,1,6.59,5.37c2.43,4.64,4.78,9.42,7,14.28h0a353.3,353.3,0,0,1,15.18,38.58c-3.35,1.29-24.06,9.18-53.84,17.4a606.29,606.29,0,0,1-75.72,16l-.19,0a397.11,397.11,0,0,1-50.59,4q-7.73.07-15.39-.18c-5.46-.18-10.86-.48-16.19-.86C219,136.77,214.32,136.36,209.73,135.9Z"/><path class="cls-1" d="M412.21,52.4h0c0,21-70.86,38.06-158.26,38.06S95.71,73.43,95.71,52.41h0c0-3.44,1.91-6.76,5.47-9.92,9.22-6.35,22.77-12,39.53-16.64C169.44,18.77,209.56,14.37,254,14.37s84.52,4.4,113.26,11.47c16.78,4.64,30.34,10.3,39.56,16.65C410.32,45.66,412.21,49,412.21,52.4Z"/><path class="cls-1" d="M435.93,363.43a339.84,339.84,0,0,1-29.12,65.81q-5.9,10.13-12.37,19.45s-3.61,1-10,2.5c2.85-16.08,7.12-42.4,10.67-73.55C420.13,370,435.93,363.43,435.93,363.43Z"/><path class="cls-3" d="M401.44,274.51c0,18.52-.71,37.22-1.94,55.32a588.45,588.45,0,0,1-83.15,20.34c.35-10.41.59-21,.7-31.56.05-5.42.05-10.86,0-16.28-.13-14-.51-27.93-1.08-41.47a632.51,632.51,0,0,0,84.32-19.81C401,252,401.41,263.23,401.44,274.51Z"/><path class="cls-2" d="M395.6,193.67c2,14.76,3.65,30.78,4.7,47.38A632.51,632.51,0,0,1,316,260.86c-.66-16.09-1.58-31.62-2.59-46A548.94,548.94,0,0,0,395.6,193.67Z"/><path class="cls-2" d="M399.5,329.83c-1.13,16.65-2.68,32.79-4.39,47.81a568.29,568.29,0,0,1-81,18.56c.9-14.64,1.67-30.15,2.2-46A588.45,588.45,0,0,0,399.5,329.83Z"/><path class="cls-3" d="M395.11,377.64c-3.55,31.15-7.82,57.47-10.67,73.55a663.1,663.1,0,0,1-75.67,13.17c1.72-17.86,3.75-41.57,5.38-68.16A568.29,568.29,0,0,0,395.11,377.64Z"/><path class="cls-3" d="M381.74,118.13c2.69,11.19,9.08,39.64,13.86,75.54a548.94,548.94,0,0,1-82.21,21.17c-2.73-38.76-6.2-69.34-7.56-80.7l.19,0A606.29,606.29,0,0,0,381.74,118.13Z"/><path class="cls-2" d="M394.44,448.69q-6.07,8.76-12.64,16.73c.54-2.77,1.47-7.64,2.64-14.23C390.83,449.67,394.44,448.69,394.44,448.69Z"/><path class="cls-2" d="M384.44,451.19c-1.17,6.59-2.1,11.46-2.64,14.23a229.42,229.42,0,0,1-19.63,21.11A379.57,379.57,0,0,1,305.41,496c.54-4.53,1.83-15.78,3.36-31.66A663.1,663.1,0,0,0,384.44,451.19Z"/><path class="cls-1" d="M317.06,302.33c0,5.42,0,10.86,0,16.28-.11,10.59-.35,21.15-.7,31.56a411.3,411.3,0,0,1-62.47,5.69,393.2,393.2,0,0,1-50.88-3c-.62-14.73-1.11-29.84-1.39-45l-.18-10.19c-.2-11.36-.18-22.69,0-33.79a413.51,413.51,0,0,0,53.49,2.65A441.66,441.66,0,0,0,316,260.86C316.55,274.4,316.93,288.33,317.06,302.33Z"/><path class="cls-2" d="M316.35,350.17c-.53,15.88-1.3,31.39-2.2,46a398.5,398.5,0,0,1-58.45,4.61,401,401,0,0,1-50.39-3.38c-.86-14.15-1.66-29.16-2.31-44.59a393.2,393.2,0,0,0,50.88,3A411.3,411.3,0,0,0,316.35,350.17Z"/><path class="cls-2" d="M313.39,214.84c1,14.4,1.93,29.93,2.59,46a441.66,441.66,0,0,1-61.06,5.69,413.51,413.51,0,0,1-53.49-2.65c.26-16.16.86-31.83,1.63-46.38,10.84,1.32,21.9,2.29,33,2.8,3.86.17,7.74.29,11.62.35q4.22.06,8.43-.06c6.88-.18,13.75-.56,20.57-1.11,7.27-.59,14.48-1.39,21.62-2.35C303.4,216.46,308.43,215.69,313.39,214.84Z"/><path class="cls-1" d="M305.83,134.14c1.36,11.36,4.83,41.94,7.56,80.7-5,.85-10,1.62-15.05,2.31-7.14,1-14.35,1.76-21.62,2.35-6.82.55-13.69.93-20.57,1.11q-4.21.12-8.43.06c-3.88-.06-7.76-.18-11.62-.35-11.14-.51-22.2-1.48-33-2.8,2.1-39.65,5.46-71.07,6.67-81.62,4.59.46,9.24.87,13.93,1.2,5.33.38,10.73.68,16.19.86q7.67.25,15.39.18A397.11,397.11,0,0,0,305.83,134.14Z"/><path class="cls-1" d="M314.15,396.2c-1.63,26.59-3.66,50.3-5.38,68.16-14.49,1.64-29.89,2.83-45.42,3.14-17.9.36-36-.29-53-1.46-1.53-17.71-3.41-41.59-5.06-68.61a401,401,0,0,0,50.39,3.38A398.5,398.5,0,0,0,314.15,396.2Z"/><path class="cls-2" d="M308.77,464.36c-1.53,15.88-2.82,27.13-3.36,31.66-16.2,1.57-33.5,2.42-51.46,2.42-14,0-27.68-.52-40.71-1.5-.36-3.5-1.47-14.58-2.87-30.9,17,1.17,35.08,1.82,53,1.46C278.88,467.19,294.28,466,308.77,464.36Z"/><path class="cls-2" d="M210.37,466c1.4,16.32,2.51,27.4,2.87,30.9-25.29-1.89-48.28-5.51-67.49-10.41a226.58,226.58,0,0,1-18.66-19.94c-.32-2.22-.83-5.91-1.48-10.85A851.75,851.75,0,0,0,210.37,466Z"/><path class="cls-3" d="M205.31,397.43c1.65,27,3.53,50.9,5.06,68.61a851.75,851.75,0,0,1-84.76-10.3c-2.06-15.57-5.53-43.59-8.64-77.15A582.6,582.6,0,0,0,205.31,397.43Z"/><path class="cls-3" d="M209.73,135.9c-1.21,10.55-4.57,42-6.67,81.62a592.72,592.72,0,0,1-89.33-18.47c3.64-37.27,9.34-67.31,11.6-78.39A576.68,576.68,0,0,0,209.73,135.9Z"/><path class="cls-2" d="M203,352.84c.65,15.43,1.45,30.44,2.31,44.59A582.6,582.6,0,0,1,117,378.59c-1.31-14-2.55-29.06-3.6-44.54C138.25,341.3,169.59,348.81,203,352.84Z"/><path class="cls-3" d="M201.61,307.88c.28,15.12.77,30.23,1.39,45-33.41-4-64.75-11.54-89.63-18.79-1.22-17.89-2.18-36.41-2.69-54.76-.16-5.84-.24-11.68-.22-17.49,0-5.29.09-10.56.24-15.78a589.28,589.28,0,0,0,90.73,17.88c-.18,11.1-.2,22.43,0,33.79Z"/><path class="cls-2" d="M203.06,217.52c-.77,14.55-1.37,30.22-1.63,46.38A589.28,589.28,0,0,1,110.7,246l0-1c.47-16,1.58-31.53,3-46A592.72,592.72,0,0,0,203.06,217.52Z"/><path class="cls-1" d="M117,378.59c3.11,33.56,6.58,61.58,8.64,77.15-5.23-.91-8.15-1.49-8.15-1.49a278.32,278.32,0,0,1-16.34-25h0A339.75,339.75,0,0,1,72,363.43S89.56,370.56,117,378.59Z"/><path class="cls-1" d="M125.33,120.66c-2.26,11.08-8,41.12-11.6,78.39C78.41,189,55.1,179.2,55.1,179.2a408.23,408.23,0,0,1,16.22-75.28l.55.18S92.77,112.29,125.33,120.66Z"/><path class="cls-2" d="M55.1,179.2s23.31,9.78,58.63,19.85c-1.42,14.47-2.53,30-3,46l0,1C76.1,236.46,53,227.09,52,226.65A442.64,442.64,0,0,1,55.1,179.2Z"/><path class="cls-2" d="M113.37,334.05c1,15.48,2.29,30.5,3.6,44.54-27.41-8-45-15.16-45-15.16a395,395,0,0,1-12.26-47.72C64.55,317.68,84.67,325.69,113.37,334.05Z"/><path class="cls-1" d="M110.68,279.29c.51,18.35,1.47,36.87,2.69,54.76-28.7-8.36-48.82-16.37-53.63-18.34h0a439.2,439.2,0,0,1-7.82-83.08q0-3,0-6c1.09.44,24.15,9.81,58.75,19.37-.15,5.22-.23,10.49-.24,15.78C110.44,267.61,110.52,273.45,110.68,279.29Z"/><path class="cls-4" d="M381.8,465.42c-.34,1.74-.53,2.65-.53,2.65"/><path class="cls-4" d="M395.11,377.64c-3.55,31.15-7.82,57.47-10.67,73.55"/><path class="cls-4" d="M400.3,241.05c.7,11,1.11,22.18,1.14,33.46,0,18.52-.71,37.22-1.94,55.32"/><path class="cls-4" d="M381.74,118.13c2.69,11.19,9.08,39.64,13.86,75.54"/><path class="cls-4" d="M305.41,496c-.17,1.47-.26,2.23-.26,2.23"/><path class="cls-4" d="M314.15,396.2c-1.63,26.59-3.66,50.3-5.38,68.16"/><path class="cls-4" d="M316,260.86c.57,13.54.95,27.47,1.08,41.47,0,5.42,0,10.86,0,16.28-.11,10.59-.35,21.15-.7,31.56"/><path class="cls-4" d="M305.83,134.14c1.36,11.36,4.83,41.94,7.56,80.7"/><path class="cls-4" d="M213.24,496.94l.12,1.18"/><path class="cls-4" d="M205.31,397.43c1.65,27,3.53,50.9,5.06,68.61"/><path class="cls-4" d="M201.43,263.9c-.18,11.1-.2,22.43,0,33.79l.18,10.19c.28,15.12.77,30.23,1.39,45"/><path class="cls-4" d="M209.73,135.9c-1.21,10.55-4.57,42-6.67,81.62"/><path class="cls-5" d="M406.77,42.49c3.55,3.17,5.44,6.48,5.44,9.91h0c0,21-70.86,38.06-158.26,38.06S95.71,73.43,95.71,52.41h0c0-3.44,1.91-6.76,5.47-9.92.39-.35.79-.7,1.22-1,7.43-5.94,20.74-11.27,38.31-15.6C169.44,18.77,209.56,14.37,254,14.37s84.52,4.4,113.26,11.47c17.57,4.33,30.88,9.66,38.31,15.6C406,41.79,406.37,42.14,406.77,42.49Z"/><path class="cls-5" d="M436.06,100.54l-.48.19c-3.35,1.29-24.06,9.18-53.84,17.4a606.29,606.29,0,0,1-75.72,16l-.19,0a397.11,397.11,0,0,1-50.59,4q-7.73.07-15.39-.18c-5.46-.18-10.86-.48-16.19-.86-4.69-.33-9.34-.74-13.93-1.2a576.68,576.68,0,0,1-84.4-15.24c-32.56-8.37-53.46-16.56-53.46-16.56"/><path class="cls-4" d="M117,378.59c3.11,33.56,6.58,61.58,8.64,77.15.65,4.94,1.16,8.63,1.48,10.85.22,1.58.34,2.41.34,2.41"/><path class="cls-4" d="M110.7,246c-.15,5.22-.23,10.49-.24,15.78,0,5.81.06,11.65.22,17.49.51,18.35,1.47,36.87,2.69,54.76"/><path class="cls-4" d="M126.29,116.06s-.36,1.61-1,4.6c-2.26,11.08-8,41.12-11.6,78.39"/><path class="cls-5" d="M59.73,315.71l-1.1-.46"/><path class="cls-5" d="M448.89,311.57s-19.31,8.62-49.39,18.26a588.45,588.45,0,0,1-83.15,20.34,411.3,411.3,0,0,1-62.47,5.69,393.2,393.2,0,0,1-50.88-3c-33.41-4-64.75-11.54-89.63-18.79-28.7-8.36-48.82-16.37-53.63-18.34"/><path class="cls-5" d="M455.87,221.29q.13,5.64.14,11.34a439.47,439.47,0,0,1-7.05,79,398.18,398.18,0,0,1-13,51.85,339.84,339.84,0,0,1-29.12,65.81q-5.9,10.13-12.37,19.45-6.07,8.76-12.64,16.73a229.42,229.42,0,0,1-19.63,21.11A379.57,379.57,0,0,1,305.41,496c-16.2,1.57-33.5,2.42-51.46,2.42-14,0-27.68-.52-40.71-1.5-25.29-1.89-48.28-5.51-67.49-10.41a226.58,226.58,0,0,1-18.66-19.94q-5-5.94-9.63-12.34a278.32,278.32,0,0,1-16.34-25h0A339.75,339.75,0,0,1,72,363.43a395,395,0,0,1-12.26-47.72h0a439.2,439.2,0,0,1-7.82-83.08q0-3,0-6A442.64,442.64,0,0,1,55.1,179.2a408.23,408.23,0,0,1,16.22-75.28,356.1,356.1,0,0,1,16.2-41.77h0c2.26-4.86,4.61-9.64,7-14.28a47.91,47.91,0,0,1,6.62-5.38c9.22-6.35,22.77-12,39.53-16.64C170.41,17.63,210.21,12.6,254,12.6s83.56,5,113.26,13.24c16.78,4.64,30.34,10.3,39.56,16.65a47.52,47.52,0,0,1,6.59,5.37c2.43,4.64,4.78,9.42,7,14.28h0a353.3,353.3,0,0,1,15.18,38.58,404.33,404.33,0,0,1,16.22,70.62A442.39,442.39,0,0,1,455.87,221.29Z"/><path class="cls-5" d="M55.1,179.2s23.31,9.78,58.63,19.85a592.72,592.72,0,0,0,89.33,18.47c10.84,1.32,21.9,2.29,33,2.8,3.86.17,7.74.29,11.62.35q4.22.06,8.43-.06c6.88-.18,13.75-.56,20.57-1.11,7.27-.59,14.48-1.39,21.62-2.35,5.06-.69,10.09-1.46,15.05-2.31a548.94,548.94,0,0,0,82.21-21.17c34-11.49,56.2-22.32,56.2-22.32"/><path class="cls-4" d="M51.91,226.63l0,0c1.09.44,24.15,9.81,58.75,19.37a589.28,589.28,0,0,0,90.73,17.88,413.51,413.51,0,0,0,53.49,2.65A441.66,441.66,0,0,0,316,260.86a632.51,632.51,0,0,0,84.32-19.81c33.64-10.29,55.57-19.76,55.57-19.76"/><path class="cls-4" d="M72,363.43s17.56,7.13,45,15.16a582.6,582.6,0,0,0,88.34,18.84,401,401,0,0,0,50.39,3.38,398.5,398.5,0,0,0,58.45-4.61,568.29,568.29,0,0,0,81-18.56c25-7.63,40.82-14.21,40.82-14.21"/><path class="cls-4" d="M117.46,454.25s2.92.58,8.15,1.49A851.75,851.75,0,0,0,210.37,466c17,1.17,35.08,1.82,53,1.46,15.53-.31,30.93-1.5,45.42-3.14a663.1,663.1,0,0,0,75.67-13.17c6.39-1.52,10-2.5,10-2.5"/><ellipse class="cls-6" cx="253.45" cy="52.42" rx="115.18" ry="15.99"/></svg>