<svg id="Layer_1" data-name="Layer 1" xmlns="http://www.w3.org/2000/svg" viewBox="0 0 512 512"><defs><style>.cls-1{fill:#754c24;}.cls-2{fill:#999;}.cls-3,.cls-4,.cls-5{fill:none;}.cls-3,.cls-5,.cls-6{stroke:#000;stroke-width:10px;}.cls-3,.cls-4{stroke-miterlimit:10;}.cls-4{stroke:#e6e6e6;stroke-width:12px;}.cls-5,.cls-6{stroke-linecap:round;stroke-linejoin:round;}</style></defs><title>blunderbuss</title><path class="cls-1" d="M447.44,394.85a102.54,102.54,0,0,1-.59,23.65A95.07,95.07,0,0,1,439,444.77c-7.84,16.86-23.48,30.1-39.9,39.93-23.6,14.14-56.2,16.58-56.2,16.58s-25.7,2-38.1-2.77c-6.79-2.64-8.61-7.83-9-11.32,7.64-1.1,26.4-4.08,37-8,6.71-2.49,13.15-5.57,17.5-9.32,18.06-15.58,37.24-39.43,37.81-65.2.33-14.81-4.32-30.23-14.48-44.89-3.46-5-9.43-9.89-16.91-14.67a274.4,274.4,0,0,0-25-13.81c-18.15-9-39.62-16.67-53.92-23.54a32.25,32.25,0,0,1-9.17-6.2c-3.58-3.63-2.58-9.42.76-16,2.88-5.66,8.08-11.28,14.08-16.57,4.22-3.72,8.84-7.28,13.31-10.58,7.21-5.33,12.6-12.73,15.32-16.93l0,0a46,46,0,0,1,9.68-5.95,25.54,25.54,0,0,1,10.11-2.46,14.49,14.49,0,0,1,5.79,1,22.4,22.4,0,0,1,5.55,3.32c6.22,5.16,13.28,11.71,20.69,18.8a31.17,31.17,0,0,0,6.74,6.52c9.81,9.54,19.92,19.53,29.16,28.07,4.36,4,8.54,8.06,12.42,11.95a91.72,91.72,0,0,1,7.95,9.08,79.7,79.7,0,0,1,7,10.9q1.59,3,2.9,6.12a244.52,244.52,0,0,1,15.15,49.8C446.23,384.19,447,389.58,447.44,394.85Z"/><path class="cls-1" d="M363.91,256.29c2.22,2.13,4.48,4.31,6.74,6.52A31.17,31.17,0,0,1,363.91,256.29Z"/><path class="cls-2" d="M355.12,231.25a41.21,41.21,0,0,0,8.8,25c-7.4-7.09-14.47-13.64-20.69-18.8a22.4,22.4,0,0,0-5.55-3.32,14.49,14.49,0,0,0-5.79-1,25.54,25.54,0,0,0-10.11,2.46v0c8.24-3.66,18-8.84,21.18-13.88a53.43,53.43,0,0,0,3.82-7.41c2.61-6.19,4.64-10.3,7.31-7.65,1.94,1.93,1.86,7.74,1.31,15C355.15,224.67,355,227.95,355.12,231.25Z"/><path class="cls-2" d="M310.53,240.11l1.53,1.4h0c-2.71,4.2-8.1,11.6-15.32,16.93-4.47,3.3-9.09,6.86-13.31,10.58l0,0s-34.51-48-86.25-82.26a266.73,266.73,0,0,0-31-17.68c-15.22-7.37-34.14-12-51.78-14.87l.09-.48s26.12-9.24,45.65-29.49c18.7-19.38,28.58-46.57,28.58-46.57,2.81,12.85,7.06,25.73,13.44,36C239.42,173.69,300.06,230.5,310.53,240.11Z"/><path class="cls-2" d="M183.34,30.82a261.63,261.63,0,0,0,5.38,46.82s-9.88,27.19-28.58,46.57c-19.52,20.25-45.65,29.49-45.65,29.49l-.09.48a388.12,388.12,0,0,0-41.94-4.44C91,146.5,118,128.87,142.38,102.39,166.06,76.67,181.1,49.36,183.34,30.82Z"/><path class="cls-2" d="M183.27,21.72a32,32,0,0,1,.07,9.09C183.19,25.36,183.26,22,183.27,21.72Z"/><path class="cls-2" d="M183.27,21.71s0,0,0,0c0,.24-.08,3.64.07,9.09-2.23,18.54-17.28,45.85-41,71.57C118,128.87,91,146.5,72.46,149.73c-7.67-.4-12.38-.42-12.38-.42A13.94,13.94,0,0,1,55,146.41c-14.16-12.71,2-53,36.11-90.06s73.24-56.74,87.4-44A15.64,15.64,0,0,1,183.27,21.71Z"/><path class="cls-2" d="M72.46,149.73a25.64,25.64,0,0,1-12.38-.42S64.79,149.33,72.46,149.73Z"/><path class="cls-3" d="M183.27,21.71a15.64,15.64,0,0,0-4.77-9.39c-14.16-12.71-53.28,7-87.4,44S40.84,133.7,55,146.41a13.94,13.94,0,0,0,5.09,2.89,25.64,25.64,0,0,0,12.38.42C91,146.5,118,128.87,142.38,102.39c23.68-25.73,38.73-53,41-71.57a32,32,0,0,0-.07-9.09"/><path class="cls-3" d="M312.06,241.52l0,0"/><path class="cls-3" d="M183.27,21.71s0,0,0,0c0,.24-.08,3.64.07,9.09a261.63,261.63,0,0,0,5.38,46.82c2.81,12.85,7.06,25.73,13.44,36,37.26,60,97.9,116.84,108.37,126.45l1.53,1.4"/><path class="cls-3" d="M60.08,149.31s4.71,0,12.38.42a388.12,388.12,0,0,1,41.94,4.44C132,157.07,151,161.68,166.18,169a266.73,266.73,0,0,1,31,17.68C248.9,221,283.4,269,283.4,269"/><path class="cls-3" d="M314,238.26s-.12.23-.39.67-.85,1.45-1.59,2.58h0c-2.71,4.2-8.1,11.6-15.32,16.93-4.47,3.3-9.09,6.86-13.31,10.58-6,5.29-11.2,10.91-14.08,16.57-3.34,6.54-4.34,12.34-.76,16a32.25,32.25,0,0,0,9.17,6.2c14.3,6.87,35.77,14.54,53.92,23.54a274.4,274.4,0,0,1,25,13.81c7.48,4.78,13.45,9.67,16.91,14.67,10.16,14.66,14.81,30.08,14.48,44.89-.57,25.77-19.75,49.62-37.81,65.2-4.35,3.75-10.79,6.83-17.5,9.32-10.56,3.92-29.33,6.9-37,8-2.1.31-3.36.47-3.36.47"/><path class="cls-3" d="M312.09,241.54a46,46,0,0,1,9.68-5.95,25.54,25.54,0,0,1,10.11-2.46,14.49,14.49,0,0,1,5.79,1,22.4,22.4,0,0,1,5.55,3.32c6.22,5.16,13.28,11.71,20.69,18.8,2.22,2.13,4.48,4.31,6.74,6.52,9.81,9.54,19.92,19.53,29.16,28.07,4.36,4,8.54,8.06,12.42,11.95a91.72,91.72,0,0,1,7.95,9.08,79.7,79.7,0,0,1,7,10.9q1.59,3,2.9,6.12a244.52,244.52,0,0,1,15.15,49.8c1,5.47,1.76,10.85,2.21,16.12a102.54,102.54,0,0,1-.59,23.65A95.07,95.07,0,0,1,439,444.77c-7.84,16.86-23.48,30.1-39.9,39.93-23.6,14.14-56.2,16.58-56.2,16.58"/><path class="cls-3" d="M342.92,501.28s-25.7,2-38.1-2.77c-6.79-2.64-8.61-7.83-9-11.32a13.72,13.72,0,0,1,0-3.53"/><path class="cls-3" d="M309.17,240.6l1.36-.49c.77-.28,1.84-.68,3.11-1.18,2.21-.85,5.06-2,8.12-3.36,8.24-3.66,18-8.84,21.18-13.88a53.43,53.43,0,0,0,3.82-7.41c2.61-6.19,4.64-10.3,7.31-7.65,1.94,1.93,1.86,7.74,1.31,15-.22,3-.35,6.32-.26,9.61a41.21,41.21,0,0,0,8.8,25,31.17,31.17,0,0,0,6.74,6.52"/><path class="cls-3" d="M188.72,77.64s-9.88,27.19-28.58,46.57c-19.52,20.25-45.65,29.49-45.65,29.49"/><path class="cls-3" d="M331.68,331.3s-31.34,64.42-17.95,89.51c12.2,22.85,69.3,6.46,69.3,6.46"/><path class="cls-3" d="M356.69,345.12s16.85,37.5,10.83,50.16c-2.75,5.78-9.52,6.31-16.28,5.74a85.52,85.52,0,0,0-16.83.15"/><path class="cls-4" d="M180.52,95.4s2,5.9,9.61,20.34c1.5,2.86,3.23,6,5.4,9.35q1.07,1.66,2.18,3.41l.52.82,4,6.34,1.21,1.9q.77,1.21,1.57,2.4l1,1.49q.85,1.25,1.74,2.48t1.89,2.59l1.24,1.63,1.49,1.93c2.12,2.76,4.35,5.63,6.7,8.54q1.39,1.73,2.83,3.47c2.09,2.53,4.23,5.1,6.44,7.7s4.32,5.07,6.54,7.62c7.85,9,16.05,18.2,23.92,26.76l1.08,1.17C281.42,228.65,300.65,247,300.65,247"/><path class="cls-5" d="M188.72,77.64s-9.88,27.19-28.58,46.57c-19.52,20.24-45.65,29.49-45.65,29.49"/><path class="cls-6" d="M105.09,69.13c-21.56,23.15-33.66,46.44-27,52s29.48-8.69,51-31.84,33.66-46.44,27-52S126.65,46,105.09,69.13Z"/></svg>