<svg id="Layer_1" data-name="Layer 1" xmlns="http://www.w3.org/2000/svg" viewBox="0 0 512 512"><defs><style>.cls-1{fill:#999;}.cls-2,.cls-4{fill:#f7931e;}.cls-3,.cls-5,.cls-6,.cls-7{fill:none;}.cls-3,.cls-4,.cls-5,.cls-7{stroke:#000;}.cls-3,.cls-4,.cls-5{stroke-linecap:round;stroke-linejoin:round;}.cls-3,.cls-4{stroke-width:10px;}.cls-5,.cls-7{stroke-width:6px;}.cls-6{stroke:#e6e6e6;stroke-width:11px;}.cls-6,.cls-7{stroke-miterlimit:10;}</style></defs><title>cannon_item</title><path class="cls-1" d="M459.09,115.83c30.24,39.47,45.63,78.11,34.36,86.29h0c-11.28,8.16-44.92-17.2-75.15-56.67s-45.6-78.05-34.37-86.27h0C395.2,51,428.85,76.36,459.09,115.83Zm14.27,61.52c4.31-3.08-7.71-26-26.85-51.29S408.34,82.83,404,85.9s7.7,26.05,26.85,51.3S469,180.43,473.36,177.35Z"/><path class="cls-1" d="M418.29,145.46c30.23,39.47,63.87,64.83,75.15,56.67-.76,1-49.45,63.51-104.62,111.37C331.73,363,269.41,387.66,269.41,387.66s-20,11.22-44.11,11.81c-21.52.53-47.4-1.69-68.59-10.47-14.51-6-27-14.69-36-25a98.22,98.22,0,0,1-21-39.56,71.35,71.35,0,0,1-2.26-17.87c-.16-32.24,18.34-63.31,18.34-63.31l268.17-184C372.69,67.41,388.07,106,418.29,145.46Z"/><path d="M446.51,126.06c19.14,25.25,31.16,48.21,26.85,51.29S450,162.45,430.88,137.2,399.71,89,404,85.9,427.36,100.8,446.51,126.06Z"/><path class="cls-1" d="M383.92,59.19,115.75,243.24s38.35-50.55,102.44-94.54C287.4,101.2,382.44,59.83,383.92,59.19Z"/><path class="cls-2" d="M97.41,306.55a71.35,71.35,0,0,0,2.26,17.87s-15.59,16.49-43.51.42a40.88,40.88,0,0,1-7.62-5.6,60.49,60.49,0,0,1-10.19-12.92A80.05,80.05,0,0,1,31.67,291a86.18,86.18,0,0,0-19.78-32.33s1.55-19.57,7.93-18.52a9.07,9.07,0,0,1,5.7,3.16,110.36,110.36,0,0,1,13,19.31c6.88,13.61,13.28,27.32,20.22,37.11C72.06,318.57,97.41,306.55,97.41,306.55Z"/><path class="cls-3" d="M383.92,59.19c-11.23,8.22,4.15,46.82,34.37,86.27s63.87,64.83,75.15,56.67"/><path class="cls-3" d="M493.45,202.12c11.27-8.18-4.12-46.82-34.36-86.29S395.2,51,383.94,59.18"/><path class="cls-3" d="M383.92,59.19c-1.48.64-96.52,42-165.73,89.51-64.09,44-102.44,94.54-102.44,94.54"/><line class="cls-3" x1="383.92" y1="59.19" x2="383.94" y2="59.18"/><path class="cls-3" d="M493.45,202.12h0c-.76,1-49.45,63.51-104.62,111.37C331.73,363,269.41,387.66,269.41,387.66"/><path class="cls-3" d="M115.75,243.24s-18.5,31.07-18.34,63.31a71.35,71.35,0,0,0,2.26,17.87"/><path class="cls-3" d="M97.41,306.55s-25.35,12-38.69-6.8c-6.94-9.79-13.34-23.5-20.22-37.11a110.36,110.36,0,0,0-13-19.31,9.07,9.07,0,0,0-5.7-3.16c-6.38-1-7.93,18.52-7.93,18.52"/><path class="cls-3" d="M99.67,324.42s-15.59,16.49-43.51.42a40.88,40.88,0,0,1-7.62-5.6,60.49,60.49,0,0,1-10.19-12.92A80.05,80.05,0,0,1,31.67,291a86.18,86.18,0,0,0-19.78-32.33"/><path class="cls-3" d="M446.51,126.06C427.36,100.8,408.34,82.83,404,85.9s7.7,26.05,26.85,51.3,38.16,43.23,42.48,40.15S465.65,151.31,446.51,126.06Z"/><path class="cls-3" d="M99.67,324.42s16,48.65,49.56,61.15c48.5,18.07,120.17,2.08,120.17,2.08"/><circle class="cls-4" cx="231.57" cy="362.21" r="28.32"/><path class="cls-2" d="M231.57,262.33A99.89,99.89,0,1,1,132,362.21,99.75,99.75,0,0,1,231.57,262.33Zm73.32,106.5V355.6h-1.3a71.92,71.92,0,0,0-15.41-38.4l.15-.15-1.55-1.55a72.18,72.18,0,0,0-47.95-25.25v-1.36H225.6v1.25a71.88,71.88,0,0,0-39,15.46l-.22-.22-2.45,2.45a73,73,0,0,0-6.7,6.7l-.21.21h0a72.34,72.34,0,0,0,0,94.92l0,0,.28.28a73.52,73.52,0,0,0,6.61,6.6l2.47,2.47.22-.22a72,72,0,0,0,45,15.71q3.45,0,6.82-.32h.84v-.08A72.15,72.15,0,0,0,286.74,409l1.59-1.59-.15-.15a72,72,0,0,0,15.41-38.4Z"/><path class="cls-2" d="M303.59,355.6q.3,3.27.3,6.61t-.3,6.62h-42.7V355.6Z"/><path class="cls-2" d="M288.18,317.2l-31,31-9.35-9.36L279,307.69l7.8,7.81C287.26,316.06,287.72,316.62,288.18,317.2Z"/><path class="cls-2" d="M257.22,376.27l31,31c-.48.59-.95,1.17-1.44,1.74L279,416.73l-31.11-31.1Z"/><path class="cls-2" d="M239.23,390.22v43.91l-.84.08H226v-44Z"/><path class="cls-2" d="M238.83,290.25v42.64H225.6V290.14q3-.25,6-.25A72.47,72.47,0,0,1,238.83,290.25Z"/><path class="cls-2" d="M217.45,336.49l-9.36,9.36L177,314.75l.2-.22,6.7-6.7c.87-.76,1.76-1.51,2.67-2.23Z"/><path class="cls-2" d="M217.45,387.94l-30.89,30.88c-.92-.73-1.81-1.48-2.69-2.25l-6.61-6.6-.26-.3,31.09-31.09Z"/><rect class="cls-2" x="160.11" y="355.6" width="43.99" height="13.23"/><path class="cls-3" d="M331.19,362.21a99.62,99.62,0,1,1-99.62-99.88A99.75,99.75,0,0,1,331.19,362.21Z"/><path class="cls-3" d="M303.59,355.6q.3,3.27.3,6.61t-.3,6.62a72,72,0,0,1-15.41,38.4c-.48.59-.95,1.17-1.44,1.74a72.15,72.15,0,0,1-47.51,25.16l-.84.08q-3.37.32-6.82.32a72,72,0,0,1-45-15.71c-.92-.73-1.81-1.48-2.69-2.25a73.52,73.52,0,0,1-6.61-6.6l-.26-.3a72.34,72.34,0,0,1,0-94.92l.2-.22a73,73,0,0,1,6.7-6.7c.87-.76,1.76-1.51,2.67-2.23a71.88,71.88,0,0,1,39-15.46q3-.25,6-.25a72.19,72.19,0,0,1,55.21,25.61c.48.56.94,1.12,1.4,1.7A71.92,71.92,0,0,1,303.59,355.6Z"/><polygon class="cls-5" points="238.83 290.25 238.83 332.89 225.6 332.89 225.6 290.14 225.6 288.89 238.83 288.89 238.83 290.25"/><rect class="cls-5" x="160.11" y="355.6" width="43.99" height="13.23"/><polygon class="cls-5" points="288.18 407.23 288.33 407.38 286.74 408.97 278.98 416.73 247.87 385.63 257.22 376.27 288.18 407.23"/><polygon class="cls-5" points="288.18 317.2 257.22 348.16 247.87 338.8 278.98 307.69 286.78 315.5 288.33 317.05 288.18 317.2"/><polygon class="cls-5" points="303.59 368.83 260.89 368.83 260.89 355.6 303.59 355.6 304.89 355.6 304.89 368.83 303.59 368.83"/><polygon class="cls-5" points="239.23 434.13 239.23 434.21 238.39 434.21 226 434.21 226 390.22 239.23 390.22 239.23 434.13"/><polygon class="cls-5" points="186.56 305.6 217.45 336.49 208.09 345.85 176.99 314.75 176.98 314.74 177.19 314.53 183.89 307.83 186.34 305.38 186.56 305.6"/><polygon class="cls-5" points="177 409.67 208.09 378.58 217.45 387.94 186.56 418.82 186.34 419.04 183.87 416.57 177.26 409.97 176.98 409.69 177 409.67"/><path class="cls-6" d="M378.07,72.39s-6.3,1.61-16.94,6.74q-.75.36-1.53.71c-8.53,3.78-19.54,9.31-32.14,16.3l-8.25,4.59c-8.21,4.58-17,9.62-26.27,14.93l-3.12,1.79-1.49.85-5,2.86c-7.35,4.22-14.87,8.64-22.42,13.2l-1.79,1.08q-3.82,2.32-7.63,4.69c-5.24,3.27-10.46,6.6-15.63,10q-5.15,3.39-10.21,6.86-2.17,1.49-4.31,3-3.23,2.27-6.4,4.56l-1.64,1.19-2.1,1.54q-2.56,1.89-5.08,3.78-5.36,4-10.5,8.11-3.21,2.54-6.32,5.09-2.29,1.87-4.51,3.74l-3.1,2.62q-9.09,7.74-17.17,15.37-1.76,1.66-3.47,3.31c-9.81,9.46-18.5,18.7-26.06,27.36L133,239l-1.61,1.87q-1.67,2-3.25,3.91c-1.42,1.75-2.74,3.5-4,5.24-1.82,2.54-3.49,5-5,7.48l-1.13,1.8C105.58,279.09,99.6,292,99.6,292"/><path class="cls-3" d="M459.09,116.3c-30.24-39.47-63.89-64.84-75.16-56.65s4.12,46.82,34.36,86.29,63.89,64.84,75.16,56.65S489.33,155.77,459.09,116.3Z"/><path class="cls-3" d="M120.37,237.49a35.69,35.69,0,0,0-5.7,7.68c-2.21,3.89-4.85,8.9-7.35,14.35q-.7,1.52-1.34,3.09-.55,1.33-1,2.68A115.63,115.63,0,0,0,101.45,277c-3.05,12.14-3.46,19-3.46,19"/><line class="cls-7" x1="74.54" y1="310.89" x2="74.45" y2="331.51"/><line class="cls-7" x1="58.72" y1="299.75" x2="48.54" y2="319.24"/><line class="cls-7" x1="46.13" y1="277.85" x2="31.67" y2="291.02"/><line class="cls-7" x1="34.71" y1="256" x2="21.84" y2="271.08"/></svg>