<svg id="Layer_1" data-name="Layer 1" xmlns="http://www.w3.org/2000/svg" viewBox="0 0 512 512"><defs><style>.cls-1{fill:#fff;}.cls-2,.cls-3{fill:none;stroke:#000;stroke-miterlimit:10;}.cls-2{stroke-width:10px;}.cls-3{stroke-width:6px;}</style></defs><title>crossbones</title><path class="cls-1" d="M429.82,217.31,311.67,262.86,254.2,235.63l129.11-62.56a22.12,22.12,0,0,0-.49,3.92c.3-1.4.63-2.79,1-4.15,10.42-42.88,33.59-73.19,54.66-69.56,18.28,3.15,29.5,30.89,29.2,66.83h1.17c22.92,15.81,28.22,35.6,17.12,48.11-9.49,10.69-34,11.89-55.54-.58Z"/><path class="cls-1" d="M115.08,170.75l2.39.09,136.72,64.79h0l57.47,27.23L392,300.94a23.06,23.06,0,0,0-3.35,2.09c1.28-.64,2.56-1.26,3.83-1.86,39.88-18.77,78-19.72,88.39-1,9,16.22-5.52,42.38-33.65,64.69l.72.92c2.1,27.79-7.74,50.45-24.72,53.47-20,3.55-42.24-21.33-49.76-55.59a105,105,0,0,1-2.44-19.23c-.07.63-.13,1.26-.18,1.9L254.22,290.37l-56.79-27.24h0L105.48,219l-1.07.35c-42,13.38-80,9.35-87.84-10.54-6.81-17.25,11.06-41.26,41.91-59.69l-.6-1c1.58-27.79,15.74-42.61,32.19-39.63,14.07,2.54,27.81,22.82,28.39,47.74a39,39,0,0,1-.86,8.79A16.73,16.73,0,0,1,115.08,170.75Z"/><path class="cls-1" d="M137.11,346.36C129.67,389,109.29,420,88.55,417.93,70.33,416.07,57.29,389.18,55,353.3l-1.15.07c-23.7-14.16-36.55-35.2-29.45-50.89,8.33-18.44,41-22.55,73-9.16a102.35,102.35,0,0,1,17.67,9.45l82.32-39.64h0l56.79,27.24-117,56Z"/><path class="cls-2" d="M382.82,177c.3-1.4.63-2.79,1-4.15,10.42-42.88,33.59-73.19,54.66-69.56,18.28,3.15,29.5,30.89,29.2,66.83a187.86,187.86,0,0,1-2.77,30.12c-.09.55-.19,1.1-.29,1.64"/><path class="cls-3" d="M382.82,177a22.12,22.12,0,0,1,.49-3.92h0c.1-.55.24-1.09.39-1.62,0,.47,0,.93.08,1.4"/><path class="cls-2" d="M468.81,170.12c22.92,15.81,28.22,35.6,17.12,48.11-9.49,10.69-34,11.89-55.54-.58l-.57-.34a38.34,38.34,0,0,1-6.5-5,17.06,17.06,0,0,1-3.55-5.11c-2.45-5.18-2.39-12.82-1.87-20.77.84-12.5,2.38-24.47-2.89-28.61"/><polyline class="cls-2" points="197.42 263.13 115.1 302.77 111.44 304.53"/><polyline class="cls-2" points="383.78 172.84 383.31 173.07 254.2 235.63"/><line class="cls-2" x1="254.22" y1="290.37" x2="137.22" y2="346.38"/><polyline class="cls-2" points="430.66 216.98 429.82 217.31 311.67 262.86"/><path class="cls-2" d="M138,340.45c-.2,1.41-.42,2.82-.64,4.21-.09.57-.19,1.13-.29,1.7C129.67,389,109.29,420,88.55,417.93,70.33,416.07,57.29,389.18,55,353.3A189.66,189.66,0,0,1,55.58,323c.05-.56.11-1.11.17-1.66"/><path class="cls-2" d="M53.86,353.37c-23.7-14.16-36.55-35.2-29.45-50.89,8.33-18.44,41-22.55,73-9.16a102.35,102.35,0,0,1,17.67,9.45l.81.54"/><path class="cls-3" d="M370.88,346.32c.05-.64.11-1.27.18-1.9a.13.13,0,0,0,0-.06"/><path class="cls-2" d="M388.69,303c1.28-.64,2.56-1.26,3.83-1.86,39.88-18.77,78-19.72,88.39-1,9,16.22-5.52,42.38-33.65,64.69a186.65,186.65,0,0,1-25.16,16.74c-.49.28-1,.54-1.46.8"/><path class="cls-3" d="M392.05,300.94c.5-.26,1-.49,1.51-.7-.36.3-.7.61-1,.93"/><path class="cls-3" d="M388.69,303a23.06,23.06,0,0,1,3.35-2.09"/><path class="cls-2" d="M448,365.77c2.1,27.79-7.74,50.45-24.72,53.47-20,3.55-42.24-21.33-49.76-55.59a105,105,0,0,1-2.44-19.23c0-.62,0-1.23,0-1.84"/><polyline class="cls-2" points="392.52 301.17 392.05 300.94 392.04 300.94 311.67 262.86 254.2 235.63 254.19 235.63 117.47 170.84"/><polyline class="cls-2" points="370.88 346.32 254.22 290.37 197.43 263.13 197.42 263.13 105.48 219.04 102.88 217.79"/><path class="cls-2" d="M108.45,218.05l-3,1-1.07.35c-42,13.38-80,9.35-87.84-10.54-6.81-17.25,11.06-41.26,41.91-59.69a187.36,187.36,0,0,1,27.16-13.29l1.56-.6"/><path class="cls-2" d="M57.88,148.16c1.58-27.79,15.74-42.61,32.19-39.63,14.07,2.54,27.81,22.82,28.39,47.74a39,39,0,0,1-.86,8.79,16.73,16.73,0,0,1-2.52,5.69c-3.15,4.79-9.71,8.72-16.77,12.4-11.11,5.79-22.14,10.69-22.94,17.34"/></svg>