<svg id="Layer_1" data-name="Layer 1" xmlns="http://www.w3.org/2000/svg" viewBox="0 0 512 512"><defs><style>.cls-1,.cls-6{fill:none;}.cls-1,.cls-6,.cls-7{stroke:#000;stroke-miterlimit:10;}.cls-1{stroke-width:10px;}.cls-2{fill:#754c24;}.cls-3{fill:red;}.cls-4,.cls-7{fill:#f7931e;}.cls-5{fill:#fff;}.cls-6,.cls-7{stroke-width:6px;}</style></defs><title>drum</title><line class="cls-1" x1="51.47" y1="146.68" x2="50.65" y2="146.68"/><path class="cls-2" d="M61.29,397.89c11.76,4.06,33.28,10.94,61.13,17.52,4.93,1.16,10,2.37,15.33,3.65a588.54,588.54,0,0,0,58.52,11.24c12.4,1.72,25.22,3,38.33,3.82,12.32.72,24.86.94,37.42.6a558.77,558.77,0,0,0,65.63-5.91Q343.37,428,349,427a807.26,807.26,0,0,0,131.73-33.71l.22.49v-.57c4.61-1.62,7.73-2.79,9.14-3.33.89,12.15,2.12,41-5.75,45.67-14.22,8.38-37.61,18.09-66.82,26.6a553.07,553.07,0,0,1-86.18,17.66c-13.09,1.62-26.54,2.84-40.21,3.6-9.29.52-18.68.82-28.08.81-3.11,0-6.23,0-9.33-.13a487.8,487.8,0,0,1-70.82-7.25c-3.43-.61-6.84-1.22-10.23-1.84l-16.75-3.12c-7.15-1.35-14.17-2.74-21-4.19-4.75-1-9.4-2.11-13.92-3.26-24.56-6.27-44.29-14.69-58.51-23.26C49,433.1,50.37,405.53,51.31,394.29h0s2.12.83,6.11,2.24C58.55,396.94,59.85,397.4,61.29,397.89Z"/><path class="cls-2" d="M62.55,210c-2.36-1-4.27-1.85-5.71-2.51l-1.08-81.43c0,32,96.87,58,216.37,58s216.36-26,216.36-58v80.67c-1.46.66-3.68,1.64-6.59,2.87a494.43,494.43,0,0,1-74.69,24.36c-2.43.59-4.91,1.16-7.41,1.73-39.86,9-88.64,16.52-136.58,16.2-38.82-.25-76.79-5.78-109.57-13-7.43-1.63-14.59-3.37-21.41-5.17A511.61,511.61,0,0,1,62.55,210Z"/><path class="cls-3" d="M481.9,209.59l0,.06-1,183.61-.22.07-70.92-158-2.58-1.35A494.43,494.43,0,0,0,481.9,209.59Z"/><path class="cls-4" d="M409.79,235.3l70.92,158A807.26,807.26,0,0,1,349,427Z"/><path class="cls-5" d="M272.13,68.07c119.5,0,216.36,26,216.36,58s-96.86,58-216.36,58-216.37-26-216.37-58S152.64,68.07,272.13,68.07Z"/><path class="cls-3" d="M409.79,235.3,349,427q-5.6.91-11.32,1.75L263.22,251.88c47.94.32,96.72-7.23,136.58-16.2,2.5-.57,5-1.14,7.41-1.73Z"/><path class="cls-4" d="M263.22,251.88l74.44,176.91A558.77,558.77,0,0,1,272,434.7c-12.56.34-25.1.13-37.42-.6-13.11-.78-25.94-2.1-38.33-3.82l.34-2.4Z"/><path class="cls-3" d="M263.22,251.88l-66.61,176L132.24,233.75c6.82,1.8,14,3.54,21.41,5.17C186.43,246.1,224.4,251.63,263.22,251.88Z"/><path class="cls-4" d="M132.24,233.75l64.37,194.14-.34,2.4A588.54,588.54,0,0,1,137.75,419c-5.28-1.28-10.4-2.48-15.33-3.65C94.57,408.82,73,401.95,61.29,397.89l.07-10Z"/><path class="cls-3" d="M132.24,233.75,61.35,387.9,62.55,210A511.61,511.61,0,0,0,132.24,233.75Z"/><polyline class="cls-1" points="488.49 124.26 488.49 126.05 488.49 206.72 488.49 210.49"/><polyline class="cls-1" points="55.76 126.05 56.84 207.48 56.88 210.45"/><ellipse class="cls-1" cx="272.13" cy="126.06" rx="216.36" ry="57.99"/><path class="cls-1" d="M490.57,205.76s-.71.34-2.08,1-3.68,1.64-6.59,2.87a494.43,494.43,0,0,1-74.69,24.36c-2.43.59-4.91,1.16-7.41,1.73-39.86,9-88.64,16.52-136.58,16.2-38.82-.25-76.79-5.78-109.57-13-7.43-1.63-14.59-3.37-21.41-5.17A511.61,511.61,0,0,1,62.55,210c-2.36-1-4.27-1.85-5.71-2.51-2.1-1-3.2-1.49-3.2-1.49"/><polyline class="cls-1" points="62.57 206.48 62.55 209.98 61.35 387.9 61.29 397.89 61.28 400.18"/><polyline class="cls-1" points="481.94 209.65 480.93 393.26 480.93 393.82"/><path class="cls-1" d="M490.91,389.61l-.85.32c-1.41.53-4.52,1.71-9.14,3.33l-.22.07A807.26,807.26,0,0,1,349,427q-5.6.91-11.32,1.75A558.77,558.77,0,0,1,272,434.7c-12.56.34-25.1.13-37.42-.6-13.11-.78-25.94-2.1-38.33-3.82A588.54,588.54,0,0,1,137.75,419c-5.28-1.28-10.4-2.48-15.33-3.65C94.57,408.82,73,401.95,61.29,397.89c-1.44-.49-2.73-.95-3.87-1.35-4-1.41-6.11-2.24-6.11-2.24"/><path class="cls-1" d="M51.83,388.92s-.11.88-.26,2.48c-.07.77-.16,1.75-.26,2.89-.93,11.24-2.31,38.8,11.18,46.93,14.22,8.57,33.94,17,58.51,23.26,4.52,1.15,9.17,2.25,13.92,3.26,6.81,1.45,13.83,2.84,21,4.19l16.75,3.12c3.39.63,6.81,1.24,10.23,1.84a487.8,487.8,0,0,0,70.82,7.25c3.11.09,6.23.13,9.33.13,9.4,0,18.79-.29,28.08-.81,13.67-.77,27.12-2,40.21-3.6a553.07,553.07,0,0,0,86.18-17.66c29.21-8.51,52.6-18.22,66.82-26.6,7.87-4.64,6.64-33.52,5.75-45.67-.24-3.32-.46-5.38-.46-5.38"/><polyline class="cls-1" points="263.22 251.88 337.66 428.79 337.69 428.87"/><polyline class="cls-1" points="409.79 235.3 348.98 427.04 348.71 427.89"/><polyline class="cls-1" points="409.79 235.3 480.71 393.33 480.93 393.82"/><line class="cls-1" x1="196.61" y1="427.89" x2="263.22" y2="251.88"/><line class="cls-1" x1="196.61" y1="427.89" x2="132.24" y2="233.75"/><polyline class="cls-1" points="132.24 233.75 61.35 387.9 57.59 396.1"/><path class="cls-1" d="M368.72,92.9s83.61,17,83.61,34.12c0,17.5-83.61,35.18-83.61,35.18"/><path class="cls-1" d="M345.69,109.49S399,116.14,399,125.84c0,8.85-53.32,20.84-53.32,20.84"/><path class="cls-6" d="M321.77,144c-2,5.3-70.38-14.21-152.71-43.58S21.62,42.93,23.62,37.63,94,51.85,176.33,81.21,323.78,138.69,321.77,144Z"/><path class="cls-7" d="M319.36,133.61c-1.06,5.55-71.83-2.54-158.08-18.06S6,82.94,7,77.39s71.83,2.54,158.08,18.06S320.42,128.06,319.36,133.61Z"/><path class="cls-7" d="M321.77,144c-2,5.3-70.38-14.21-152.71-43.58S21.62,42.93,23.62,37.63,94,51.85,176.33,81.21,323.78,138.69,321.77,144Z"/></svg>