<svg id="Layer_1" data-name="Layer 1" xmlns="http://www.w3.org/2000/svg" viewBox="0 0 512 512"><defs><style>.cls-1,.cls-2,.cls-3{fill:none;}.cls-1,.cls-2{stroke:#000;}.cls-1,.cls-3,.cls-4,.cls-5{stroke-miterlimit:10;}.cls-1,.cls-2,.cls-3,.cls-5{stroke-width:10px;}.cls-2{stroke-linecap:round;stroke-linejoin:round;}.cls-3,.cls-4,.cls-5{stroke:#fff;}.cls-4{fill:#fff;stroke-width:0.75px;}</style></defs><title>eyepatch</title><path d="M393.77,349.51l-.82.41s-1.37,4.17-3.94,10.88a0,0,0,0,1,0,0c-9,18.14-30.7,59.61-54.79,88.11h0s0,0,0,0a51.41,51.41,0,0,1-15.71,8.6c-45.7,14.57-106,16.91-150.61-1.76s-64.05-87.24-67.57-101.2c8.28-3.13,39.06-14.76,78-29,25.8-9.45,55.48-18.76,85.5-23.39,23.2-3.58,45.65-3.23,64.91.41C368.94,310.23,388.35,339.75,393.77,349.51Z"/><path d="M334.21,448.93C358.3,420.43,380,379,389,360.82c-8.11,21.14-28.13,67.43-54.79,88.12Z"/><path d="M334.19,449c-2.62,3.09-5.28,6-8,8.72a64.91,64.91,0,0,1-16,12.18,210.92,210.92,0,0,1-40.64,15.91c-33.86,9.17-70,10.21-99.74-.94a77.35,77.35,0,0,1-7.74-3.39c-47.72-24.08-61.78-126.84-61.78-126.84h0c3.52,14,22.9,82.53,67.57,101.2s104.91,16.32,150.61,1.76A51.41,51.41,0,0,0,334.19,449Z"/><path class="cls-1" d="M100.29,354.61l-2.2.84"/><path class="cls-1" d="M395.39,352.67s-.52-1.17-1.62-3.15c-5.42-9.76-24.83-39.28-65.07-46.88-19.26-3.64-41.71-4-64.91-.41-30,4.62-59.7,13.94-85.5,23.39-38.94,14.24-69.71,25.87-78,29"/><path class="cls-1" d="M334.19,449a51.41,51.41,0,0,1-15.71,8.6c-45.7,14.57-106,16.91-150.61-1.76s-64.05-87.24-67.57-101.2h0c-.4-1.61-.6-2.49-.6-2.49"/><path class="cls-1" d="M389,360.82c-8.11,21.14-28.13,67.43-54.79,88.12"/><path class="cls-1" d="M393,349.92s-1.37,4.17-3.94,10.88"/><path class="cls-2" d="M393.38,351.74s-1.56,3.38-4.37,9.06a0,0,0,0,1,0,0c-9,18.14-30.7,59.61-54.79,88.11h0s0,0,0,0c-2.62,3.09-5.28,6-8,8.72a64.91,64.91,0,0,1-16,12.18,210.92,210.92,0,0,1-40.64,15.91c-33.86,9.17-70,10.21-99.74-.94a77.35,77.35,0,0,1-7.74-3.39c-47.72-24.08-61.78-126.84-61.78-126.84"/><path class="cls-1" d="M392.52,351.23s93.87,4.74,94.11-14.54c.3-23.73-1.65-64.49-16.24-105.56a261.88,261.88,0,0,0-27.63-56c-26.56-40.42-65-75.43-97.68-100.4-21.77-16.63-44.91-23.9-61.66-27.08l-2-.36A203.31,203.31,0,0,0,259,44.71"/><path class="cls-1" d="M275.6,46.55S262.39,44.74,242,43.34l-3.73-.25A268,268,0,0,0,176.76,46c-69.1,11.76-149.62,34.44-154.26,58.3a17.69,17.69,0,0,0,.7,9,48,48,0,0,0,3,7.15,87.6,87.6,0,0,0,11,16.13A184.59,184.59,0,0,0,57.84,157c20.92,17.94,50,36.31,72.84,54.55a133.14,133.14,0,0,1,17.73,16.78,63.46,63.46,0,0,1,5.93,8A29.81,29.81,0,0,1,159,250.49a36.64,36.64,0,0,1-.5,8.54c-1.86,10.68-9,21.13-19.77,31.09s-25.11,18.25-41.11,25a177.21,177.21,0,0,0-18.4,8.92A65.66,65.66,0,0,0,66.78,333c-20.34,19,35,23.39,35,23.39"/><path class="cls-3" d="M102.84,363.77s1.62.62,4.68-1.63l.92-.66a18,18,0,0,1,2.56-1.55l2.38-1.13,2.12-1a49.53,49.53,0,0,1,8.54-3.26,82.81,82.81,0,0,0,8.14-2.54q1.54-.58,3.17-1.22c1.92-.76,3.94-1.53,6.07-2.31q3.8-1.39,7.88-3,3.6-1.41,7.39-3c3.39-1.4,6.92-2.81,10.58-4.23q2.7-1,5.49-2.08,3-1.11,6.06-2.21,4.23-1.52,8.6-3.05,3.56-1.25,7.2-2.49c3.63-1.24,7.33-2.44,11.08-3.58,5.39-1.64,10.89-3.22,16.46-4.69,7.15-1.89,14.41-3.62,21.68-5.12,6.57-1.36,13.16-2.51,19.68-3.43q3.6-.51,7.17-.91t7-.71c5.39-.47,10.77-.72,16.08-.77q3.69,0,7.33.09,4.19.14,8.29.51,3.64.32,7.19.81,2.28.31,4.51.69,2.72.46,5.37,1,1.6.32,3.18.66,2,.44,4,.92c3,.72,5.81,1.52,8.56,2.38,1,.3,1.89.63,2.77,1s1.78.77,2.62,1.2a42.17,42.17,0,0,1,4.65,2.77q3.37,2.3,6.45,4.5,2.72,1.94,5.11,3.79,1,.77,1.94,1.55,1.59,1.31,3,2.6c1,.94,2.11,2,3.2,3.12.85.87,1.7,1.79,2.52,2.72s1.84,2.12,2.68,3.19c.66.83,1.39,1.65,2.15,2.47l1.82,2A51.25,51.25,0,0,1,389,358.53c.18.35-.13-.9-.13-.9"/><path class="cls-4" d="M157.8,314.44a4.41,4.41,0,0,1-4.36-2.92l-4.73,1.89-.79.31-8.45,3.37-13.93,5.56,29.22-2a6,6,0,0,1,.79-3.25,5.39,5.39,0,0,1,3-2.34l-.1-.69A5.68,5.68,0,0,1,157.8,314.44Z"/><ellipse class="cls-5" cx="80.11" cy="275.84" rx="0.64"/><path class="cls-2" d="M393.38,351.74s-27.54,59.77-59.17,97.19c-2.62,3.1-5.29,6-8,8.75a64.86,64.86,0,0,1-16,12.18,211.1,211.1,0,0,1-40.64,15.91c-33.85,9.17-70,10.2-99.73-.93a77.29,77.29,0,0,1-7.74-3.39c-47.71-24.08-61.77-126.84-61.77-126.84"/></svg>