<svg id="Layer_1" data-name="Layer 1" xmlns="http://www.w3.org/2000/svg" viewBox="0 0 512 512"><defs><style>.cls-1{fill:#8c6239;}.cls-2{fill:#603813;}.cls-3,.cls-4,.cls-7,.cls-8{fill:none;}.cls-3,.cls-4,.cls-5,.cls-7,.cls-8{stroke:#000;}.cls-3,.cls-5,.cls-8{stroke-miterlimit:10;}.cls-3,.cls-4{stroke-width:10px;}.cls-4,.cls-7{stroke-linecap:round;stroke-linejoin:round;}.cls-5{fill:#fff;}.cls-5,.cls-7,.cls-8{stroke-width:6px;}.cls-6{fill:red;}</style></defs><title>gunpowder</title><path class="cls-1" d="M464,176.12a412.85,412.85,0,0,1,4.27,59.48A401.2,401.2,0,0,1,453.33,345s-19,6.06-48.43,12.74a954,954,0,0,0,3.27-101c-.56-22.42-2.28-44.17-4.57-64.26C440,184.15,464,176.12,464,176.12Z"/><path d="M455.41,133.77A385.49,385.49,0,0,1,464,176.12s-24,8-60.36,16.39c-1.89-16.57-4.16-32-6.48-45.76C432.23,140.18,455.41,133.77,455.41,133.77Z"/><path d="M453.33,345a348.58,348.58,0,0,1-19.42,52.42h0s-13,3.51-33.87,7.82c1.74-14.16,3.45-30.21,4.87-47.5C434.35,351.09,453.33,345,453.33,345Z"/><path class="cls-1" d="M433.9,397.45h0a309.21,309.21,0,0,1-16.66,31,266.62,266.62,0,0,1-26,35.59c1.3-7.07,5.09-28.7,8.78-58.78C420.95,401,433.9,397.45,433.9,397.45Z"/><path class="cls-1" d="M431.33,68.36a348.48,348.48,0,0,1,24.08,65.41s-23.18,6.42-58.28,13c-6.5-38.46-13.4-63.74-13.4-63.74,24.39-6.51,39.12-15,39.12-24.2h0c0-3.36-2-6.61-5.64-9.72A48.8,48.8,0,0,1,424,54.34c2.52,4.55,5,9.24,7.29,14Z"/><path class="cls-2" d="M422.84,58.79h0c0,9.23-14.72,17.69-39.12,24.2-20.07,5.37-46.69,9.42-77,11.52-15.13,1-31.2,1.62-47.84,1.62-14.19,0-27.95-.41-41.06-1.19C184.65,93,155.56,88.76,134,83,109.62,76.49,94.9,68,94.9,58.8h0c0-3.37,2-6.63,5.67-9.73,9.55-6.23,23.59-11.77,41-16.32,29.77-6.94,71.34-11.25,117.34-11.25s87.58,4.32,117.36,11.25c17.39,4.55,31.44,10.1,41,16.33C420.88,52.18,422.84,55.43,422.84,58.79Z"/><path class="cls-2" d="M408.17,256.77a954,954,0,0,1-3.27,101A739,739,0,0,1,320.69,372c.81-22.32,1.24-46.39,1-71.12-.06-6.19-.18-12.4-.34-18.59-.7-26.29-2.05-51.73-3.66-74.93a769.59,769.59,0,0,0,85.91-14.81C405.89,212.6,407.61,234.35,408.17,256.77Z"/><path d="M403.6,192.51a769.59,769.59,0,0,1-85.91,14.81c-1.23-17.88-2.61-34.44-4-49.06,30.91-2.64,59.84-7.11,83.4-11.52C399.44,160.5,401.71,175.94,403.6,192.51Z"/><path d="M404.9,357.77c-1.42,17.28-3.13,33.33-4.87,47.5a815.86,815.86,0,0,1-81.56,12.62c.86-14.07,1.64-29.52,2.22-45.93A739,739,0,0,0,404.9,357.77Z"/><path class="cls-2" d="M400,405.27c-3.69,30.08-7.48,51.71-8.78,58.78A231.1,231.1,0,0,1,371,484.65,414.07,414.07,0,0,1,312.15,494c.88-7.88,3.9-36.49,6.32-76.08A815.86,815.86,0,0,0,400,405.27Z"/><path class="cls-2" d="M397.12,146.75c-23.56,4.4-52.49,8.88-83.4,11.52-3.61-38.66-7-63.74-7-63.74,30.34-2.1,57-6.15,77-11.52C383.73,83,390.63,108.28,397.12,146.75Z"/><path class="cls-1" d="M321.69,300.83c.24,24.73-.2,48.8-1,71.12-16.18,1.72-33,2.86-49.85,3.09-20.8.27-41.82-.62-62.07-2.23-1.08-26.55-1.83-55.7-1.88-85.64,0-3.9,0-7.83,0-11.73,0-23.14.62-45.6,1.57-66.36,18.65,1.36,37.88,2.06,57,1.72,17.64-.31,35.21-1.59,52.19-3.48,1.61,23.2,3,48.64,3.66,74.93C321.51,288.43,321.63,294.64,321.69,300.83Z"/><path d="M320.69,372c-.58,16.41-1.36,31.86-2.22,45.93-16,1.61-32.84,2.74-49.76,3-4.81.08-9.62.09-14.42,0-14.59-.25-29.15-1.11-43.25-2.37-.82-14-1.6-29.36-2.27-45.73,20.25,1.61,41.27,2.5,62.07,2.23C287.7,374.82,304.5,373.67,320.69,372Z"/><path class="cls-1" d="M318.47,417.88C316,457.47,313,486.09,312.15,494c-16.78,1.55-34.69,2.37-53.29,2.37-14.55,0-28.67-.51-42.17-1.47-.57-6-3.23-35-5.65-76.32,14.1,1.27,28.66,2.13,43.25,2.37,4.81.09,9.62.08,14.42,0C285.63,420.62,302.43,419.49,318.47,417.88Z"/><path d="M313.72,158.26c1.36,14.62,2.74,31.17,4,49.06-17,1.89-34.56,3.17-52.19,3.48-19.16.34-38.39-.35-57-1.72.85-18.24,1.95-35.17,3.09-50.11,17.66,1.17,35.84,1.81,54,1.65C281.79,160.48,298,159.61,313.72,158.26Z"/><path class="cls-1" d="M306.7,94.52s3.42,25.08,7,63.74c-15.71,1.34-31.93,2.22-48.22,2.36-18.11.17-36.3-.48-54-1.65,3-38.71,6.25-64,6.25-64,13.12.77,26.88,1.19,41.06,1.19C275.5,96.14,291.57,95.57,306.7,94.52Z"/><path class="cls-2" d="M217.79,95s-3.28,25.32-6.25,64c-32.84-2.19-63.84-6.17-89-10.14C127.89,109.17,134,83,134,83,155.56,88.76,184.65,93,217.79,95Z"/><path class="cls-2" d="M211,418.55c2.41,41.27,5.08,70.3,5.65,76.32-26.2-1.85-50-5.41-69.94-10.21a227.79,227.79,0,0,1-19.28-19.49c-.87-6.93-3.55-29-6.26-59.95A832.12,832.12,0,0,0,211,418.55Z"/><path d="M208.77,372.82c.67,16.37,1.45,31.75,2.27,45.73a832.12,832.12,0,0,1-89.84-13.33c-1.16-13.25-2.32-28.13-3.35-44.12C142.81,365.47,174.7,370.14,208.77,372.82Z"/><path d="M211.55,159c-1.14,14.94-2.24,31.87-3.09,50.11a887.18,887.18,0,0,1-91.22-11.72c1.43-17.58,3.31-34,5.27-48.53C147.71,152.81,178.71,156.79,211.55,159Z"/><path class="cls-2" d="M206.89,287.18c0,29.94.8,59.08,1.88,85.64-34.07-2.68-66-7.35-90.91-11.72-2-30.74-3.41-65.6-3.33-100.94q0-10,.31-19.93c.19-6.4.45-12.74.78-19q.65-12.23,1.62-23.86a887.18,887.18,0,0,0,91.22,11.72c-1,20.76-1.59,43.22-1.57,66.36C206.88,279.35,206.89,283.27,206.89,287.18Z"/><path class="cls-1" d="M134,83s-6.12,26.16-11.5,65.83c-36.67-5.77-61.09-11.49-61.09-11.49a351.22,351.22,0,0,1,25-69h0c2.34-4.77,4.78-9.46,7.29-14a49.21,49.21,0,0,1,6.86-5.28c-3.69,3.1-5.67,6.36-5.67,9.73h0C94.9,68,109.62,76.49,134,83Z"/><path class="cls-1" d="M127.46,465.16a267.31,267.31,0,0,1-27-36.71h0a310.3,310.3,0,0,1-17.06-31.87h0s14.56,3.93,37.75,8.64C123.91,436.12,126.59,458.24,127.46,465.16Z"/><path d="M117.86,361.09c1,16,2.19,30.87,3.35,44.12-23.19-4.71-37.75-8.64-37.75-8.64h0a346.86,346.86,0,0,1-17.41-46C66.61,350.72,86.9,355.68,117.86,361.09Z"/><path d="M122.51,148.84c-2,14.57-3.84,30.95-5.27,48.53-38.66-6.94-64.45-13.95-64.45-13.95a389.09,389.09,0,0,1,8.63-46.07S85.84,143.07,122.51,148.84Z"/><path class="cls-1" d="M52.79,183.41s25.79,7,64.45,13.95q-1,11.61-1.62,23.86c-.33,6.26-.59,12.61-.78,19q-.3,9.92-.31,19.93c-.08,35.34,1.37,70.2,3.33,100.94-31-5.41-51.25-10.38-51.82-10.52a399.64,399.64,0,0,1-16.53-115A413.42,413.42,0,0,1,52.79,183.41Z"/><path class="cls-3" d="M383.73,83s6.9,25.28,13.4,63.74c2.32,13.75,4.59,29.19,6.48,45.76,2.29,20.09,4,41.84,4.57,64.26a954,954,0,0,1-3.27,101c-1.42,17.28-3.13,33.33-4.87,47.5-3.69,30.08-7.48,51.71-8.78,58.78-.3,1.64-.47,2.5-.47,2.5"/><path class="cls-3" d="M306.7,94.52s3.42,25.08,7,63.74c1.36,14.62,2.74,31.17,4,49.06,1.61,23.2,3,48.64,3.66,74.93.17,6.19.28,12.4.34,18.59.24,24.73-.2,48.8-1,71.12-.58,16.41-1.36,31.86-2.22,45.93C316,457.47,313,486.09,312.15,494c-.16,1.44-.24,2.19-.24,2.19"/><path class="cls-3" d="M217.79,95s-3.28,25.32-6.25,64c-1.14,14.94-2.24,31.87-3.09,50.11-1,20.76-1.59,43.22-1.57,66.36,0,3.9,0,7.83,0,11.73,0,29.94.8,59.08,1.88,85.64.67,16.37,1.45,31.75,2.27,45.73,2.41,41.27,5.08,70.3,5.65,76.32.07.77.11,1.16.11,1.16"/><path class="cls-4" d="M417.2,49.07c3.68,3.11,5.64,6.36,5.64,9.72h0c0,9.23-14.72,17.69-39.12,24.2-20.07,5.37-46.69,9.42-77,11.52-15.13,1-31.2,1.62-47.84,1.62-14.19,0-27.95-.41-41.06-1.19C184.65,93,155.56,88.76,134,83,109.62,76.49,94.9,68,94.9,58.8h0c0-3.37,2-6.63,5.67-9.73.4-.34.82-.69,1.26-1,7.7-5.83,21.49-11.06,39.7-15.3,29.77-6.94,71.34-11.25,117.34-11.25s87.58,4.32,117.36,11.25c18.21,4.25,32,9.48,39.7,15.3C416.37,48.39,416.79,48.73,417.2,49.07Z"/><path class="cls-3" d="M134,83s-6.12,26.16-11.5,65.83c-2,14.57-3.84,30.95-5.27,48.53q-1,11.61-1.62,23.86c-.33,6.26-.59,12.61-.78,19q-.3,9.92-.31,19.93c-.08,35.34,1.37,70.2,3.33,100.94,1,16,2.19,30.87,3.35,44.12,2.7,30.9,5.39,53,6.26,59.95l.3,2.3"/><path class="cls-4" d="M464,176.12a412.85,412.85,0,0,1,4.27,59.48A401.2,401.2,0,0,1,453.33,345a348.58,348.58,0,0,1-19.42,52.42,309.21,309.21,0,0,1-16.66,31,266.62,266.62,0,0,1-26,35.59A231.1,231.1,0,0,1,371,484.65,414.07,414.07,0,0,1,312.15,494c-16.78,1.55-34.69,2.37-53.29,2.37-14.55,0-28.67-.51-42.17-1.47-26.2-1.85-50-5.41-69.94-10.21a227.79,227.79,0,0,1-19.28-19.49,267.31,267.31,0,0,1-27-36.71h0a310.3,310.3,0,0,1-17.06-31.87,346.86,346.86,0,0,1-17.41-46,399.64,399.64,0,0,1-16.53-115,413.42,413.42,0,0,1,3.27-52.18,389.09,389.09,0,0,1,8.63-46.07,351.22,351.22,0,0,1,25-69h0c2.34-4.77,4.78-9.46,7.29-14a49.21,49.21,0,0,1,6.86-5.28c9.55-6.23,23.59-11.77,41-16.32,30.77-8.05,72-13,117.34-13s86.58,4.93,117.36,13c17.39,4.55,31.44,10.1,41,16.33A48.8,48.8,0,0,1,424,54.34c2.52,4.55,5,9.24,7.29,14h0a348.48,348.48,0,0,1,24.08,65.41A385.49,385.49,0,0,1,464,176.12Z"/><path class="cls-3" d="M455.41,133.77s-23.18,6.42-58.28,13c-23.56,4.4-52.49,8.88-83.4,11.52-15.71,1.34-31.93,2.22-48.22,2.36-18.11.17-36.3-.48-54-1.65-32.84-2.19-63.84-6.17-89-10.14-36.67-5.77-61.09-11.49-61.09-11.49"/><path class="cls-3" d="M464,176.12s-24,8-60.36,16.39a769.59,769.59,0,0,1-85.91,14.81c-17,1.89-34.56,3.17-52.19,3.48-19.16.34-38.39-.35-57-1.72a887.18,887.18,0,0,1-91.22-11.72c-38.66-6.94-64.45-13.95-64.45-13.95"/><path class="cls-3" d="M453.33,345s-19,6.06-48.43,12.74A739,739,0,0,1,320.69,372c-16.18,1.72-33,2.86-49.85,3.09-20.8.27-41.82-.62-62.07-2.23-34.07-2.68-66-7.35-90.91-11.72-31-5.41-51.25-10.38-51.82-10.52h0"/><path class="cls-3" d="M433.9,397.45s-13,3.51-33.87,7.82a815.86,815.86,0,0,1-81.56,12.62c-16,1.61-32.84,2.74-49.76,3-4.81.08-9.62.09-14.42,0-14.59-.25-29.15-1.11-43.25-2.37a832.12,832.12,0,0,1-89.84-13.33c-23.19-4.71-37.75-8.64-37.75-8.64"/><ellipse class="cls-5" cx="433.9" cy="160.65" rx="9.83" ry="9.62"/><ellipse class="cls-5" cx="360.1" cy="178.33" rx="9.83" ry="9.62"/><ellipse class="cls-5" cx="263.07" cy="183.41" rx="9.83" ry="9.62"/><ellipse class="cls-5" cx="162.73" cy="181" rx="9.83" ry="9.62"/><ellipse class="cls-5" cx="263.07" cy="396.57" rx="9.83" ry="9.62"/><ellipse class="cls-5" cx="161.6" cy="388.82" rx="9.83" ry="9.62"/><ellipse class="cls-5" cx="368.8" cy="388.82" rx="9.83" ry="9.62"/><ellipse class="cls-5" cx="433.9" cy="375.09" rx="9.83" ry="9.62"/><path class="cls-4" d="M468,235.59c0,73.74-19.22,141.17-51,192.87-13.36,21.75-28.93,40.72-46.25,56.2-30.14,7.29-69.31,11.68-112.13,11.68s-82-4.4-112.12-11.68c-17.32-15.48-32.89-34.45-46.25-56.2h0c-31.77-51.7-51-119.12-51-192.86,0-62.1,13.62-119.71,36.9-167.23h0c2.34-4.77,4.77-9.45,7.29-14,21.36-20,87.23-34.59,165.16-34.59S402.48,34.33,423.84,54.34c2.52,4.55,5,9.23,7.29,14h0C454.41,115.88,468,173.49,468,235.59Z"/><polygon class="cls-6" points="308.35 252.79 274.06 293.1 263.35 280.13 295.16 242.75 308.35 252.79"/><polygon class="cls-6" points="274.06 293.1 307.79 333.95 294.47 343.77 263.19 305.89 274.06 293.1"/><polygon class="cls-6" points="263.35 280.13 274.06 293.1 263.19 305.89 252.47 292.93 263.35 280.13"/><polygon class="cls-6" points="232.07 242.25 263.35 280.13 252.47 292.93 218.75 252.09 232.07 242.25"/><polygon class="cls-6" points="252.47 292.93 263.19 305.89 231.38 343.29 218.19 333.25 252.47 292.93"/><polyline class="cls-7" points="252.47 292.93 218.75 252.09 232.07 242.25 263.35 280.13"/><polyline class="cls-7" points="274.06 293.1 307.79 333.95 294.47 343.77 263.19 305.89"/><polyline class="cls-7" points="252.47 292.93 218.19 333.25 231.38 343.29 263.19 305.89"/><polyline class="cls-7" points="263.35 280.13 295.16 242.75 308.35 252.79 274.06 293.1"/><polygon class="cls-6" points="194.3 250.14 168.57 290.45 160.53 277.49 184.4 240.1 194.3 250.14"/><polygon class="cls-6" points="168.57 290.45 193.88 331.3 183.88 341.12 160.4 303.24 168.57 290.45"/><polygon class="cls-6" points="160.53 277.49 168.57 290.45 160.4 303.24 152.37 290.28 160.53 277.49"/><polygon class="cls-6" points="137.06 239.6 160.53 277.49 152.37 290.28 127.06 249.44 137.06 239.6"/><polygon class="cls-6" points="152.37 290.28 160.4 303.24 136.54 340.64 126.64 330.6 152.37 290.28"/><polyline class="cls-7" points="152.37 290.28 127.06 249.44 137.06 239.6 160.53 277.49"/><polyline class="cls-7" points="168.57 290.45 193.88 331.3 183.88 341.12 160.4 303.24"/><polyline class="cls-7" points="152.37 290.28 126.64 330.6 136.54 340.64 160.4 303.24"/><polyline class="cls-7" points="160.53 277.49 184.4 240.1 194.3 250.14 168.57 290.45"/><polygon class="cls-6" points="398.33 250.65 372.6 290.96 364.56 278 388.43 240.62 398.33 250.65"/><polygon class="cls-6" points="372.6 290.96 397.91 331.81 387.91 341.64 364.44 303.76 372.6 290.96"/><polygon class="cls-6" points="364.56 278 372.6 290.96 364.44 303.76 356.4 290.8 364.56 278"/><polygon class="cls-6" points="341.09 240.12 364.56 278 356.4 290.8 331.09 249.96 341.09 240.12"/><polygon class="cls-6" points="356.4 290.8 364.44 303.76 340.57 341.15 330.67 331.12 356.4 290.8"/><polyline class="cls-7" points="356.4 290.8 331.09 249.96 341.09 240.12 364.56 278"/><polyline class="cls-7" points="372.6 290.96 397.91 331.81 387.91 341.64 364.44 303.76"/><polyline class="cls-7" points="356.4 290.8 330.67 331.12 340.57 341.15 364.44 303.76"/><polyline class="cls-7" points="364.56 278 388.43 240.62 398.33 250.65 372.6 290.96"/><path d="M163.24,50.13c12.49,0,22.62,2.9,22.62,6.47s-10.13,6.48-22.62,6.48-22.62-2.9-22.62-6.48S150.75,50.13,163.24,50.13Z"/><path class="cls-8" d="M185.86,56.6c0,3.58-10.13,6.48-22.62,6.48s-22.62-2.9-22.62-6.48,10.13-6.47,22.62-6.47S185.86,53,185.86,56.6Z"/><ellipse class="cls-5" cx="83.45" cy="166.91" rx="9.83" ry="9.62"/><ellipse class="cls-5" cx="87.47" cy="376.94" rx="9.83" ry="9.62"/><path class="cls-4" d="M467.19,235.59c0,73.74-19.22,141.17-51,192.87-13.36,21.75-28.93,40.72-46.25,56.2-30.14,7.29-69.31,11.68-112.13,11.68s-82-4.4-112.12-11.68c-17.32-15.48-32.89-34.45-46.25-56.2h0c-31.77-51.7-51-119.12-51-192.86,0-62.1,13.62-119.71,36.9-167.23h0c2.34-4.77,4.77-9.45,7.29-14,21.36-20,87.23-34.59,165.16-34.59S401.64,34.33,423,54.34c2.52,4.55,5,9.23,7.29,14h0C453.57,115.88,467.19,173.49,467.19,235.59Z"/></svg>