<svg id="Layer_1" data-name="Layer 1" xmlns="http://www.w3.org/2000/svg" viewBox="0 0 512 512"><defs><style>.cls-1,.cls-3,.cls-5,.cls-7,.cls-8{stroke:#000;}.cls-1,.cls-3,.cls-4{stroke-miterlimit:10;}.cls-1,.cls-3,.cls-4,.cls-5,.cls-6,.cls-7{stroke-width:10px;}.cls-2,.cls-4{fill:gray;}.cls-3,.cls-5,.cls-6{fill:none;}.cls-4,.cls-6{stroke:#e6e6e6;}.cls-5,.cls-6,.cls-7,.cls-8{stroke-linecap:round;stroke-linejoin:round;}.cls-7{fill:#ccc;}.cls-8{stroke-width:14px;}</style></defs><title>hook_hand</title><polygon class="cls-1" points="184.97 490.28 21.17 362.06 121.79 242.41 285.59 370.63 184.97 490.28"/><path class="cls-2" d="M487.57,124.16c.14,10.48-.8,21.15-3.55,30.35-4.54,15.21-11.51,30.49-20.8,43.48a145.82,145.82,0,0,1-30.92,31.79q-3.65,2.71-7.42,5.11t-7.45,4.22a65.8,65.8,0,0,1-15.11,5.3,64.83,64.83,0,0,1-20.12,1,60.76,60.76,0,0,1-6.27-.89c-6.45-1.27-12.92-4.44-19-8.24-1.77-1.1-3.54-2.24-5.29-3.38a88.23,88.23,0,0,0-10.35-5.82c-1.34-.64-2.57-1.18-3.7-1.65-17.61-7.2-23.84-1.12-23.84-1.12L295,243.67a101.84,101.84,0,0,0-20.3-21.18A105.27,105.27,0,0,0,256.37,211L276,191.62s6.25-6.39,24.93-7.55c1.21-.08,2.51-.12,3.92-.12,1.23,0,2.49,0,3.78.11a39.46,39.46,0,0,1,7.17,1.1q2.77.7,5.53,1.68a75.4,75.4,0,0,1,10.58,4.74,68.71,68.71,0,0,0,8.51,4c2,.76,4.07,1.45,6.14,2a78.69,78.69,0,0,0,19.62,3.34,65.07,65.07,0,0,0,14.56-1.17q3.65-.76,7.09-1.84t7-2.51a93.86,93.86,0,0,0,15.34-7.88,85,85,0,0,0,13.22-10.36,72.62,72.62,0,0,0,18.06-28.93c2.22-6.47,2.62-14.33,2-22.3a46.62,46.62,0,0,0-5.2-17.12C433.56,99.44,425,90,415.75,82c-14.43-12.55-26.08-15.38-29.87-16l0-.1a35.32,35.32,0,0,0-5.11-.74c-10-.81-32.61-.77-48.68,12.83a73.35,73.35,0,0,0-6.88,6.64c-3.64,4-7.34,8.39-11.21,12.92A133.12,133.12,0,0,1,297.61,114a68.08,68.08,0,0,1-5.56,4.09c-3,2-5.6,3.18-7.47,3.49a16.32,16.32,0,0,1-6.6-.14,12.32,12.32,0,0,1-3.2-1.27c-.22-.13-.43-.25-.64-.4-3.39-2.24-5.56-6-6.87-10.44a30.36,30.36,0,0,1-1-5.41,34.52,34.52,0,0,1-.05-5.88,18.57,18.57,0,0,1,2.66-7.36c.5-.86,1.06-1.78,1.7-2.74,3.91-5.9,14.25-17.37,23.07-27.64,1.51-1.76,2.86-3.48,4.07-5.11.55-.75,1.13-1.48,1.68-2.18,1.66-2.06,3.17-3.78,4.46-5.16a22.53,22.53,0,0,1,2.09-2c1.58-1.31,2.76-2.47,3.17-2.88,0,0,0,0,0,0a92.79,92.79,0,0,1,14.68-8.91c1.06-.52,2.16-1,3.29-1.53l2-.9a91,91,0,0,1,17.77-5.87,98,98,0,0,1,21.51-2.38c29.37.58,55.59,16,55.59,16s46.8,28.21,59.32,62.72A67.19,67.19,0,0,1,487.57,124.16Z"/><path d="M295,243.67c25.82,36.23,24.91,86.25-5.56,122.55-37,44.08-103.61,51.21-148.76,15.92s-51.76-99.65-14.75-143.73c32.26-38.42,87-48.77,130.44-27.41a105.27,105.27,0,0,1,18.34,11.5A101.84,101.84,0,0,1,295,243.67Z"/><path class="cls-3" d="M295,243.67c25.82,36.23,24.91,86.25-5.56,122.55-37,44.08-103.61,51.21-148.76,15.92s-51.76-99.65-14.75-143.73c32.26-38.42,87-48.77,130.44-27.41a105.27,105.27,0,0,1,18.34,11.5A101.84,101.84,0,0,1,295,243.67Z"/><path class="cls-3" d="M309.1,43a92.79,92.79,0,0,1,14.68-8.91c1.06-.52,2.16-1,3.29-1.53l2-.9a91,91,0,0,1,17.77-5.87,98,98,0,0,1,21.51-2.38c29.37.58,55.59,16,55.59,16"/><path class="cls-3" d="M307.94,43.94s.4-.33,1.14-.88"/><path class="cls-3" d="M424,39.46s46.8,28.21,59.32,62.72a67.19,67.19,0,0,1,4.28,22c.14,10.48-.8,21.15-3.55,30.35-4.54,15.21-11.51,30.49-20.8,43.48a145.82,145.82,0,0,1-30.92,31.79q-3.65,2.71-7.42,5.11t-7.45,4.22a65.8,65.8,0,0,1-15.11,5.3,64.83,64.83,0,0,1-20.12,1,60.76,60.76,0,0,1-6.27-.89c-6.45-1.27-12.92-4.44-19-8.24-1.77-1.1-3.54-2.24-5.29-3.38a88.23,88.23,0,0,0-10.35-5.82c-1.34-.64-2.57-1.18-3.7-1.65-17.61-7.2-23.84-1.12-23.84-1.12"/><path class="cls-3" d="M384.57,65.84s.46,0,1.31.16c3.8.62,15.45,3.45,29.87,16,9.21,8,17.81,17.43,22.54,26.83A46.62,46.62,0,0,1,443.5,126c.6,8,.21,15.83-2,22.3a72.62,72.62,0,0,1-18.06,28.93,85,85,0,0,1-13.22,10.36,93.86,93.86,0,0,1-15.34,7.88q-3.44,1.39-7,2.51t-7.09,1.84a65.07,65.07,0,0,1-14.56,1.17,78.69,78.69,0,0,1-19.62-3.34c-2.08-.59-4.12-1.28-6.14-2a68.71,68.71,0,0,1-8.51-4,75.4,75.4,0,0,0-10.58-4.74q-2.75-1-5.53-1.68a39.46,39.46,0,0,0-7.17-1.1c-1.28-.08-2.55-.11-3.78-.11-1.41,0-2.71,0-3.92.12-18.68,1.16-24.93,7.55-24.93,7.55"/><path class="cls-3" d="M385.9,65.91a35.32,35.32,0,0,0-5.11-.74c-10-.81-32.61-.77-48.68,12.83a73.35,73.35,0,0,0-6.88,6.64c-3.64,4-7.34,8.39-11.21,12.92A133.12,133.12,0,0,1,297.61,114a68.08,68.08,0,0,1-5.56,4.09c-3,2-5.6,3.18-7.47,3.49a16.32,16.32,0,0,1-6.6-.14,12.32,12.32,0,0,1-3.2-1.27c-.22-.13-.43-.25-.64-.4-3.39-2.24-5.56-6-6.87-10.44a30.36,30.36,0,0,1-1-5.41,34.52,34.52,0,0,1-.05-5.88,18.57,18.57,0,0,1,2.66-7.36c.5-.86,1.06-1.78,1.7-2.74,3.91-5.9,14.25-17.37,23.07-27.64,1.51-1.76,2.86-3.48,4.07-5.11.55-.75,1.13-1.48,1.68-2.18,1.66-2.06,3.17-3.78,4.46-5.16a22.53,22.53,0,0,1,2.09-2c1.58-1.31,2.76-2.47,3.17-2.88,0,0,0,0,0,0l.14-.14"/><line class="cls-3" x1="276.02" y1="191.62" x2="256.37" y2="211"/><polyline class="cls-3" points="313.73 224.32 295.01 243.67 286.49 252.49"/><path class="cls-4" d="M403.37,30.26s-23.48-4.08-47.07,1.67a117.09,117.09,0,0,0-23,7.77,103.59,103.59,0,0,0-9.82,5.41q-1.07.67-2.11,1.36-1.46,1-2.86,2l-1,.75a174,174,0,0,0-28.27,27.06c-13.64,16-22.85,29-22.85,29"/><path class="cls-5" d="M307.95,43.94a87.8,87.8,0,0,1,15.83-9.82q1.6-.77,3.28-1.53l2-.91a90.73,90.73,0,0,1,17.77-5.87,97.42,97.42,0,0,1,21.5-2.38c29.38.58,55.59,16,55.59,16"/><path class="cls-5" d="M385.9,65.91a35.47,35.47,0,0,0-5.11-.74c-10-.82-32.6-.77-48.68,12.83a72,72,0,0,0-6.88,6.65c-3.65,4-7.35,8.38-11.22,12.91A132.62,132.62,0,0,1,297.6,114a66.7,66.7,0,0,1-5.55,4.09,21.89,21.89,0,0,1-7.47,3.48,16.42,16.42,0,0,1-6.61-.14,12.4,12.4,0,0,1-3.2-1.28l-.63-.39c-3.39-2.24-5.56-6-6.87-10.44a30,30,0,0,1-1-5.41,33.55,33.55,0,0,1-.05-5.88,18.41,18.41,0,0,1,2.66-7.36c.49-.87,1.06-1.78,1.7-2.75,3.91-5.9,14.24-17.37,23.07-27.64,1.51-1.76,2.86-3.47,4.07-5.11.56-.76,1.13-1.48,1.69-2.18,1.66-2.06,3.17-3.78,4.46-5.16a22.52,22.52,0,0,1,2.08-2,44.57,44.57,0,0,0,3.33-3"/><path class="cls-6" d="M438.3,108.84s8.65,12.11,10.72,27.43c1.63,12.1.18,26.22-10,38a139.91,139.91,0,0,1-16.78,16.37,84,84,0,0,1-14,9.57c-31.56,16.46-61.62-2.68-61.62-2.68"/><path class="cls-5" d="M384.57,65.85s13.51.78,31.19,16.16c9.21,8,17.81,17.43,22.54,26.84a46.46,46.46,0,0,1,5.2,17.11c.61,8,.21,15.83-2,22.3a72.76,72.76,0,0,1-18.05,28.93,85.56,85.56,0,0,1-13.22,10.36,93.78,93.78,0,0,1-15.35,7.88q-3.43,1.39-7,2.51a73.07,73.07,0,0,1-7.1,1.83,65.09,65.09,0,0,1-14.56,1.17,78.66,78.66,0,0,1-19.62-3.35c-2.07-.59-4.12-1.28-6.15-2a68.47,68.47,0,0,1-8.51-4,75,75,0,0,0-10.58-4.74c-1.84-.66-3.68-1.21-5.52-1.67a39.54,39.54,0,0,0-7.17-1.1c-1.28-.08-2.54-.12-3.77-.11-1.41,0-2.72,0-3.93.12-18.68,1.16-24.93,7.55-24.93,7.55"/><path class="cls-7" d="M294.64,335.42c-11.11,27.75-29.92,46.51-42,41.91s-12.91-30.82-1.8-58.57,29.92-46.51,42-41.91S305.75,307.68,294.64,335.42Z"/><path class="cls-8" d="M273.79,281.46s-1,12.15-4.25,22.27c-.6,1.85-1.23,3.74-1.88,5.68-1,3.13-2.25,6.44-3.78,10-1.09,2.56-2.32,5.23-3.7,7.91-10.13,19.62-24,40.94-24,40.94"/></svg>