<svg id="Layer_1" data-name="Layer 1" xmlns="http://www.w3.org/2000/svg" viewBox="0 0 512 512"><defs><style>.cls-1{fill:red;}.cls-2{fill:#fff;}.cls-3,.cls-5{fill:none;}.cls-3,.cls-4,.cls-5{stroke:#000;stroke-miterlimit:10;}.cls-3,.cls-4{stroke-width:10px;}.cls-5{stroke-width:6px;}</style></defs><title>life_ring</title><path class="cls-1" d="M424.37,198.42a176.92,176.92,0,0,1-3.74,131.74l-107-42.43a64.06,64.06,0,0,0,.77-54.29Z"/><path class="cls-2" d="M424.37,198.42l-110,35a65,65,0,0,0-29.5-30.94l55.79-99.61A179.07,179.07,0,0,1,424.37,198.42Z"/><path class="cls-2" d="M313.65,287.73l107,42.43a179.49,179.49,0,0,1-89.44,90.94L283,318A65.14,65.14,0,0,0,313.65,287.73Z"/><path class="cls-1" d="M340.72,102.88h0L284.92,202.5a65.92,65.92,0,0,0-56.64-1.62l-48-102.67L180.2,98a181.85,181.85,0,0,1,160.52,4.9Z"/><path class="cls-1" d="M283,318l48.2,103.11a181.91,181.91,0,0,1-153.62-1l52.64-97.59.79-2.68A66,66,0,0,0,283,318Z"/><path class="cls-2" d="M231,319.79l-.79,2.68-52.64,97.59a179.51,179.51,0,0,1-86.94-89.28l2.49-1.06L195,285.17A65.08,65.08,0,0,0,231,319.79Z"/><path class="cls-2" d="M180.31,98.21l48,102.67a65.08,65.08,0,0,0-33.55,34L84.46,204.61h0A179.07,179.07,0,0,1,180.2,98Z"/><path class="cls-1" d="M195,285.17,93.12,329.72l-2.49,1.06a176.91,176.91,0,0,1-6.17-126.17h0l110.27,30.32a64.11,64.11,0,0,0,.25,50.25Z"/><path class="cls-3" d="M340.72,102.89a179.07,179.07,0,0,1,83.65,95.53,176.92,176.92,0,0,1-3.74,131.74,180.53,180.53,0,0,1-330,.62,176.91,176.91,0,0,1-6.17-126.17A180.8,180.8,0,0,1,340.72,102.88"/><path class="cls-3" d="M314.42,233.44a64.06,64.06,0,0,1-.77,54.29A65.45,65.45,0,0,1,195,285.17a64.11,64.11,0,0,1-.25-50.25,65.44,65.44,0,0,1,119.69-1.48Z"/><polyline class="cls-3" points="340.71 102.88 340.71 102.89 284.92 202.5"/><polyline class="cls-3" points="180.31 98.21 228.28 200.88 228.5 201.34"/><polyline class="cls-3" points="84.46 204.61 194.73 234.92 196.53 235.42"/><line class="cls-3" x1="194.98" y1="285.17" x2="93.12" y2="329.72"/><line class="cls-3" x1="282.99" y1="317.98" x2="331.19" y2="421.1"/><line class="cls-3" x1="230.21" y1="322.47" x2="177.57" y2="420.06"/><polyline class="cls-3" points="313.3 233.8 314.42 233.44 424.37 198.42 424.38 198.42"/><line class="cls-3" x1="313.65" y1="287.73" x2="420.63" y2="330.16"/><path class="cls-4" d="M123.46,125.32c3.25,3.21,2.71,9-1.2,12.83s-9.71,4.4-13,1.19-2.71-9,1.2-12.83S120.21,122.1,123.46,125.32Z"/><path class="cls-4" d="M403.67,131c3.85,3.82,4.33,9.53,1.07,12.76s-9,2.76-12.89-1.05-4.33-9.53-1.07-12.76S399.81,127.17,403.67,131Z"/><path class="cls-4" d="M123.49,381c3.85,3.82,4.33,9.53,1.07,12.76s-9,2.76-12.89-1.05-4.33-9.53-1.07-12.76S119.64,377.14,123.49,381Z"/><path class="cls-4" d="M399.76,381.68c3.25,3.21,2.71,9-1.2,12.83s-9.71,4.4-13,1.19-2.71-9,1.2-12.83S396.51,378.47,399.76,381.68Z"/><path class="cls-5" d="M116.37,132.33S187.49,14.24,258.57,15.38c69.6,1.12,139.18,121.46,139.18,121.46"/><path class="cls-5" d="M116.37,132.33S15.1,200.78,15.4,262.68c.31,65.25,102.18,124.13,102.18,124.13"/><path class="cls-5" d="M397.75,136.84S496.69,194.22,495.47,255c-1.31,65-102.79,133.74-102.79,133.74"/><path class="cls-5" d="M117.58,386.81S186,498.87,253.89,499.33c69.65.48,138.78-110.64,138.78-110.64"/></svg>