<svg id="Layer_1" data-name="Layer 1" xmlns="http://www.w3.org/2000/svg" viewBox="0 0 512 512"><defs><style>.cls-1,.cls-10,.cls-4,.cls-6,.cls-9{stroke:#000;}.cls-1,.cls-4,.cls-5,.cls-6{stroke-miterlimit:10;}.cls-1,.cls-10,.cls-6,.cls-9{stroke-width:6px;}.cls-2{fill:#999;}.cls-3{fill:#666;}.cls-10,.cls-4,.cls-5,.cls-6{fill:none;}.cls-4,.cls-5{stroke-width:10px;}.cls-5{stroke:#e6e6e6;}.cls-7{fill:#603813;}.cls-8,.cls-9{fill:#f7931e;}.cls-10,.cls-9{stroke-linecap:round;stroke-linejoin:round;}</style></defs><title>long_barrel_cannon</title><ellipse class="cls-1" cx="64.8" cy="297.38" rx="9.71" ry="10.15" transform="translate(-12.48 3) rotate(-2.42)"/><path class="cls-2" d="M496.71,141.08c7,26.88,3.63,52-7.58,56.19-4,1.49-8.51.07-12.94-3.61,13-7.9,19.74-26.42,15.22-44.16l-3-11.7c-4.29-16.78-17.27-27.49-31-26.85a25.1,25.1,0,0,0-2.57.25c1.89-5.78,4.86-9.81,8.79-11.26C474.9,95.78,489.69,114.21,496.71,141.08Z"/><path class="cls-3" d="M491.41,149.5c4.52,17.74-2.19,36.26-15.22,44.16t0,0c13-7.91,19.7-26.41,15.18-44.12l-3-11.71c-4.28-16.75-17.22-27.44-30.89-26.85,13.69-.64,26.67,10.07,31,26.85Z"/><path class="cls-2" d="M491.34,149.51c4.52,17.71-2.18,36.21-15.18,44.12-7.89-6.56-15.57-20.3-20.07-37.51-3.15-12.05-4.2-23.76-3.4-33.38a50.26,50.26,0,0,1,2.2-11.53h0a25.1,25.1,0,0,1,2.57-.25c13.67-.59,26.61,10.1,30.89,26.85Zm-5.86,31.62c4.91-1.81,5.22-17.45.67-34.93S473.94,116,469,117.83s-5.22,17.44-.67,34.92S480.56,182.94,485.48,181.13Z"/><path d="M486.15,146.2c4.55,17.48,4.24,33.12-.67,34.93s-12.59-10.9-17.13-28.38-4.24-33.11.67-34.92S481.61,128.72,486.15,146.2Z"/><path class="cls-3" d="M476.16,193.63s0,0,0,0a26.64,26.64,0,0,1-4.9,2.36L111.36,326.1a25.35,25.35,0,0,1-5.42,1.32,26.13,26.13,0,0,0,5.35-1.32l166-60,104-37.57,25.63-9.27L471.22,196A27.12,27.12,0,0,0,476.16,193.63Z"/><path class="cls-2" d="M476.16,193.63a27.12,27.12,0,0,1-4.94,2.39l-64.37,23.26-.78-2.15s-13.35-13-17.71-32.86c-2.86-13-2.37-28.6-1.56-38.74l63.51-23,2.38.18c-.8,9.62.25,21.33,3.4,33.38C460.59,173.33,468.27,187.07,476.16,193.63Z"/><path class="cls-2" d="M454.89,111.21a50.26,50.26,0,0,0-2.2,11.53l-2.38-.18-63.51,23c.52-6.43,1.17-10.67,1.17-10.67l62-22.4A25.39,25.39,0,0,1,454.89,111.21Z"/><path class="cls-2" d="M406.07,217.13l.78,2.15-25.63,9.27-.35-1s-13.35-13-17.71-32.85c-3-13.61-2.32-30.06-1.44-40.12l25.08-9.08c-.81,10.14-1.3,25.73,1.56,38.74C392.72,204.1,406.07,217.13,406.07,217.13Z"/><path class="cls-3" d="M362.34,144.12,388,134.86s-.65,4.24-1.17,10.67l-25.08,9.08c.49-5.66,1-9.3,1-9.3Z"/><path class="cls-2" d="M281.79,183.52l79.93-28.91c-.88,10.06-1.56,26.51,1.44,40.12,4.36,19.82,17.71,32.85,17.71,32.85l.35,1-104,37.57-.72-2s-13.34-13-17.7-32.85c-2.88-13.07-2.37-28.75-1.55-38.88Z"/><path class="cls-3" d="M362.34,144.12l.43,1.19s-.56,3.64-1,9.3l-79.93,28.91c.3-4.56.71-8.3,1-10.64Z"/><path class="cls-3" d="M258.39,181.69l24.39-8.81c-.28,2.34-.69,6.08-1,10.64l-24.5,8.86c.51-6.36,1.15-10.54,1.15-10.54Z"/><path class="cls-2" d="M276.54,264.11l.72,2-166,60a26.13,26.13,0,0,1-5.35,1.32c-.72.09-1.44.16-2.16.19-13.67.59-26.61-10.1-30.88-26.85l-3-11.71a44.38,44.38,0,0,1,2.72-29.87l184.66-66.8c-.82,10.13-1.33,25.81,1.55,38.88C263.2,251.08,276.54,264.11,276.54,264.11Z"/><path class="cls-2" d="M258.39,181.69l.05.15s-.64,4.18-1.15,10.54L72.63,259.18c3.71-7.77,9.75-13.87,17.39-16.64Z"/><path class="cls-4" d="M105.94,327.42a25.35,25.35,0,0,0,5.42-1.32L471.29,196a26.64,26.64,0,0,0,4.9-2.36"/><path class="cls-4" d="M454.89,111.21a25.39,25.39,0,0,0-4.94,1.25l-62,22.4-25.63,9.26-79.56,28.76-24.39,8.81L90,242.54c-7.64,2.77-13.68,8.87-17.39,16.64a44.38,44.38,0,0,0-2.72,29.87l3,11.71c4.27,16.75,17.21,27.44,30.88,26.85"/><polyline class="cls-5" points="450.31 122.56 386.8 145.53 361.72 154.61 281.79 183.52 257.29 192.38 72.63 259.18 72.54 259.22 72.53 259.22"/><path class="cls-4" d="M457.46,111a25.1,25.1,0,0,0-2.57.25,25.37,25.37,0,0,0-5,1.26l-167.1,60.39L90,242.54c-7.66,2.77-13.7,8.89-17.41,16.68a44.39,44.39,0,0,0-2.7,29.83l3,11.71c4.29,16.78,17.27,27.49,31,26.85.72,0,1.44-.1,2.16-.19a26.13,26.13,0,0,0,5.35-1.32l166-60,104-37.57,25.63-9.27L471.22,196a27.12,27.12,0,0,0,4.94-2.39"/><path class="cls-4" d="M454.89,111.2c1.89-5.78,4.86-9.81,8.79-11.26,11.22-4.16,26,14.27,33,41.14s3.63,52-7.58,56.19c-4,1.49-8.51.07-12.94-3.61t0,0c-7.89-6.56-15.57-20.3-20.07-37.51-3.15-12.05-4.2-23.76-3.4-33.38a50.26,50.26,0,0,1,2.2-11.53Z"/><path class="cls-6" d="M486.15,146.2c4.55,17.48,4.24,33.12-.67,34.93s-12.59-10.9-17.13-28.38-4.24-33.11.67-34.92S481.61,128.72,486.15,146.2Z"/><path class="cls-6" d="M362.77,145.31s-.56,3.64-1,9.3c-.88,10.06-1.56,26.51,1.44,40.12,4.36,19.82,17.71,32.85,17.71,32.85"/><path class="cls-6" d="M388,134.86s-.65,4.24-1.17,10.67c-.81,10.14-1.3,25.73,1.56,38.74,4.36,19.83,17.71,32.86,17.71,32.86"/><path class="cls-6" d="M283.14,170.2s-.15,1-.36,2.65c0,0,0,0,0,0-.28,2.34-.69,6.08-1,10.64-.68,10.08-.88,24.17,1.75,36.1,4.36,19.82,17.7,32.85,17.7,32.85"/><path class="cls-6" d="M258.44,181.84s-.64,4.18-1.15,10.54c-.82,10.13-1.33,25.81,1.55,38.88,4.36,19.82,17.7,32.85,17.7,32.85"/><path class="cls-6" d="M96.06,239.6s-4.28,28.15.4,49.41c4.36,19.82,17.7,32.85,17.7,32.85"/><path class="cls-6" d="M152.25,218s-4.28,28.15.4,49.41c4.36,19.82,17.7,32.85,17.7,32.85"/><path class="cls-6" d="M178.16,206.5s-4.28,28.15.4,49.41c4.36,19.82,17.7,32.85,17.7,32.85"/><polygon class="cls-7" points="112.84 362.31 112.8 359.77 131.34 344.57 331.81 348.15 332 352.44 334.29 400.02 58.71 412.44 57.86 364.79 109.51 362.46 112.84 362.31"/><polygon class="cls-8" points="331.83 348.15 332 352.44 331.81 348.15 331.83 348.15"/><polygon class="cls-8" points="331.83 348.15 331.81 348.15 330.2 311.12 330.37 311.11 331.83 348.15"/><polygon class="cls-7" points="330.2 311.12 331.81 348.15 131.34 344.57 162.96 318.66 167.92 318.43 330.2 311.12"/><path class="cls-7" d="M328.87,277.46l1.33,33.66-162.28,7.31-5,.23L161.63,285l40.55-1.82v0l5.49-.25a77.43,77.43,0,0,0,1.66,13.7c.79,3.48,4.48,3.93,7.18,2.52a7,7,0,0,0,2.81-.68c3-1.4,3.13-4,2.58-6.54,1.46,2.16,4.49,2.62,6.78,1.68.15.17.3.35.46.52,2.37,2.39,6.6,1.09,8.19-1.35a10.16,10.16,0,0,0,.8-1.46,9.22,9.22,0,0,0,2,.4c2.55,2.74,6.69,2.5,9.82,0,4,.71,8,2.1,12,2.44,3.08.26,6.21-1.28,6.44-4.29l.34.63c1,1.73,4,2.68,6,1.93.43-.17.84-.36,1.22-.55a8.6,8.6,0,0,0,6.76.48,8.18,8.18,0,0,0,2.1,2.4c1.64,1.23,4.53,1.82,6.39.46a13,13,0,0,0,3.95-4.61c2.6,1.11,6.46.3,7.68-2.5.08.47.14.95.24,1.42.93,4.6,9.4,4.07,10.12-.46a.38.38,0,0,1,0-.11c.26.42.51.82.8,1.22,2.32,3.2,8.8,2.66,9.54-1.57a40.78,40.78,0,0,0,.11-10.91l4.89-.22v-.06Z"/><path class="cls-7" d="M328.56,277.47v.06l-4.89.22v-.06Z"/><path class="cls-7" d="M202.18,283.17l-1.15-29,126.39-5.7,1.15,29-4.89.23c-.22-2.29-.48-4.6-.63-6.91-.29-4.91-7.06-5.59-9.57-2.52-.29-.33-.59-.65-.91-1a4.67,4.67,0,0,0-5-1,7.8,7.8,0,0,0-8.62.22,8,8,0,0,0-9,.18,14.8,14.8,0,0,0-3.65,3.63,11.85,11.85,0,0,0-9.76-3.29,10.43,10.43,0,0,0-5.15,1.87,9.39,9.39,0,0,0-12,4.66,27.6,27.6,0,0,0-4.29-8.53c-3.23-4-8.74-6.3-13.84-3.33-3.4,2-5.6,5.4-6.95,9a9.9,9.9,0,0,0-3,1.63,5.8,5.8,0,0,0-5,.39,12.46,12.46,0,0,0-2.16,1.9,2.15,2.15,0,0,0-.22-.19,5.6,5.6,0,0,0-6.06-.52c-.3-.3-.6-.61-.91-.89a5.32,5.32,0,0,0-6.9,0,4.48,4.48,0,0,0-2.53,4.07c.06,2,.14,3.9.23,5.83l-5.49.25Z"/><path class="cls-7" d="M207.66,283c-.1-1.93-.17-3.87-.23-5.83a4.48,4.48,0,0,1,2.53-4.07,5.32,5.32,0,0,1,6.9,0c.31.28.61.58.91.89a5.6,5.6,0,0,1,6.06.52,2.15,2.15,0,0,1,.22.19,12.46,12.46,0,0,1,2.16-1.9,5.8,5.8,0,0,1,5-.39,9.9,9.9,0,0,1,3-1.63c1.35-3.62,3.54-7,6.95-9,5.1-3,10.61-.68,13.84,3.33a27.6,27.6,0,0,1,4.29,8.53,9.39,9.39,0,0,1,12-4.66,10.43,10.43,0,0,1,5.15-1.87,11.85,11.85,0,0,1,9.76,3.29,14.8,14.8,0,0,1,3.65-3.63,8,8,0,0,1,9-.18,7.8,7.8,0,0,1,8.62-.22,4.67,4.67,0,0,1,5,1c.32.32.62.64.91,1,2.51-3.08,9.28-2.39,9.57,2.52.14,2.32.41,4.62.63,6.91v.06a40.78,40.78,0,0,1-.11,10.91c-.74,4.23-7.22,4.77-9.54,1.57-.29-.39-.54-.8-.8-1.22a.38.38,0,0,0,0,.11c-.72,4.53-9.2,5.05-10.12.46-.1-.47-.16-.95-.24-1.42-1.22,2.8-5.09,3.61-7.68,2.5a13,13,0,0,1-3.95,4.61c-1.86,1.36-4.75.77-6.39-.46a8.18,8.18,0,0,1-2.1-2.4,8.6,8.6,0,0,1-6.76-.48c-.38.19-.78.38-1.22.55-2,.75-5-.2-6-1.93l-.34-.63c-.24,3-3.36,4.54-6.44,4.29-4-.34-8-1.73-12-2.44-3.13,2.49-7.27,2.73-9.82,0a9.22,9.22,0,0,1-2-.4,10.16,10.16,0,0,1-.8,1.46c-1.59,2.44-5.82,3.73-8.19,1.35-.17-.17-.31-.35-.46-.52-2.29.94-5.32.49-6.78-1.68.55,2.52.41,5.14-2.58,6.54a7,7,0,0,1-2.81.68c-2.7,1.4-6.39,1-7.18-2.52A77.43,77.43,0,0,1,207.66,283Z"/><polygon class="cls-7" points="131.34 344.57 112.8 359.77 112.06 320.95 162.96 318.66 131.34 344.57"/><polyline class="cls-4" points="112.84 362.31 112.8 359.77 112.06 320.95 162.96 318.66"/><polyline class="cls-4" points="330.2 311.12 330.37 311.11 331.83 348.15 332 352.44"/><polyline class="cls-4" points="332 352.44 334.29 400.02 58.71 412.44 57.86 364.79 109.51 362.46 112.84 362.31 117.78 362.09"/><line class="cls-4" x1="120.04" y1="344.37" x2="131.34" y2="344.57"/><polyline class="cls-4" points="162.96 318.66 161.63 285 202.18 283.17"/><line class="cls-4" x1="167.92" y1="318.43" x2="162.96" y2="318.66"/><polyline class="cls-4" points="207.67 282.97 207.66 282.97 202.18 283.22 202.18 283.17 201.03 254.14 327.41 248.44 328.56 277.47 328.56 277.53 323.68 277.75"/><polyline class="cls-4" points="328.56 277.47 328.87 277.46 330.2 311.12"/><ellipse class="cls-9" cx="322.94" cy="390.21" rx="20.94" ry="20.8"/><path class="cls-8" d="M322.94,316.87a73.34,73.34,0,1,1-73.64,73.34A73.5,73.5,0,0,1,322.94,316.87Zm53.46,73.34a52.61,52.61,0,0,0-11.61-33l.11-.11-1.15-1.14a53.47,53.47,0,0,0-35.44-18.54q-2.65-.26-5.37-.26a53.43,53.43,0,0,0-33.27,11.53l-.16-.16-1.81,1.8a53.82,53.82,0,0,0-5,4.92l-.16.15h0a52.84,52.84,0,0,0,0,69.69h0l.21.21a54.17,54.17,0,0,0,4.89,4.85l1.83,1.81.16-.16a53.43,53.43,0,0,0,33.27,11.53q2.55,0,5-.23h.62V443a53.45,53.45,0,0,0,35.12-18.47l1.18-1.17-.11-.11A52.68,52.68,0,0,0,376.4,390.21Z"/><rect class="cls-8" x="343.61" y="385.35" width="32.53" height="9.72"/><path class="cls-8" d="M364.79,357.17l-22.88,22.72L335,373l23-22.84,5.77,5.73C364.11,356.33,364.45,356.74,364.79,357.17Z"/><path class="cls-8" d="M341.91,400.54l22.88,22.73c-.35.43-.7.86-1.06,1.28l-5.74,5.7L335,407.4Z"/><path class="cls-8" d="M328.6,410.77V443l-.62.06h-9.16V410.77Z"/><rect class="cls-8" x="318.52" y="337.38" width="9.79" height="32.31"/><path class="cls-8" d="M312.5,409.1l-22.84,22.68c-.68-.54-1.34-1.09-2-1.65l-4.89-4.85-.19-.22,23-22.83Z"/><path class="cls-8" d="M312.5,371.33l-6.92,6.86-23-22.83.15-.16,5-4.92c.64-.56,1.3-1.11,2-1.64Z"/><rect class="cls-8" x="270.11" y="385.35" width="32.52" height="9.72"/><ellipse class="cls-10" cx="322.94" cy="390.21" rx="73.65" ry="73.34"/><path class="cls-10" d="M364.79,357.17a52.84,52.84,0,0,1,0,66.1c-.35.43-.7.86-1.06,1.28A53.45,53.45,0,0,1,328.6,443l-.62.06q-2.49.23-5,.23a53.43,53.43,0,0,1-33.27-11.53c-.68-.54-1.34-1.09-2-1.65a54.17,54.17,0,0,1-4.89-4.85l-.19-.22a52.84,52.84,0,0,1,0-69.69l.15-.16a53.82,53.82,0,0,1,5-4.92c.64-.56,1.3-1.11,2-1.64a53.43,53.43,0,0,1,33.27-11.53q2.73,0,5.37.26a53.47,53.47,0,0,1,35.44,18.54C364.11,356.33,364.45,356.74,364.79,357.17Z"/><rect class="cls-10" x="318.52" y="337.38" width="9.79" height="32.31"/><rect class="cls-10" x="270.11" y="385.35" width="32.52" height="9.72"/><polygon class="cls-10" points="364.79 423.27 364.9 423.38 363.72 424.55 357.99 430.24 334.99 407.4 341.91 400.54 364.79 423.27"/><polygon class="cls-10" points="364.79 357.17 341.91 379.89 334.99 373.03 357.99 350.19 363.75 355.92 364.9 357.06 364.79 357.17"/><rect class="cls-10" x="343.61" y="385.35" width="32.53" height="9.72"/><polygon class="cls-10" points="328.6 443.02 328.6 443.08 327.98 443.08 318.82 443.08 318.82 410.77 328.6 410.77 328.6 443.02"/><polygon class="cls-10" points="289.66 348.65 312.5 371.33 305.58 378.19 282.59 355.37 282.58 355.36 282.74 355.21 287.69 350.29 289.5 348.49 289.66 348.65"/><polygon class="cls-10" points="282.6 425.06 305.58 402.23 312.5 409.1 289.66 431.78 289.5 431.94 287.68 430.13 282.79 425.28 282.58 425.07 282.6 425.06"/><ellipse class="cls-9" cx="73.39" cy="406.54" rx="15.68" ry="16.23"/><path class="cls-8" d="M73.39,349.3c30.47,0,55.16,25.63,55.16,57.23s-24.7,57.24-55.16,57.24-55.16-25.63-55.16-57.24S42.93,349.3,73.39,349.3Zm40,57.23a42.15,42.15,0,0,0-8.7-25.79l.08-.09-.86-.89a39.42,39.42,0,0,0-30.57-14.68,39,39,0,0,0-24.92,9l-.12-.13L47,375.37a41.18,41.18,0,0,0-3.71,3.84l-.12.12h0a42.55,42.55,0,0,0,0,54.39h0l.16.16A41.45,41.45,0,0,0,47,437.68l1.37,1.42.12-.13a39,39,0,0,0,24.92,9q1.91,0,3.78-.18h.47v0a39.57,39.57,0,0,0,26.31-14.42l.88-.91-.08-.09A42.2,42.2,0,0,0,113.44,406.53Z"/><rect class="cls-8" x="88.63" y="402.75" width="24.36" height="7.58"/><path class="cls-8" d="M104.74,380.74,87.59,398.48l-5.18-5.36,17.23-17.83,4.32,4.48C104.23,380.09,104.48,380.41,104.74,380.74Z"/><path class="cls-8" d="M87.59,414.59l17.14,17.74c-.27.34-.53.67-.8,1l-4.3,4.45L82.42,420Z"/><path class="cls-8" d="M77.63,422.58v25.16l-.47,0H70.31V422.58Z"/><rect class="cls-8" x="70.09" y="365.52" width="7.33" height="25.21"/><path class="cls-8" d="M65.57,391.8l-5.18,5.36L43.17,379.34l.11-.13L47,375.37c.48-.44,1-.87,1.48-1.28Z"/><path class="cls-8" d="M65.57,421.28,48.47,439c-.51-.42-1-.85-1.49-1.29l-3.66-3.78-.14-.17,17.21-17.82Z"/><rect class="cls-8" x="33.82" y="402.75" width="24.36" height="7.58"/><ellipse class="cls-10" cx="73.39" cy="406.53" rx="55.16" ry="57.24"/><path class="cls-10" d="M104.74,380.74a42.6,42.6,0,0,1,0,51.59c-.27.34-.53.67-.8,1a39.57,39.57,0,0,1-26.31,14.42l-.47,0q-1.87.18-3.78.18a39,39,0,0,1-24.92-9c-.51-.42-1-.85-1.49-1.29a41.45,41.45,0,0,1-3.66-3.78l-.14-.17a42.55,42.55,0,0,1,0-54.39l.11-.13A41.18,41.18,0,0,1,47,375.37c.48-.44,1-.87,1.48-1.28a39,39,0,0,1,24.92-9A39.42,39.42,0,0,1,104,379.77C104.23,380.09,104.48,380.41,104.74,380.74Z"/><rect class="cls-10" x="70.09" y="365.52" width="7.33" height="25.21"/><rect class="cls-10" x="33.82" y="402.75" width="24.36" height="7.58"/><polygon class="cls-10" points="104.74 432.33 104.82 432.42 103.94 433.33 99.64 437.77 82.42 419.95 87.59 414.59 104.74 432.33"/><polygon class="cls-10" points="104.74 380.74 87.59 398.48 82.42 393.12 99.64 375.29 103.96 379.77 104.82 380.65 104.74 380.74"/><rect class="cls-10" x="88.63" y="402.75" width="24.36" height="7.58"/><polygon class="cls-10" points="77.63 447.75 77.63 447.79 77.17 447.79 70.31 447.79 70.31 422.58 77.63 422.58 77.63 447.75"/><polygon class="cls-10" points="48.47 374.09 65.57 391.8 60.39 397.16 43.17 379.34 43.16 379.33 43.28 379.21 46.99 375.37 48.35 373.97 48.47 374.09"/><polygon class="cls-10" points="43.17 433.73 60.39 415.91 65.57 421.28 48.47 438.97 48.35 439.1 46.98 437.68 43.32 433.9 43.16 433.74 43.17 433.73"/><ellipse class="cls-7" cx="136.12" cy="344.13" rx="18.13" ry="9.29"/></svg>