<svg id="Layer_1" data-name="Layer 1" xmlns="http://www.w3.org/2000/svg" viewBox="0 0 512 512"><defs><style>.cls-1{fill:#ffe294;}.cls-17,.cls-2{fill:#ffd883;}.cls-3{fill:#fff;}.cls-4{fill:#ed1c24;}.cls-5{fill:#006837;}.cls-6{fill:#22b573;}.cls-18,.cls-7{fill:#662d91;}.cls-8{fill:#ffd77a;}.cls-10,.cls-11,.cls-12,.cls-13,.cls-14,.cls-15,.cls-16,.cls-9{fill:none;}.cls-10,.cls-11,.cls-12,.cls-13,.cls-18,.cls-9{stroke:#000;}.cls-10,.cls-11,.cls-14,.cls-9{stroke-miterlimit:10;}.cls-12,.cls-15,.cls-9{stroke-width:10px;}.cls-10{stroke-width:4px;}.cls-11{stroke-width:7px;}.cls-12,.cls-13,.cls-15,.cls-16,.cls-17,.cls-18{stroke-linecap:round;stroke-linejoin:round;}.cls-13,.cls-18{stroke-width:6px;}.cls-14,.cls-15,.cls-16,.cls-17{stroke:#ffd883;}.cls-16{stroke-width:8px;}.cls-17{stroke-width:0.5px;}</style></defs><title>mermaid</title><path class="cls-1" d="M358,202.59a6,6,0,0,1,.57-.65c4.18,3.34,7.38,6.11,7.23,6.29S362.24,205.91,358,202.59Z"/><path class="cls-2" d="M364.16,208.16c-1.89-2-3.87-3.11-4.42-2.58s.53,2.57,2.41,4.53,3.86,3.1,4.43,2.56S366,210.12,364.16,208.16Zm-7.78,2.95,0-.18c-.18-1.55-.63-5.45,1.66-8.34,4.23,3.32,7.67,5.82,7.8,5.64s-3-2.95-7.23-6.29a7.35,7.35,0,0,1,.77-.68c2.55-1.95,5.87-2,7.63-1.88a19.31,19.31,0,0,1,4.81,1c4.62,1.58,8.58,4.58,11,6.41,3.89,2.95,11.56,8.76,12.44,15,.5,3.54-1.18,7.32-4.41,7.18-2.61-.11-4.48-2.71-13.26-8.05-6.1-3.71-7.08-3.6-7.49-3.38-2,1.13,4,8.81,2,10.17-1.58,1.09-7.85-2.31-11.61-6.72A17.31,17.31,0,0,1,356.38,211.11Z"/><path class="cls-2" d="M359.36,201.26a7.35,7.35,0,0,0-.77.68l-.63-.5c-4.49-3.56-8.25-6.3-8.4-6.11s3.38,3.23,7.87,6.79l.59.47c-2.29,2.89-1.83,6.79-1.66,8.34l0,.18c-2.05-1.64-4.88-3.85-8.48-6.57-6.91-5.24-16.65-12.35-29.1-20.77-24.18-16.36-43-27.29-49.57-31l-.72-.41c-.15-8.35-11.06-15.23-21.49-13.65-10.65,1.61-18,11.57-18.09,19.1,0,.62,0,8.24,6.54,11.39l-1.24,1.46s-1.09,1.17-3,2.85a5.31,5.31,0,0,0,.08-.92c0-3.46-3-5.95-6.06-7.62l.73-.63-10.08-44.08c3.41-1.56,7.42-3.3,12-5,8.29-3,16.76-5.27,22.14-4.23a62.82,62.82,0,0,1,21.4,8.75,101.06,101.06,0,0,1,26.38,24.76l1.76,1.74s9.5,7.55,19.91,15.26c21.47,15.89,52.3,38.83,52.3,38.83a19.31,19.31,0,0,0-4.81-1C365.23,199.25,361.9,199.31,359.36,201.26Z"/><path class="cls-1" d="M357.42,202.11c-4.49-3.56-8-6.6-7.87-6.79s3.91,2.55,8.4,6.11l.63.5a6,6,0,0,0-.57.65Z"/><path class="cls-2" d="M154.49,36.71C166,39,176.54,44.11,184,51.79c14.49,14.91,12.77,34.68-2.62,48h0l-.6.5a50.58,50.58,0,0,1-9,5.93,58.25,58.25,0,0,1-8.65,3.64,70.43,70.43,0,0,1-9.13,2.33,72.84,72.84,0,0,1-13.86,1.22,78.43,78.43,0,0,1-27.95-6.4,2.82,2.82,0,0,0-1.18-1L127.7,79.43A12.51,12.51,0,0,0,129,81c2.94,3,7,4.6,9.08,3.52s1.37-4.43-1.57-7.45a13.92,13.92,0,0,0-5.23-3.44Zm2.52,38c2.07-1.08,1.37-4.43-1.57-7.45s-7-4.6-9.09-3.52a2.18,2.18,0,0,0-.63.49,2.82,2.82,0,0,0-.82.27c-2.07,1.08-1.36,4.42,1.59,7.45s7,4.6,9.08,3.52a2.09,2.09,0,0,0,.62-.48A2.93,2.93,0,0,0,157,74.67Z"/><path class="cls-2" d="M181.77,128.77a29.53,29.53,0,0,0-3.84-6.08C173,116.71,165,110.8,165,110.8l-.65.31-1.13-1.25,0,0a58.25,58.25,0,0,0,8.65-3.64,50.58,50.58,0,0,0,9-5.93l.6-.5a63.24,63.24,0,0,0,8.94,12.34,62,62,0,0,0,12,9.3l-.41-.42c1.22.64,6,2.94,9.71,1.22l4.29-2L226,164.3l-.73.63a32.12,32.12,0,0,0-6.82-2.62,33.18,33.18,0,0,0-4.49-.76l.08-.37-26.15-8.53-5.11-19.94-.18-.7-.22-.9Z"/><path class="cls-2" d="M246.58,259.83c2.08,2.83,3.77,5,4.95,6.58l-.17.07c-.2-.26-.41-.52-.62-.77a17.26,17.26,0,0,0-9.27-5.69c-1.3-.36-4.31-1.21-7.17-.23l-.66-1c-3.1-4.83-6.21-8.35-7-7.86s1.14,4.79,4.24,9.63l.62,1,0,0c-2.31,2.23-2.89,5.51-3,7.28a20.52,20.52,0,0,0,.48,6.13l-.36,0s-12.18-20-24.43-40c-2-3.27-4.22-6.84-6.42-10.23a102.36,102.36,0,0,0-16.21-19.24s-12.27-9.33-20.5-21.65c-4.6-6.89-7.94-14.73-7.16-22.4.42-4.07,6.07-9.22,12.65-14,.73-.53,1.45-1,2.18-1.54l1.07.85,18.13,5.92,3.35,13.11a14,14,0,0,0-3.3,2.89c-5.12,6.36-.67,15.44,8.86,18.82a22.27,22.27,0,0,0,4.39,1.08l1.09.13,1.18.09-.18,1.16s8.26,18.43,24.55,43.05C235.4,244.42,242,253.61,246.58,259.83Z"/><path class="cls-3" d="M182.37,131.11l-18-20,.65-.31s8,5.91,12.94,11.89a29.53,29.53,0,0,1,3.84,6.08Z"/><path class="cls-4" d="M154.52,36.59c-1.6-.26-3.36-.69-4,0C137.72,51.84,131.2,58.4,128,57.82c-4-.72-1.76-8.75-5.6-8.94-2.94-.16-7.92,4.92-9.47,10.34-2.08,7.35,3,13.2.73,15-2.48,2-9.91-3.42-12.91-1.9-2.28,1.16-2.12,9.19,7,29.78a13.14,13.14,0,0,0,2.33,3.1,4.2,4.2,0,0,0,1,.75l-.23.37c.47.23.93.45,1.41.66a78.43,78.43,0,0,0,27.95,6.4,72.84,72.84,0,0,0,13.86-1.22,70.43,70.43,0,0,0,9.13-2.33l0,0,1.13,1.25,18,20,.22.9.18.7c.38,1.69.41,4.21-2,5.66-3.31,2-7.57,4.42-12.06,7.51-.72.49-1.45,1-2.18,1.54-6.58,4.77-12.23,9.92-12.65,14-.78,7.67,2.55,15.51,7.16,22.4-5.67-.58-17.23,12.49-24.31,8.65a30.47,30.47,0,0,1-8.81-6.94c-3.86-4.58-6.35-8-6.29-9.21.19-3.39,9.1,1.6,13.54-1.1,5.57-3.39-5.59-21.53-14.88-36.31-2.24-3.58-4.56-7.07-6.79-10.27-3.74-5.37-7.05-9.69-10-13.33-9-10.93-15.64-15.36-20.85-24.55-15.24-26.9.79-52.72,18.23-64.85,3.82-2.66,32.54-22.45,64-8.08,9.3,4.24,10.61,7.58,34,30.26,3.15,3.05,6.65,6.49,10.55,10.4,33.77,33.81,43.18,42.07,49.77,41.44,9.14-.87,7.82-10.08,11.9-8.53,3.63,1.39.9,19.16,1.33,27.94l-.85.47A62.82,62.82,0,0,0,250,111c-5.37-1-13.85,1.21-22.14,4.23-4.57,1.66-8.58,3.4-12,5l-4.29,2c-3.69,1.72-8.49-.59-9.71-1.22L181.4,99.75h0c15.39-13.27,17.11-33.05,2.62-48-7.47-7.68-18-12.8-29.52-15.08Z"/><path class="cls-2" d="M359.74,205.58c.55-.54,2.53.62,4.42,2.58s3,4,2.41,4.52-2.54-.61-4.43-2.56S359.18,206.13,359.74,205.58Z"/><path class="cls-5" d="M346.7,206.67l-.12.18A88.26,88.26,0,0,1,339.82,220c-5.84,9.5-15.6,21.94-29.79,29.37-13.16,6.89-30.76,8.81-43.72,9.18a160.63,160.63,0,0,1-17.6-.41l-.1,0c-.86-1.34-2.07-4-.64-6.56,2.28-4.14,10.46-7.75,10.46-7.75l.29.3s22.13-2.54,39.48-12c13.46-7.3,23.67-19.43,26.7-23.26l.12,0s7-4.8,12.79-5.32a12.18,12.18,0,0,1,8,2.37A9.43,9.43,0,0,1,346.7,206.67Z"/><path class="cls-6" d="M339.89,220s43,26.67,60.73,59.21c11.95,21.9,22.54,47.31,28.35,70.41,1.8,7.12,3.17,14,4.14,20.62a120.13,120.13,0,0,1,1.12,12c1.33,31.06-12.74,47-12.74,47a26.89,26.89,0,0,1-3.75,1.75c-3.21,1.21-8,2.42-12.74,1.21-7.7-2-15-11-15-11s20-19,8.92-46.28a93,93,0,0,0-18.77-28.45c-13.52-14.37-38-28-59.48-40.3-41.91-24.06-54.33-47.63-54.33-47.63,13-.37,30.56-2.29,43.72-9.18C324.22,241.9,334,229.46,339.82,220Z"/><path class="cls-2" d="M237.87,170h.06c10.11,2.52,27.55-5.1,30.23-14.91a8.1,8.1,0,0,0,.23-1.09c5.77,8.6,15.9,22.63,27.39,33.81a96.76,96.76,0,0,0,30.06,19.85s-.32.43-.93,1.2c-3,3.83-13.24,16-26.7,23.26-17.35,9.42-39.48,12-39.48,12l-.29-.3s-2.29-12.56-14.31-25-30.93-25.52-37.72-30c11.81-.64,23.79-8.45,24.84-15.28,1.9-1.68,3-2.85,3-2.85l1.24-1.46A12.88,12.88,0,0,0,237.87,170Zm46.68,43.15c-2.94-3-7-4.6-9.08-3.52s-1.37,4.42,1.57,7.45,7,4.6,9.09,3.51S287.49,216.21,284.55,213.18Z"/><path class="cls-7" d="M266.58,151.32l1.48,2.23a160.75,160.75,0,0,1-13.64,8.58A174.71,174.71,0,0,1,237.87,170a12.88,12.88,0,0,1-2.39-.86c-6.5-3.15-6.55-10.77-6.54-11.39.1-7.53,7.44-17.5,18.09-19.1,10.43-1.58,21.34,5.3,21.49,13.65l-1.84-1Z"/><path class="cls-7" d="M268.51,152.32l.72.41-.75.53A6.54,6.54,0,0,0,268.51,152.32Z"/><path class="cls-7" d="M268.51,152.32a6.54,6.54,0,0,1,0,.95l-.42.29-1.48-2.23.09,0Z"/><path class="cls-7" d="M268.49,153.26a5.29,5.29,0,0,1-.09.77c-.12-.16-.23-.33-.33-.49Z"/><path class="cls-2" d="M154.52,36.59l0,.12-23.18,37a5,5,0,0,0-3.86-.09c-1.7.89-1.52,3.32.25,5.84L111.07,106a4.2,4.2,0,0,1-1-.75,13.14,13.14,0,0,1-2.33-3.1c-9.15-20.58-9.31-28.62-7-29.78,3-1.53,10.43,3.9,12.91,1.9,2.24-1.8-2.81-7.66-.73-15,1.55-5.42,6.53-10.5,9.47-10.34,3.83.19,1.63,8.22,5.6,8.94,3.2.58,9.72-6,22.57-21.22C151.15,35.9,152.91,36.34,154.52,36.59Z"/><path class="cls-7" d="M268.06,153.55c.11.16.21.32.33.49a8.1,8.1,0,0,1-.23,1.09c-2.68,9.81-20.12,17.42-30.23,14.91h-.06a174.71,174.71,0,0,0,16.55-7.89A160.75,160.75,0,0,0,268.06,153.55Z"/><path class="cls-1" d="M146.34,63.7c2.07-1.08,6.15.49,9.09,3.52s3.64,6.37,1.57,7.45a2.93,2.93,0,0,1-.83.28c1.26-1.39.4-4.31-2.19-7s-6.06-4.21-8.27-3.79A2.18,2.18,0,0,1,146.34,63.7Z"/><path d="M145.72,64.19c2.2-.42,5.68,1.13,8.27,3.79s3.45,5.57,2.19,7c-2.2.41-5.67-1.13-8.25-3.79S144.47,65.58,145.72,64.19Z"/><path class="cls-3" d="M201.92,121l.41.42a62,62,0,0,1-12-9.3,63.24,63.24,0,0,1-8.94-12.34Z"/><path d="M144.89,64.46a2.82,2.82,0,0,1,.82-.27c-1.25,1.39-.39,4.3,2.21,7s6.06,4.2,8.25,3.79a2.09,2.09,0,0,1-.62.48c-2.07,1.08-6.14-.5-9.08-3.52S142.82,65.54,144.89,64.46Z"/><path d="M275.47,209.66c2.07-1.08,6.13.49,9.08,3.52s3.65,6.36,1.58,7.44-6.14-.49-9.09-3.51S273.39,210.75,275.47,209.66Z"/><path class="cls-7" d="M204.64,187.58c-1.73.52-3,.85-3.45,1a22.27,22.27,0,0,1-4.39-1.08l-5.57-21.7c5.75-3.7,15-5,22.72-4.21a33.18,33.18,0,0,1,4.49.76,32.12,32.12,0,0,1,6.82,2.62c3.11,1.67,6.08,4.16,6.06,7.62a5.31,5.31,0,0,1-.08.92,60.42,60.42,0,0,1-11.12,7.94A86.61,86.61,0,0,1,204.64,187.58Z"/><path class="cls-7" d="M220.13,181.41a60.42,60.42,0,0,0,11.12-7.94c-1,6.84-13,14.64-24.84,15.28l-1.77-1.17A86.61,86.61,0,0,0,220.13,181.41Z"/><path d="M131.31,73.68a13.92,13.92,0,0,1,5.23,3.44c2.94,3,3.65,6.36,1.57,7.45S132,84.06,129,81a12.51,12.51,0,0,1-1.34-1.61Z"/><path d="M131.31,73.68l-3.61,5.75c-1.77-2.52-2-4.95-.25-5.84A5,5,0,0,1,131.31,73.68Z"/><path class="cls-1" d="M187.88,152.65,214,161.18l-.08.37c-7.68-.8-17,.51-22.72,4.21Z"/><path class="cls-2" d="M182.77,132.71l5.11,19.94-18.13-5.92-1.07-.85c4.49-3.1,8.75-5.56,12.06-7.51C183.18,136.93,183.15,134.4,182.77,132.71Z"/><path class="cls-7" d="M191.23,165.76l5.57,21.7c-9.54-3.37-14-12.46-8.86-18.82A14,14,0,0,1,191.23,165.76Z"/><path class="cls-3" d="M111.07,106a2.82,2.82,0,0,1,1.18,1c-.48-.21-.94-.43-1.41-.66Z"/><path class="cls-5" d="M417.74,431l.24.32s22.16,19.8,26,40.48c2.75,14.65,1.85,27.31-1.74,30.71-5.13,4.86-26.93-9.25-41.21-22.48-6-5.57-6.26-10.71-5.47-14a8.59,8.59,0,0,0,.14-3.79s-.73-10.41-5.95-12.13c-4.45-1.47-13.49,5.71-13.49,5.71s-2.12,1.74-4.74,4.21-7.17,5.06-14.81,5.59c-21.62,1.5-49-.57-48.21-6.93.52-4.45,11.35-14,26.55-23C356.54,423,390,421.17,390,421.17s7.31,9.07,15,11C409.7,433.42,414.53,432.21,417.74,431Z"/><path class="cls-1" d="M241.46,260a17.26,17.26,0,0,1,9.27,5.69c.21.25.42.51.62.77,3.38,4.39,5.43,10.46,4.18,11.8-1.64,1.75-8.25-5.43-9.68-3.61-.28.37-.54,1.32,2.16,8,3.88,9.55,6.15,11.8,5.85,14.42-.36,3.23-4.35,4.29-7.74,3.25-6-1.84-10.54-10.37-12.83-14.68a44,44,0,0,1-4.36-10.7,20.52,20.52,0,0,1-.48-6.13c.16-1.77.73-5,3-7.28l0,0c2.87,4.33,5.64,7.37,6.34,6.92s-.88-4.18-3.58-8.59C237.15,258.82,240.17,259.67,241.46,260Zm1.15,4.42c-.76-1-1.51-1.7-1.69-1.56s.27,1.06,1,2.06,1.51,1.71,1.69,1.57S243.36,265.45,242.62,264.45Z"/><path class="cls-3" d="M240.93,262.89c.17-.14.93.56,1.69,1.56s1.21,1.93,1,2.06-.94-.56-1.69-1.57S240.74,263,240.93,262.89Z"/><path class="cls-8" d="M226.67,250.89c.75-.49,3.87,3,7,7.86l.66,1a7.26,7.26,0,0,0-2.76,1.67l-.62-1C227.81,255.68,225.91,251.38,226.67,250.89Z"/><path class="cls-8" d="M231.53,261.47a7.26,7.26,0,0,1,2.76-1.67c2.7,4.41,4.28,8.14,3.58,8.59S234.4,265.8,231.53,261.47Z"/><path class="cls-9" d="M161.8,184a2.7,2.7,0,0,0-.8-.19c-5.67-.58-17.23,12.49-24.31,8.65a30.47,30.47,0,0,1-8.81-6.94c-3.86-4.58-6.35-8-6.29-9.21.19-3.39,9.1,1.6,13.54-1.1,5.57-3.39-5.59-21.53-14.88-36.31-2.24-3.58-4.56-7.07-6.79-10.27-3.74-5.37-7.05-9.69-10-13.33-9-10.93-15.64-15.36-20.85-24.55-15.24-26.9.79-52.72,18.23-64.85,3.82-2.66,32.54-22.45,64-8.08,9.3,4.24,10.61,7.58,34,30.26,3.15,3.05,6.65,6.49,10.55,10.4,33.77,33.81,43.18,42.07,49.77,41.44,9.14-.87,7.82-10.08,11.9-8.53,3.63,1.39.9,19.16,1.33,27.94"/><path class="cls-9" d="M181.4,99.75c15.39-13.27,17.11-33.05,2.62-48-7.47-7.68-18-12.8-29.52-15.08"/><path class="cls-9" d="M110.84,106.32c.47.23.93.45,1.41.66a78.43,78.43,0,0,0,27.95,6.4,72.84,72.84,0,0,0,13.86-1.22,70.43,70.43,0,0,0,9.13-2.33,58.25,58.25,0,0,0,8.65-3.64,50.58,50.58,0,0,0,9-5.93l.6-.5"/><path class="cls-10" d="M165.58,80.28s-2,6.93-8,10.05c-6.26,3.28-16.45,2.75-16.45,2.75"/><path class="cls-9" d="M157.28,36.3c-.46.56-1.57.48-2.76.29-1.6-.26-3.36-.69-4,0C137.72,51.84,131.2,58.4,128,57.82c-4-.72-1.76-8.75-5.6-8.94-2.94-.16-7.92,4.92-9.47,10.34-2.08,7.35,3,13.2.73,15-2.48,2-9.91-3.42-12.91-1.9-2.28,1.16-2.12,9.19,7,29.78a13.14,13.14,0,0,0,2.33,3.1,4.2,4.2,0,0,0,1,.75,2.82,2.82,0,0,1,1.18,1"/><path class="cls-9" d="M165,110.8s8,5.91,12.94,11.89a29.53,29.53,0,0,1,3.84,6.08,24.1,24.1,0,0,1,1.63,4.33"/><path class="cls-9" d="M181.4,99.75a63.24,63.24,0,0,0,8.94,12.34,62,62,0,0,0,12,9.3"/><polyline class="cls-9" points="182.37 131.11 181.77 128.77 181.46 127.59"/><path class="cls-11" d="M272.32,150.49s-1.15.87-3.08,2.24l-.75.53-.42.29"/><path class="cls-12" d="M258.44,243.83s-8.18,3.6-10.46,7.75c-1.43,2.59-.22,5.21.64,6.56.18.28.35.51.47.66l.22.26"/><path class="cls-12" d="M325,209s7-4.8,12.79-5.32a12.18,12.18,0,0,1,8,2.37,9.43,9.43,0,0,1,.82.66"/><path class="cls-12" d="M248.72,258.1a160.63,160.63,0,0,0,17.6.41c13-.37,30.56-2.29,43.72-9.18C324.22,241.9,334,229.46,339.82,220a88.26,88.26,0,0,0,6.76-13.11"/><path class="cls-12" d="M266.31,258.51s12.43,23.57,54.33,47.63c21.49,12.33,46,25.94,59.48,40.3a93,93,0,0,1,18.77,28.45C410,402.19,390,421.17,390,421.17"/><path class="cls-12" d="M339.89,220s43,26.67,60.73,59.21c11.95,21.9,22.54,47.31,28.35,70.41,1.8,7.12,3.17,14,4.14,20.62a120.13,120.13,0,0,1,1.12,12c1.33,31.06-12.74,47-12.74,47"/><path class="cls-12" d="M421.5,429.25a26.89,26.89,0,0,1-3.75,1.75c-3.21,1.21-8,2.42-12.74,1.21-7.7-2-15-11-15-11"/><path class="cls-12" d="M390,421.17s-33.44,1.86-54.9,14.53c-15.19,9-26,18.56-26.55,23-.76,6.36,26.6,8.43,48.21,6.93,7.65-.53,12.19-3.13,14.81-5.59s4.74-4.21,4.74-4.21"/><path class="cls-12" d="M418,431.32s22.16,19.8,26,40.48c2.75,14.65,1.85,27.31-1.74,30.71-5.13,4.86-26.93-9.25-41.21-22.48-6-5.57-6.26-10.71-5.47-14a8.59,8.59,0,0,0,.14-3.79"/><path class="cls-12" d="M395.75,462.26s-.73-10.41-5.95-12.13c-4.45-1.47-13.49,5.71-13.49,5.71"/><line class="cls-13" x1="181.51" y1="205.46" x2="180.35" y2="206.06"/><path class="cls-13" d="M268.51,152.32c-.15-8.35-11.06-15.23-21.49-13.65-10.65,1.61-18,11.57-18.09,19.1,0,.62,0,8.24,6.54,11.39a12.88,12.88,0,0,0,2.39.86h.06c10.11,2.52,27.55-5.1,30.23-14.91a8.1,8.1,0,0,0,.23-1.09,5.29,5.29,0,0,0,.09-.77A6.54,6.54,0,0,0,268.51,152.32Z"/><path class="cls-13" d="M196.8,187.47c-9.54-3.37-14-12.46-8.86-18.82a14,14,0,0,1,3.3-2.89c5.75-3.7,15-5,22.72-4.21a33.18,33.18,0,0,1,4.49.76,32.12,32.12,0,0,1,6.82,2.62c3.11,1.67,6.08,4.16,6.06,7.62a5.31,5.31,0,0,1-.08.92c-1,6.84-13,14.64-24.84,15.28a27.88,27.88,0,0,1-3,0l-1.18-.09-1.09-.13A22.27,22.27,0,0,1,196.8,187.47Z"/><path class="cls-14" d="M362.14,210.11c1.89,2,3.86,3.1,4.43,2.56s-.53-2.56-2.41-4.52-3.87-3.11-4.42-2.58S360.26,208.15,362.14,210.11Z"/><path class="cls-12" d="M268.06,153.55c.11.16.21.32.33.49,5.77,8.6,15.9,22.63,27.39,33.81a96.76,96.76,0,0,0,30.06,19.85"/><path class="cls-12" d="M204.64,187.58l1.77,1.17c6.79,4.51,25.64,17.46,37.72,30s14.31,25,14.31,25"/><polyline class="cls-9" points="201.91 120.97 181.4 99.75 181.4 99.75"/><path class="cls-9" d="M182.2,131a7.73,7.73,0,0,1,.39,1l.18.7c.38,1.69.41,4.21-2,5.66-3.31,2-7.57,4.42-12.06,7.51-.72.49-1.45,1-2.18,1.54-6.58,4.77-12.23,9.92-12.65,14-.78,7.67,2.55,15.51,7.16,22.4,8.23,12.32,20.5,21.65,20.5,21.65"/><path class="cls-12" d="M201.63,120.81l.29.16c1.22.64,6,2.94,9.71,1.22l4.29-2c3.41-1.56,7.42-3.3,12-5,8.29-3,16.76-5.27,22.14-4.23a62.82,62.82,0,0,1,21.4,8.75,101.06,101.06,0,0,1,26.38,24.76"/><path class="cls-12" d="M325.84,207.71s-.32.43-.93,1.2c-3,3.83-13.24,16-26.7,23.26-17.35,9.42-39.48,12-39.48,12"/><path class="cls-12" d="M181.51,205.46a102.36,102.36,0,0,1,16.21,19.24c2.21,3.39,4.42,7,6.42,10.23,12.25,20.06,24.43,40,24.43,40"/><path class="cls-12" d="M299.59,146.29s9.5,7.55,19.91,15.26c21.47,15.89,52.3,38.83,52.3,38.83"/><path class="cls-12" d="M203.28,189.93s8.26,18.43,24.55,43.05c7.57,11.44,14.15,20.63,18.75,26.85,2.08,2.83,3.77,5,4.95,6.58s1.94,2.49,1.94,2.49"/><path class="cls-12" d="M266.67,151.29l1.84,1,.72.41c6.6,3.74,25.39,14.68,49.57,31,12.45,8.42,22.19,15.53,29.1,20.77,3.6,2.73,6.43,4.94,8.48,6.57,2.64,2.11,4,3.25,4,3.25"/><polyline class="cls-13" points="214.03 161.18 187.88 152.65 169.75 146.74"/><polyline class="cls-13" points="215.58 118.73 215.92 120.22 226 164.3"/><path class="cls-12" d="M228.93,274.91a44,44,0,0,0,4.36,10.7c2.29,4.32,6.82,12.84,12.83,14.68,3.39,1,7.38,0,7.74-3.25.3-2.61-2-4.87-5.85-14.42-2.7-6.63-2.44-7.59-2.16-8,1.43-1.82,8,5.36,9.68,3.61,1.25-1.33-.8-7.41-4.18-11.8-.2-.26-.41-.52-.62-.77a17.26,17.26,0,0,0-9.27-5.69c-1.3-.36-4.31-1.21-7.17-.23a7.26,7.26,0,0,0-2.76,1.67l0,0c-2.31,2.23-2.89,5.51-3,7.28A20.52,20.52,0,0,0,228.93,274.91Z"/><path class="cls-12" d="M371.79,200.39c4.62,1.58,8.58,4.58,11,6.41,3.89,2.95,11.56,8.76,12.44,15,.5,3.54-1.18,7.32-4.41,7.18-2.61-.11-4.48-2.71-13.26-8.05-6.1-3.71-7.08-3.6-7.49-3.38-2,1.13,4,8.81,2,10.17-1.58,1.09-7.85-2.31-11.61-6.72a17.31,17.31,0,0,1-4.12-9.9l0-.18c-.18-1.55-.63-5.45,1.66-8.34a6,6,0,0,1,.57-.65,7.35,7.35,0,0,1,.77-.68c2.55-1.95,5.87-2,7.63-1.88A19.31,19.31,0,0,1,371.79,200.39Z"/><path class="cls-15" d="M231.53,261.47l-.62-1c-3.1-4.84-5-9.14-4.24-9.63s3.87,3,7,7.86l.66,1c2.7,4.41,4.28,8.14,3.58,8.59S234.4,265.8,231.53,261.47Z"/><path class="cls-16" d="M358.58,201.94l-.63-.5c-4.49-3.56-8.25-6.3-8.4-6.11s3.38,3.23,7.87,6.79l.59.47c4.23,3.32,7.67,5.82,7.8,5.64S362.77,205.28,358.58,201.94Z"/><path class="cls-17" d="M363.52,214.86c1.06,2.51,2.49,4.3,3.2,4s.43-2.58-.63-5.09-2.49-4.3-3.2-4S362.46,212.35,363.52,214.86Z"/><path class="cls-18" d="M247.14,138.66c-10.64,1.61-18,11.58-18.08,19.11,0,.68.05,10,9,12.27,10.11,2.51,27.55-5.1,30.23-14.91C270.89,145.59,258.73,136.91,247.14,138.66Z"/><path class="cls-18" d="M188.17,168.55c5.54-6.86,20.77-8.71,30.5-6.33.88.21,12.93,3.3,12.88,10.23-.05,7.83-15.53,17.46-29,16.13C189.36,187.28,182.14,176,188.17,168.55Z"/></svg>