<svg id="Layer_1" data-name="Layer 1" xmlns="http://www.w3.org/2000/svg" viewBox="0 0 512 512"><defs><style>.cls-1{fill:#f7931e;}.cls-1,.cls-3{stroke:#000;stroke-width:10px;}.cls-1,.cls-2,.cls-3{stroke-linecap:round;stroke-linejoin:round;}.cls-2{fill:#8c6239;stroke:#603813;stroke-width:6px;}.cls-3{fill:none;}</style></defs><title>oar</title><path class="cls-1" d="M234.54,301.14l22.15,21a20.9,20.9,0,0,1,.67,29.62L122,492.16a21.31,21.31,0,0,1-29.87.66L30,433.93a20.9,20.9,0,0,1-.66-29.64L164.76,263.93a21.32,21.32,0,0,1,29.88-.66l23.51,22.31"/><path class="cls-1" d="M201.65,334.65l6.68-7.27,1.23-1.33,2-2.19,3-3.26,1.63-1.77,3.72-4c28-30.41,84-91,137.48-148.13,10-10.63,19.87-21.1,29.54-31.21C398.89,123,410.34,111,420.87,99.84c6.89-7.29,13.35-14.23,19.23-20.73,7.65-8.45,14.3-16.17,19.64-22.94,6.16-7.8,10.59-14.35,12.8-19.32l-9.08-8.44c-5,2.41-11.46,7.06-19.12,13.48-19,16-45.36,42.85-74.1,73.76-14.52,15.62-29.73,32.17-45,48.81C274.88,219.56,223.92,275.35,198.66,303L192,310.35l-1.27,1.39-8.3,9.09"/><line class="cls-2" x1="237.4" y1="335.58" x2="108.7" y2="472.09"/><line class="cls-2" x1="182.38" y1="282.53" x2="53.68" y2="419.04"/><path class="cls-1" d="M459.74,56.17l8.86,8.22a8.73,8.73,0,0,0,12.22-.4l3.88-4.13a8.54,8.54,0,0,0-.41-12.11l-11.75-10.9-9.09-8.44-12-11.11a8.73,8.73,0,0,0-12.22.41l-3.88,4.12a8.55,8.55,0,0,0,.4,12.12l8.56,7.94"/><line class="cls-2" x1="171.47" y1="370.18" x2="90.72" y2="454.2"/><line class="cls-3" x1="199.69" y1="301.87" x2="182.38" y2="320.83"/><line class="cls-3" x1="219.92" y1="314.79" x2="201.65" y2="334.65"/><line class="cls-2" x1="151.9" y1="351.37" x2="71.14" y2="435.38"/></svg>