<svg id="Layer_1" data-name="Layer 1" xmlns="http://www.w3.org/2000/svg" viewBox="0 0 512 512"><defs><style>.cls-1{fill:#4d4d4d;stroke-width:6px;}.cls-1,.cls-2{stroke:#000;}.cls-1,.cls-2,.cls-3{stroke-linecap:round;stroke-linejoin:round;}.cls-2{stroke-width:7px;}.cls-3{stroke:#e6e6e6;stroke-width:5px;}</style></defs><title>pile_of_cannon_balls</title><ellipse class="cls-1" cx="260.03" cy="112.65" rx="63.41" ry="63.19"/><ellipse class="cls-1" cx="300.47" cy="177.79" rx="63.41" ry="63.19"/><ellipse class="cls-1" cx="212.33" cy="177.79" rx="63.41" ry="63.19"/><ellipse class="cls-1" cx="346.95" cy="247.64" rx="63.41" ry="63.19"/><ellipse class="cls-1" cx="250.38" cy="243.76" rx="63.41" ry="63.19"/><ellipse class="cls-1" cx="162.96" cy="247.64" rx="63.41" ry="63.19"/><ellipse class="cls-1" cx="377.19" cy="319.25" rx="63.41" ry="63.19"/><ellipse class="cls-1" cx="285.88" cy="319.25" rx="63.41" ry="63.19"/><ellipse class="cls-1" cx="200.84" cy="319.25" rx="63.41" ry="63.19"/><ellipse class="cls-1" cx="122.05" cy="319.25" rx="63.41" ry="63.19"/><ellipse class="cls-1" cx="427.28" cy="386.83" rx="63.41" ry="63.19"/><ellipse class="cls-1" cx="342.93" cy="388.46" rx="63.41" ry="63.19"/><ellipse class="cls-1" cx="252.65" cy="390.01" rx="63.41" ry="63.19"/><ellipse class="cls-1" cx="165.91" cy="390.01" rx="63.41" ry="63.19"/><ellipse class="cls-1" cx="82.03" cy="391.95" rx="63.41" ry="63.19"/><path class="cls-2" d="M336.33,145.16a33.35,33.35,0,0,1,3,4l.72,1.18c.4.65.81,1.37,1.25,2.18.31.58.64,1.21.95,1.86,2.31,4.81,4.66,10.59,4.66,10.59"/><path class="cls-3" d="M336.33,145.16a33.35,33.35,0,0,1,3,4l.72,1.18c.4.65.81,1.37,1.25,2.18.31.58.64,1.21.95,1.86,2.31,4.81,4.66,10.59,4.66,10.59"/><path class="cls-2" d="M292.75,77.25a33.35,33.35,0,0,1,3,4l.72,1.18c.4.65.81,1.37,1.25,2.18.31.58.64,1.21.95,1.86,2.31,4.81,4.66,10.59,4.66,10.59"/><path class="cls-3" d="M292.75,77.25a33.35,33.35,0,0,1,3,4l.72,1.18c.4.65.81,1.37,1.25,2.18.31.58.64,1.21.95,1.86,2.31,4.81,4.66,10.59,4.66,10.59"/><path class="cls-2" d="M248.78,144.89a33.35,33.35,0,0,1,3,4l.72,1.18c.4.65.81,1.37,1.25,2.18.31.58.64,1.21.95,1.86,2.31,4.81,4.66,10.59,4.66,10.59"/><path class="cls-3" d="M248.78,144.89a33.35,33.35,0,0,1,3,4l.72,1.18c.4.65.81,1.37,1.25,2.18.31.58.64,1.21.95,1.86,2.31,4.81,4.66,10.59,4.66,10.59"/><path class="cls-2" d="M384.11,218.41a33.35,33.35,0,0,1,3,4l.72,1.18c.4.65.81,1.37,1.25,2.18.31.58.64,1.21.95,1.86,2.31,4.81,4.66,10.59,4.66,10.59"/><path class="cls-3" d="M384.11,218.41a33.35,33.35,0,0,1,3,4l.72,1.18c.4.65.81,1.37,1.25,2.18.31.58.64,1.21.95,1.86,2.31,4.81,4.66,10.59,4.66,10.59"/><path class="cls-2" d="M289.79,220.41a33.35,33.35,0,0,1,3,4l.72,1.18c.4.65.81,1.37,1.25,2.18.31.58.64,1.21.95,1.86,2.31,4.81,4.66,10.59,4.66,10.59"/><path class="cls-3" d="M289.79,220.41a33.35,33.35,0,0,1,3,4l.72,1.18c.4.65.81,1.37,1.25,2.18.31.58.64,1.21.95,1.86,2.31,4.81,4.66,10.59,4.66,10.59"/><path class="cls-2" d="M200.88,220.89a33.35,33.35,0,0,1,3,4l.72,1.18c.4.65.81,1.37,1.25,2.18.31.58.64,1.21.95,1.86,2.31,4.81,4.66,10.59,4.66,10.59"/><path class="cls-3" d="M200.88,220.89a33.35,33.35,0,0,1,3,4l.72,1.18c.4.65.81,1.37,1.25,2.18.31.58.64,1.21.95,1.86,2.31,4.81,4.66,10.59,4.66,10.59"/><path class="cls-2" d="M154.46,291a33.35,33.35,0,0,1,3,4l.72,1.18c.4.65.81,1.37,1.25,2.18.31.58.64,1.21.95,1.86,2.31,4.81,4.66,10.59,4.66,10.59"/><path class="cls-3" d="M154.46,291a33.35,33.35,0,0,1,3,4l.72,1.18c.4.65.81,1.37,1.25,2.18.31.58.64,1.21.95,1.86,2.31,4.81,4.66,10.59,4.66,10.59"/><path class="cls-2" d="M234.17,291.47a33.35,33.35,0,0,1,3,4l.72,1.18c.4.65.81,1.37,1.25,2.18.31.58.64,1.21.95,1.86,2.31,4.81,4.66,10.59,4.66,10.59"/><path class="cls-3" d="M234.17,291.47a33.35,33.35,0,0,1,3,4l.72,1.18c.4.65.81,1.37,1.25,2.18.31.58.64,1.21.95,1.86,2.31,4.81,4.66,10.59,4.66,10.59"/><path class="cls-2" d="M318.85,290a33.35,33.35,0,0,1,3,4l.72,1.18c.4.65.81,1.37,1.25,2.18.31.58.64,1.21.95,1.86,2.31,4.81,4.66,10.59,4.66,10.59"/><path class="cls-3" d="M318.85,290a33.35,33.35,0,0,1,3,4l.72,1.18c.4.65.81,1.37,1.25,2.18.31.58.64,1.21.95,1.86,2.31,4.81,4.66,10.59,4.66,10.59"/><path class="cls-2" d="M410.2,287.59a33.35,33.35,0,0,1,3,4l.72,1.18c.4.65.81,1.37,1.25,2.18.31.58.64,1.21.95,1.86,2.31,4.81,4.66,10.59,4.66,10.59"/><path class="cls-3" d="M410.2,287.59a33.35,33.35,0,0,1,3,4l.72,1.18c.4.65.81,1.37,1.25,2.18.31.58.64,1.21.95,1.86,2.31,4.81,4.66,10.59,4.66,10.59"/><path class="cls-2" d="M115,367.41a33.35,33.35,0,0,1,3,4l.72,1.18c.4.65.81,1.37,1.25,2.18.31.58.64,1.21.95,1.86,2.31,4.81,4.66,10.59,4.66,10.59"/><path class="cls-3" d="M115,367.41a33.35,33.35,0,0,1,3,4l.72,1.18c.4.65.81,1.37,1.25,2.18.31.58.64,1.21.95,1.86,2.31,4.81,4.66,10.59,4.66,10.59"/><path class="cls-2" d="M200.7,367a33.35,33.35,0,0,1,3,4l.72,1.18c.4.65.81,1.37,1.25,2.18.31.58.64,1.21.95,1.86,2.31,4.81,4.66,10.59,4.66,10.59"/><path class="cls-3" d="M200.7,367a33.35,33.35,0,0,1,3,4l.72,1.18c.4.65.81,1.37,1.25,2.18.31.58.64,1.21.95,1.86,2.31,4.81,4.66,10.59,4.66,10.59"/><path class="cls-2" d="M285.4,365.1a33.35,33.35,0,0,1,3,4l.72,1.18c.4.65.81,1.37,1.25,2.18.31.58.64,1.21.95,1.86,2.31,4.81,4.66,10.59,4.66,10.59"/><path class="cls-3" d="M285.4,365.1a33.35,33.35,0,0,1,3,4l.72,1.18c.4.65.81,1.37,1.25,2.18.31.58.64,1.21.95,1.86,2.31,4.81,4.66,10.59,4.66,10.59"/><path class="cls-2" d="M376.47,363.38a33.35,33.35,0,0,1,3,4l.72,1.18c.4.65.81,1.37,1.25,2.18.31.58.64,1.21.95,1.86,2.31,4.81,4.66,10.59,4.66,10.59"/><path class="cls-3" d="M376.47,363.38a33.35,33.35,0,0,1,3,4l.72,1.18c.4.65.81,1.37,1.25,2.18.31.58.64,1.21.95,1.86,2.31,4.81,4.66,10.59,4.66,10.59"/><path class="cls-2" d="M462.4,361.17a33.35,33.35,0,0,1,3,4l.72,1.18c.4.65.81,1.37,1.25,2.18.31.58.64,1.21.95,1.86C470.63,375.23,473,381,473,381"/><path class="cls-3" d="M462.4,361.17a33.35,33.35,0,0,1,3,4l.72,1.18c.4.65.81,1.37,1.25,2.18.31.58.64,1.21.95,1.86C470.63,375.23,473,381,473,381"/></svg>