<svg id="Layer_1" data-name="Layer 1" xmlns="http://www.w3.org/2000/svg" viewBox="0 0 512 512"><defs><style>.cls-1{fill:#fff;}.cls-2,.cls-3,.cls-4,.cls-5,.cls-6{fill:none;stroke:#000;}.cls-2,.cls-3,.cls-5{stroke-linecap:round;stroke-linejoin:round;}.cls-2{stroke-width:10px;}.cls-3,.cls-4{stroke-width:6px;}.cls-4,.cls-6{stroke-miterlimit:10;}.cls-5{stroke-width:5px;}.cls-6{stroke-width:4px;}</style></defs><title>pirate_flag</title><path d="M171.66,204.06c0,.18-.87,14.16,3.38,23.26a21.66,21.66,0,0,0,11.38,10.73l-.13.41c-.51,1.51-1,3-1.43,4.32-1.3,4-2,7.63-.28,10.35a3.71,3.71,0,0,0,1,1c3,2.21,10.5,1.37,17.21,0v23.07a3.65,3.65,0,0,0,3.46,3.84l50.35-.92a3.81,3.81,0,0,0,3.46-4v-22c7.06,1.38,15.32,2.3,18.5,0a3.62,3.62,0,0,0,1-1c1.31-2.12,1.1-4.75.24-7.65-.23-.77-.51-1.55-.82-2.31-.5-1.22-1-2.54-1.58-3.9a12.28,12.28,0,0,1-.61-2.14,6.86,6.86,0,0,1-.11-1.58c0-.22,0-.45,0-.69a21.58,21.58,0,0,0,11.23-10.88c2.47-5.48,3.14-12.39,3.27-17.13h0c0-23.75-26.73-43.12-59.7-43.62-32.49-.49-59,17.64-59.73,40.9Zm331.67,139v10.67l-9.73,6.31h-28.1s-7.41,4.09-25,17.37c-15.65,11.82-37.66,25.54-64.18,29.15a54.68,54.68,0,0,1-10.82.43q-4.63-.29-9.42-.92-3.27-.43-6.61-1c-6.12-1-12.4-2-18.81-2.91-43.29-6.29-92.62-16.34-137.71-20.4q-7.84-.71-15.47-1C94,377.47,33,419.32,33,419.32l.88-268.51a201.64,201.64,0,0,1,55-38.91c19.89-9.41,43.86-16.11,69.61-13.46,2.35.24,4.71.6,7.07,1.08a295.15,295.15,0,0,1,29.7,7.89l-1.46-.45,15.37,17.93h13.5l-13.45-12.78.11,0c7.31,2.59,14.67,5.38,22,8.29,12.29,4.85,24.61,10,36.79,15.2,22,9.31,43.5,18.49,63.46,25.33a189.49,189.49,0,0,0,36.93,8.7c46.78,6.11,79.32-22.45,79.32-22.45L493.6,141l-18,18.3,9.73,1.52-13.47,9.67-26.19,4.06-17.21,7.62-29.18,13-17.21,11.44-4.49,14.49-4.49,16h23.2L415,233.29l8.23-5.34,3-12.2H445l15,3h9l8.23-.76,9-6.1-5.24,16-6.73,1.52-16.46,3.81.75,16-17.21,8.39-1.5,14.49-16.46,4.57H406.81L411.3,292h23.2l14.22-3.81,9-3.11s.67-3.75,7.82-3.75a19.36,19.36,0,0,1,11.63,3.75l4.49,6.93h18.71l-11.22,13.72H465.51l-8.57,3.77L442,321s-7.48,6.1-10.48,6.1H421l27.69,9.15,11.22-3.81s7.48.76,9.73.76,12,5.34,16.46,3,14.22.57,14.22.57ZM376.9,298.26c6.93-3.46,3.48-8.9-11-13.14h0c-.26-9.19-7.26-16.2-18.43-17-13.31-1-27.94,7.16-34.52,18.66a3.31,3.31,0,0,1,0-.37,2.79,2.79,0,0,0-.25.44h0L230.33,303.6l-87-17.37a4.1,4.1,0,0,0,1.46-1.43,4.65,4.65,0,0,0,.54-2.34c-.37-6.64-9.07-12-18-12.64C117,269.08,108,273.09,107,280.55c-19.19,4.93-30.25,11.3-26,15.89,5,5.34,28.92,6.42,55.47,2.83l.67-.09,57.67,11.91-51.58,10.55a111.41,111.41,0,0,0-11.14-2.52c-20.12-3.54-40.51-2.3-45.71,2.68-4.43,4.24,3.79,9.94,18.76,13.74.36,10.62,8.93,18.46,21.3,18.52,13.21.06,26.21-9,30.75-20.72l73.23-14.89L305.82,334h0a15.6,15.6,0,0,0,1,2.34c4.73,9.27,18.65,16.38,31.16,15.75,10.65-.54,16.82-6.49,15.5-13.94,17.5-6,26.49-12.9,20.84-17.22-6.56-5-30.64-4.76-55.82.27l.66-.25-1,.19h0l-51-10.18,75.11-12.31C355.8,301.81,371,301.22,376.9,298.26ZM54.11,400.44l16.67-11.82H54.11L37.44,406.34h8.34Z"/><path d="M479.43,305.72l-17.11,12.07-8.55,4.75,15.9,10.62c-2.25,0-9.73-.76-9.73-.76l-11.22,3.81L421,327.07H431.5c3,0,10.48-6.1,10.48-6.1l15-11.48,8.57-3.77Z"/><polygon points="453.76 199.93 401.48 204.68 387.22 217.99 387.22 226.54 373.13 237.1 373.13 237.1 377.62 221.09 382.11 206.61 399.32 195.17 428.5 182.21 448.06 190.42 432.85 190.42 438.28 199.93 453.76 199.93"/><path class="cls-1" d="M365.91,285.13h0c14.48,4.24,17.92,9.67,11,13.14-5.91,3-21.1,3.54-34.58.39L267.22,311l-36.89-7.37,82.32-16.76a2.92,2.92,0,0,0-.31,1.05c.19-.37.4-.75.6-1.11h0c6.58-11.5,21.22-19.63,34.52-18.66C358.65,268.93,365.64,275.93,365.91,285.13Z"/><path class="cls-1" d="M194.85,311.08l-57.67-11.91-.67.09C110,302.85,86,301.77,81,296.43c-4.26-4.59,6.79-11,26-15.89,1-7.46,9.95-11.47,20.36-10.73,8.9.63,17.6,6,18,12.64a4.65,4.65,0,0,1-.54,2.34,4.1,4.1,0,0,1-1.46,1.43l87,17.37L267.22,311l51,10.18c-.74.16-1.44.34-2.12.56l2.42-.5c25.18-5,49.25-5.29,55.82-.27,5.65,4.32-3.34,11.26-20.84,17.22,1.32,7.46-4.86,13.4-15.5,13.94-12.51.64-26.44-6.48-31.16-15.75a15.6,15.6,0,0,1-1-2.34h0l-75.35-15.56Z"/><path d="M319.13,321l-.66.25-.3-.06h0Z"/><path d="M318.17,321.14l.3.06-2.42.5C316.73,321.49,317.44,321.3,318.17,321.14Z"/><path d="M312.95,286.77h0l-.3.06h0a2.79,2.79,0,0,1,.25-.44A3.31,3.31,0,0,0,312.95,286.77Z"/><path d="M312.65,286.84l.3-.06c-.21.37-.41.74-.6,1.11A2.92,2.92,0,0,1,312.65,286.84Z"/><path class="cls-1" d="M224.47,195c-.56-1.44-2.57-5.78-6.75-6.89a14.35,14.35,0,0,0-6.73-.06,36.94,36.94,0,0,0-8.87,3.44c-4,2.1-7.23,3.8-8.09,4.26,0,.18,1.49,15.13,6.41,18.65a7.17,7.17,0,0,0,.8.5c3.08,1.64,6.83,1.49,10.34.14a18.72,18.72,0,0,0,4.21-2.34,7.6,7.6,0,0,0,1.66-1.79c.28-.4.56-.83.83-1.29h0c2.76-3,4.84-9.84,5.68-12.95.27-1,.41-1.61.41-1.61h0Zm52.17,39.75c0,.24,0,.47,0,.69a6.86,6.86,0,0,0,.11,1.58,12.28,12.28,0,0,0,.61,2.14c.54,1.37,1.08,2.68,1.58,3.9.31.76.59,1.54.82,2.31.86,2.9,1.07,5.53-.24,7.65a3.62,3.62,0,0,1-1,1c-3.18,2.32-11.43,1.4-18.5,0v22a3.81,3.81,0,0,1-3.46,4l-50.35.92a3.65,3.65,0,0,1-3.46-3.84V254.12c-6.7,1.39-14.18,2.23-17.21,0a3.71,3.71,0,0,1-1-1c-1.71-2.72-1-6.33.28-10.35.43-1.35.93-2.81,1.43-4.32l.13-.41A21.66,21.66,0,0,1,175,227.32c-4.25-9.1-3.39-23.08-3.38-23.26h0c.75-23.26,27.24-41.4,59.73-40.9,33,.5,59.7,19.87,59.7,43.62h0c-.13,4.74-.79,11.65-3.27,17.13A21.58,21.58,0,0,1,276.63,234.79ZM240.34,195.5l.08.06s.14.61.41,1.59h0c.84,3.11,2.92,9.92,5.68,13h0c.27.46.55.89.83,1.29A7.6,7.6,0,0,0,249,213.2a18.72,18.72,0,0,0,4.21,2.34c3.51,1.35,7.26,1.5,10.34-.14a7,7,0,0,0,.8-.5c4.95-3.54,6.41-18.65,6.41-18.65-.86-.46-4-2.17-8.09-4.26a37,37,0,0,0-8.87-3.44,14.35,14.35,0,0,0-6.73.06C242.91,189.73,240.9,194.07,240.34,195.5Zm-2.78,37.35c1.59-.32,1.79-3.89.44-8s-3.74-7.13-5.33-6.81a1.2,1.2,0,0,0-.71.45c-1.55.6-3.57,3.14-5,6.41-1.71,4-1.83,7.57-.27,8s4-2.32,5.76-6.13C233.87,230.49,236.06,233.15,237.56,232.85Z"/><path d="M270.77,196.25s-1.46,15.11-6.41,18.65a7,7,0,0,1-.8.5c-3.09,1.64-6.83,1.49-10.34.14A18.72,18.72,0,0,1,249,213.2a7.6,7.6,0,0,1-1.66-1.79c-.28-.4-.56-.83-.83-1.29a5.15,5.15,0,0,0,1.63,1.27c4.74,2.14,11,2.49,15.62-.26S270.41,198.31,270.77,196.25Z"/><path d="M270.77,196.25c-.37,2.06-2.38,12.13-7,14.88s-10.88,2.4-15.62.26a5.15,5.15,0,0,1-1.63-1.27h0a80.43,80.43,0,0,1-5.68-13h0c-.27-1-.41-1.59-.41-1.59l-.08-.06c.56-1.43,2.57-5.78,6.75-6.89a14.35,14.35,0,0,1,6.73-.06,37,37,0,0,1,8.87,3.44C266.72,194.08,269.92,195.79,270.77,196.25Z"/><path d="M246.52,210.12c-2.76-3-4.84-9.85-5.68-13A80.43,80.43,0,0,0,246.52,210.12Z"/><path d="M238,224.87c1.35,4.08,1.15,7.66-.44,8s-3.69-2.37-5.07-6.07l.17-.38c1.71-4,1.83-7.57.27-8a1.55,1.55,0,0,0-1,.1,1.2,1.2,0,0,1,.71-.45C234.26,217.74,236.65,220.79,238,224.87Z"/><path d="M232.92,218.42c1.56.41,1.44,4-.27,8l-.17.38c-.09-.24-.18-.49-.26-.74-1.11-3.37-1.17-6.39-.26-7.53A1.55,1.55,0,0,1,232.92,218.42Z"/><path d="M232.23,226c.08.25.17.49.26.74-1.71,3.8-4.25,6.52-5.76,6.13s-1.44-4,.27-8c1.4-3.27,3.42-5.81,5-6.41C231.05,219.65,231.11,222.67,232.23,226Z"/><path class="cls-1" d="M143.27,321.63l51.58-10.55,35.62,7.36-73.23,14.89C152.7,345,139.7,354.1,126.49,354c-12.36-.05-20.94-7.9-21.3-18.52-15-3.8-23.19-9.5-18.76-13.74,5.2-5,25.59-6.22,45.71-2.68A111.41,111.41,0,0,1,143.27,321.63Z"/><path d="M224.47,195l-.08.06h0s-.14.62-.41,1.61a80.43,80.43,0,0,1-5.68,12.95h0a5.14,5.14,0,0,1-1.63,1.27c-4.74,2.14-11,2.49-15.62-.26s-6.64-12.82-7-14.88c.86-.46,4-2.17,8.09-4.26a36.94,36.94,0,0,1,8.87-3.44,14.35,14.35,0,0,1,6.73.06C221.89,189.26,223.9,193.6,224.47,195Z"/><path d="M222.75,115.94l-13.42-3.78q-7.07-2.5-14.06-4.73Z"/><path d="M222.68,124.91h-13.5L193.81,107l1.46.45q7,2.22,14.06,4.73l-.11,0Z"/><path d="M218.29,209.65A80.43,80.43,0,0,0,224,196.7C223.13,199.82,221.05,206.62,218.29,209.65Z"/><path d="M218.29,209.65c-.27.46-.55.89-.83,1.29a7.6,7.6,0,0,1-1.66,1.79,18.72,18.72,0,0,1-4.21,2.34c-3.51,1.35-7.26,1.5-10.34-.14a7.17,7.17,0,0,1-.8-.5c-4.92-3.52-6.39-18.47-6.41-18.65.37,2.05,2.38,12.13,7,14.88s10.88,2.4,15.62.26A5.14,5.14,0,0,0,218.29,209.65Z"/><polygon points="70.78 388.62 54.11 400.44 45.77 406.34 37.44 406.34 54.11 388.62 70.78 388.62"/><line class="cls-2" x1="33.89" y1="150.82" x2="33.01" y2="419.32"/><path class="cls-2" d="M406.81,276.75,411.3,292h23.2l14.22-3.81,9-3.11s.67-3.75,7.82-3.75a19.36,19.36,0,0,1,11.63,3.75l4.49,6.93h18.71l-11.22,13.72H465.51l-8.57,3.77L442,321s-7.48,6.1-10.48,6.1H421l27.69,9.15,11.22-3.81s7.48.76,9.73.76,12,5.34,16.46,3,14.22.57,14.22.57l3,6.29v10.67l-9.73,6.31h-28.1s-7.41,4.09-25,17.37c-15.65,11.82-37.66,25.54-64.18,29.15a54.68,54.68,0,0,1-10.82.43q-4.63-.29-9.42-.92-3.27-.43-6.61-1c-6.12-1-12.4-2-18.81-2.91-43.29-6.29-92.62-16.34-137.71-20.4q-7.84-.71-15.47-1C94,377.47,33,419.32,33,419.32"/><path class="cls-2" d="M268.17,135.64c22,9.31,43.5,18.49,63.46,25.33a189.49,189.49,0,0,0,36.93,8.7c46.78,6.11,79.32-22.45,79.32-22.45L493.6,141l-18,18.3,9.73,1.52-13.47,9.67-26.19,4.06-17.21,7.62-29.18,13-17.21,11.44-4.49,14.49-4.49,16h23.2L415,233.29l8.23-5.34,3-12.2H445l15,3h9l8.23-.76,9-6.1-5.24,16-6.73,1.52-16.46,3.81.75,16-17.21,8.39-1.5,14.49"/><path class="cls-2" d="M231.38,120.45c12.29,4.85,24.61,10,36.79,15.2"/><path class="cls-2" d="M165.57,99.54a295.15,295.15,0,0,1,29.7,7.89"/><path class="cls-2" d="M88.88,111.91c19.89-9.41,43.86-16.11,69.61-13.46,2.35.24,4.71.6,7.07,1.08"/><path class="cls-2" d="M33.89,150.82a201.64,201.64,0,0,1,55-38.91"/><polyline class="cls-2" points="428.5 182.21 448.06 190.42 432.85 190.42 438.28 199.93 453.76 199.93 401.48 204.68 387.22 217.99 387.22 226.54 373.13 237.1"/><polyline class="cls-2" points="458.44 249.3 472.77 265.51 453.76 265.51 439.73 272.18 423.27 276.75 406.81 276.75"/><polyline class="cls-2" points="479.43 305.72 462.32 317.79 453.76 322.55 469.66 333.17"/><line class="cls-2" x1="423.27" y1="227.96" x2="387.22" y2="226.54"/><path class="cls-3" d="M171.66,205.08c0-.34,0-.68,0-1,.75-23.26,27.24-41.4,59.73-40.9,33,.5,59.7,19.87,59.7,43.62"/><path class="cls-3" d="M232.48,226.78c-1.71,3.8-4.25,6.52-5.76,6.13s-1.44-4,.27-8c1.4-3.27,3.42-5.81,5-6.41"/><path class="cls-3" d="M232,218.52a1.2,1.2,0,0,1,.71-.45c1.59-.32,4,2.73,5.33,6.81s1.15,7.66-.44,8-3.69-2.37-5.07-6.07c-.09-.24-.18-.49-.26-.74C231.11,222.67,231.05,219.65,232,218.52Z"/><path class="cls-4" d="M224.63,195.5s-.05-.17-.17-.46c-.56-1.44-2.57-5.78-6.75-6.89a14.35,14.35,0,0,0-6.73-.06,36.94,36.94,0,0,0-8.87,3.44c-4,2.1-7.23,3.8-8.09,4.26l-.23.12"/><path class="cls-4" d="M194,195.78l-.06-.37"/><path class="cls-3" d="M218.29,209.65a5.14,5.14,0,0,1-1.63,1.27c-4.74,2.14-11,2.49-15.62-.26s-6.64-12.82-7-14.88"/><path class="cls-4" d="M224,196.7c-.84,3.11-2.92,9.91-5.68,12.95"/><path class="cls-3" d="M224.38,195.09s-.14.62-.41,1.61"/><path class="cls-3" d="M218.29,209.65c-.27.46-.55.89-.83,1.29a7.6,7.6,0,0,1-1.66,1.79,18.72,18.72,0,0,1-4.21,2.34c-3.51,1.35-7.26,1.5-10.34-.14a7.17,7.17,0,0,1-.8-.5c-4.92-3.52-6.39-18.47-6.41-18.65h0"/><path class="cls-4" d="M218.29,209.65h0"/><path class="cls-3" d="M224.43,195.36s-.16.5-.46,1.34a80.43,80.43,0,0,1-5.68,12.95"/><path class="cls-4" d="M240.17,196s.05-.17.17-.46c.56-1.43,2.57-5.78,6.75-6.89a14.35,14.35,0,0,1,6.73-.06,37,37,0,0,1,8.87,3.44c4,2.1,7.23,3.8,8.09,4.26l.23.12"/><path class="cls-4" d="M246.52,210.12a5.15,5.15,0,0,0,1.63,1.27c4.74,2.14,11,2.49,15.62-.26s6.64-12.82,7-14.88l.06-.37"/><path class="cls-4" d="M240.83,197.16c.84,3.11,2.92,9.92,5.68,13"/><path class="cls-3" d="M240.42,195.56s.14.61.41,1.59"/><path class="cls-4" d="M246.52,210.12h0c.27.46.55.89.83,1.29A7.6,7.6,0,0,0,249,213.2a18.72,18.72,0,0,0,4.21,2.34c3.51,1.35,7.26,1.5,10.34-.14a7,7,0,0,0,.8-.5c4.95-3.54,6.41-18.65,6.41-18.65"/><path class="cls-3" d="M240.83,197.16a80.43,80.43,0,0,0,5.68,13"/><path class="cls-4" d="M240.83,197.16h0"/><path class="cls-3" d="M240.38,195.83s.16.5.45,1.33"/><path class="cls-3" d="M171.66,204.06h0c0,.18-.87,14.16,3.38,23.26a21.66,21.66,0,0,0,11.38,10.73"/><path class="cls-3" d="M291.05,201.23s.17,2.25.08,5.54c-.13,4.74-.79,11.65-3.27,17.13a21.58,21.58,0,0,1-11.23,10.88l0,0"/><path class="cls-5" d="M181.67,219.24s1.77,8.16,4.41,12.53a6.3,6.3,0,0,1,1,2.86,5.38,5.38,0,0,1-.12,1.54c-.15.64-.32,1.27-.51,1.89l-.13.41c-.51,1.51-1,3-1.43,4.32-1.3,4-2,7.63-.28,10.35a3.71,3.71,0,0,0,1,1c3,2.21,10.5,1.37,17.21,0s12.59-3.32,12.59-3.32"/><path class="cls-5" d="M278.93,220.61a119.34,119.34,0,0,0-2.3,14.18c0,.24,0,.47,0,.69a6.86,6.86,0,0,0,.11,1.58,12.28,12.28,0,0,0,.61,2.14c.54,1.37,1.08,2.68,1.58,3.9.31.76.59,1.54.82,2.31.86,2.9,1.07,5.53-.24,7.65a3.62,3.62,0,0,1-1,1c-3.18,2.32-11.43,1.4-18.5,0-6.27-1.22-11.6-2.81-11.6-2.81"/><path class="cls-5" d="M260,254.07v22a3.81,3.81,0,0,1-3.46,4l-50.35.92a3.65,3.65,0,0,1-3.46-3.84V254.1"/><path class="cls-5" d="M258.59,265s-3.13,1.11-7.84,2.27a94.48,94.48,0,0,1-10.72,2,66,66,0,0,1-7.58.52c-2,0-4.09-.07-6.11-.24a102.18,102.18,0,0,1-11.55-1.66c-6.19-1.23-10.56-2.62-10.56-2.62"/><polyline class="cls-5" points="214.8 260.01 214.8 267.88 214.8 275.44"/><polyline class="cls-5" points="226.35 260.34 226.35 269.54 226.35 275.76"/><polyline class="cls-5" points="240.04 260.71 240.04 269.25 240.04 276.13"/><polyline class="cls-5" points="250.75 260.34 250.75 267.24 250.75 275.76"/><path class="cls-6" d="M312.34,287.89c.19-.37.4-.75.6-1.11h0c6.58-11.5,21.22-19.63,34.52-18.66,11.17.82,18.17,7.82,18.43,17a22.24,22.24,0,0,1-1.74,9c-.06.15-.12.29-.18.44"/><path class="cls-4" d="M312.34,287.89a2.92,2.92,0,0,1,.31-1.05h0a2.79,2.79,0,0,1,.25-.44,3.31,3.31,0,0,0,0,.37"/><path class="cls-6" d="M365.91,285.13c14.48,4.24,17.92,9.67,11,13.14-5.91,3-21.1,3.54-34.58.39l-.08,0a32.49,32.49,0,0,1-4.42-1.37,7.23,7.23,0,0,1-2.22-1.34c-1.53-1.37-1.48-3.4-1.14-5.52.54-3.33,1.53-6.53-1.8-7.64"/><polyline class="cls-4" points="195.26 311 194.85 311.08 143.27 321.63 140.96 322.1"/><polyline class="cls-4" points="312.95 286.77 312.95 286.77 312.65 286.83 230.33 303.6 229.68 303.73"/><polyline class="cls-6" points="231.13 318.3 230.47 318.44 157.24 333.33"/><polyline class="cls-6" points="342.56 298.61 342.33 298.65 267.22 310.97 266.49 311.08"/><path class="cls-6" d="M157.76,331.74c-.13.38-.38,1.22-.52,1.59C152.7,345,139.7,354.1,126.49,354c-12.36-.05-20.94-7.9-21.3-18.52a22.3,22.3,0,0,1,.57-5.74c0-.15,0,2.62,0,2.47"/><path class="cls-6" d="M105.19,335.53c-15-3.8-23.19-9.5-18.76-13.74,5.2-5,25.59-6.22,45.71-2.68a111.41,111.41,0,0,1,11.14,2.52l.51.15"/><path class="cls-4" d="M304.8,333.31q0-.26.12-.52"/><path class="cls-6" d="M316.05,321.7l2.42-.5c25.18-5,49.25-5.29,55.82-.27,5.65,4.32-3.34,11.26-20.84,17.22-4.83,1.64-10.3,3.21-16.3,4.63l-.92.21"/><path class="cls-4" d="M316.05,321.7c.68-.21,1.39-.4,2.12-.56h0l1-.19-.66.25"/><path class="cls-4" d="M353.45,338.15c1.32,7.46-4.86,13.4-15.5,13.94-12.51.64-26.44-6.48-31.16-15.75a15.6,15.6,0,0,1-1-2.34,12,12,0,0,1-.59-3.34"/><polyline class="cls-6" points="318.47 321.2 318.17 321.14 267.22 310.97 230.33 303.6 143.36 286.23 142.59 286.07"/><polyline class="cls-6" points="305.82 334 230.47 318.44 194.85 311.08 137.18 299.17 135.55 298.83"/><path class="cls-6" d="M139.07,298.9l-1.89.27-.67.09C110,302.85,86,301.77,81,296.43c-4.26-4.59,6.79-11,26-15.89,5.31-1.36,11.24-2.62,17.64-3.69l1-.16"/><path class="cls-6" d="M107,280.55c1-7.46,9.95-11.47,20.36-10.73,8.9.63,17.6,6,18,12.64a4.65,4.65,0,0,1-.54,2.34,4.1,4.1,0,0,1-1.46,1.43l-.13.08c-2,1.27-6.12,2.3-10.58,3.27-7,1.52-14,2.83-14.48,4.62"/><polyline class="cls-4" points="222.68 124.91 209.23 112.13 209.34 112.16"/><polyline class="cls-4" points="193.81 106.97 209.18 124.91 222.68 124.91"/><line class="cls-4" x1="222.75" y1="115.94" x2="195.27" y2="107.43"/><polygon class="cls-4" points="37.44 406.34 45.77 406.34 54.11 400.44 70.78 388.62 54.11 388.62 37.44 406.34"/></svg>