<svg id="Layer_1" data-name="Layer 1" xmlns="http://www.w3.org/2000/svg" viewBox="0 0 512 512"><defs><style>.cls-1,.cls-4{fill:gray;}.cls-2{fill:none;stroke:#000;}.cls-2,.cls-3,.cls-4{stroke-linecap:round;stroke-linejoin:round;stroke-width:10px;}.cls-3{fill:#f7931e;}.cls-3,.cls-4{stroke:#e6e6e6;}</style></defs><title>propeller_silver</title><path class="cls-1" d="M493.23,110.45l-220,111.72a41.11,41.11,0,0,0-41.74-1.46l-.06-.1V70.87s28-28.84,63.32-36.58a173,173,0,0,1,31.9-4.39c15.5-.44,31.43.93,46,5.15,5,1.45,9.92,3.12,14.75,5C447.31,63.37,493.23,110.45,493.23,110.45Z"/><path class="cls-1" d="M487.87,311.89c2,15.38,2.29,31.36-.42,46.26Q486,365.83,484,373.34c-17.07,62.05-59.21,112.54-59.21,112.54L288.13,274.44a41.14,41.14,0,0,0-1-37.24l1.26-.56,149-15.29s31.54,24.9,42.85,59.25A173.94,173.94,0,0,1,487.87,311.89Z"/><path class="cls-1" d="M273.18,222.17a41.36,41.36,0,0,1,14,15,41,41,0,0,1-14.94,54.74h0a41.05,41.05,0,0,1-56-13.45h0a41.07,41.07,0,0,1-2.55-38.7s0,0,0,0a41.07,41.07,0,0,1,59.48-17.62Zm-4.41,34.59a17.7,17.7,0,1,0-17.69,17.7A17.69,17.69,0,0,0,268.77,256.76Z"/><path class="cls-1" d="M272.23,291.95,287.7,442.79s-24.95,31.5-59.32,42.76a173.19,173.19,0,0,1-31.3,7.57c-15.38,2-31.36,2.25-46.26-.49q-7.68-1.41-15.18-3.49C73.62,472,23.19,429.75,23.19,429.75L234.42,294.29h0a41.09,41.09,0,0,0,37.81-2.33Z"/><path class="cls-1" d="M216.25,278.5,63.12,286.14S32.9,259.65,23.37,224.76a173.32,173.32,0,0,1-6-31.64c-1.24-15.46-.68-31.44,2.8-46.18,1.19-5.06,2.62-10.07,4.25-15C44.66,70.87,89.34,22.61,89.34,22.61L213.7,239.79s0,0,0,0a41.07,41.07,0,0,0,2.55,38.7Z"/><path class="cls-2" d="M213.7,239.79a41.05,41.05,0,1,1,58.53,52.15"/><path class="cls-2" d="M216.25,278.5a41.07,41.07,0,0,1-2.55-38.7"/><path class="cls-2" d="M272.23,291.95a41.05,41.05,0,0,1-56-13.45"/><line class="cls-2" x1="231.38" y1="70.87" x2="231.38" y2="220.61"/><polyline class="cls-2" points="273.17 222.17 273.18 222.17 493.23 110.45"/><path class="cls-2" d="M231.38,70.87s28-28.84,63.32-36.58a173,173,0,0,1,31.9-4.39c15.5-.44,31.43.93,46,5.15,5,1.45,9.92,3.12,14.75,5,60,23.32,105.9,70.4,105.9,70.4"/><line class="cls-2" x1="437.4" y1="221.35" x2="288.43" y2="236.64"/><line class="cls-2" x1="288.13" y1="274.44" x2="424.76" y2="485.88"/><path class="cls-2" d="M437.4,221.35s31.54,24.9,42.85,59.25a173.94,173.94,0,0,1,7.62,31.29c2,15.38,2.29,31.36-.42,46.26Q486,365.83,484,373.34c-17.07,62.05-59.21,112.54-59.21,112.54"/><polyline class="cls-2" points="287.7 442.79 272.23 291.95 272.23 291.94"/><line class="cls-2" x1="234.42" y1="294.29" x2="23.19" y2="429.75"/><path class="cls-2" d="M287.7,442.79s-24.95,31.5-59.32,42.76a173.19,173.19,0,0,1-31.3,7.57c-15.38,2-31.36,2.25-46.26-.49q-7.68-1.41-15.18-3.49C73.62,472,23.19,429.75,23.19,429.75"/><polyline class="cls-2" points="63.12 286.14 216.25 278.5 216.26 278.5"/><path class="cls-2" d="M213.7,239.8s0,0,0,0L89.34,22.61"/><path class="cls-2" d="M63.12,286.14S32.9,259.65,23.37,224.76a173.32,173.32,0,0,1-6-31.64c-1.24-15.46-.68-31.44,2.8-46.18,1.19-5.06,2.62-10.07,4.25-15C44.66,70.87,89.34,22.61,89.34,22.61"/><path class="cls-2" d="M268.77,256.76a17.7,17.7,0,1,1-17.69-17.69A17.69,17.69,0,0,1,268.77,256.76Z"/><line class="cls-3" x1="241.98" y1="61.62" x2="242.06" y2="216.72"/><path class="cls-2" d="M231.38,70.86s28-28.83,63.32-36.58a173.17,173.17,0,0,1,31.9-4.39c15.51-.45,31.43.93,46,5.15q7.5,2.18,14.75,5c60,23.32,105.9,70.4,105.9,70.4"/><circle class="cls-2" cx="251.08" cy="257.39" r="41.04"/><path class="cls-2" d="M437.39,221.35s31.54,24.9,42.85,59.25a173.17,173.17,0,0,1,7.62,31.28c2,15.38,2.29,31.36-.42,46.27q-1.4,7.68-3.47,15.19c-17.07,62-59.21,112.54-59.21,112.54"/><circle class="cls-2" cx="250.47" cy="256.94" r="41.04"/><path class="cls-2" d="M287.7,442.78s-24.94,31.5-59.32,42.76a173.17,173.17,0,0,1-31.3,7.57c-15.38,2-31.37,2.24-46.26-.49q-7.68-1.41-15.18-3.49C73.62,472,23.19,429.75,23.19,429.75"/><circle class="cls-2" cx="250.47" cy="257.39" r="41.04"/><path class="cls-2" d="M63.12,286.14S32.9,259.65,23.37,224.76a173.17,173.17,0,0,1-6-31.63c-1.23-15.47-.67-31.44,2.8-46.18q1.79-7.6,4.25-15C44.66,70.87,89.34,22.61,89.34,22.61"/><line class="cls-4" x1="292.21" y1="263.43" x2="431.61" y2="478.02"/><path class="cls-2" d="M436.9,221.35s31.54,24.9,42.85,59.25a173.17,173.17,0,0,1,7.62,31.28c2,15.38,2.29,31.36-.42,46.27q-1.4,7.68-3.47,15.19c-17.07,62-59.21,112.54-59.21,112.54"/><circle class="cls-2" cx="251.47" cy="256.39" r="41.04"/><line class="cls-4" x1="248.39" y1="297.95" x2="32.99" y2="436.09"/><path class="cls-2" d="M287.7,442.78s-24.94,31.5-59.32,42.76a173.17,173.17,0,0,1-31.3,7.57c-15.38,2-31.37,2.24-46.26-.49q-7.68-1.41-15.18-3.49C73.62,472,23.19,429.75,23.19,429.75"/><circle class="cls-2" cx="251.47" cy="256.76" r="41.04"/><path class="cls-4" d="M94.61,31.82S84,46.51,69.39,67.17c-7.81,11-16,24-22.21,37.26q-1.23,2.63-2.42,5.28c-2.08,4.65-4.12,9.38-6,14.13a153.26,153.26,0,0,0-7.1,21.92,150,150,0,0,0-3.28,19.57,172.81,172.81,0,0,0,0,33.94q.36,3.5.87,6.91A107.76,107.76,0,0,0,32,219.12a121.06,121.06,0,0,0,4.58,13.37,118.86,118.86,0,0,0,12.77,22.68,58.25,58.25,0,0,0,4.13,5.26c2.86,3.27,5.48,6.08,7.8,8.64a60.77,60.77,0,0,1,5.18,6.51c4.56,6.69.8,10.35.8,10.35"/><line class="cls-2" x1="64.12" y1="286.09" x2="217.26" y2="278.45"/><line class="cls-2" x1="213.69" y1="239.79" x2="89.34" y2="22.61"/></svg>