<svg id="Layer_1" data-name="Layer 1" xmlns="http://www.w3.org/2000/svg" viewBox="0 0 512 512"><defs><style>.cls-1,.cls-3{fill:#f7931e;}.cls-2{fill:none;stroke:#000;}.cls-2,.cls-3,.cls-4{stroke-linecap:round;stroke-linejoin:round;stroke-width:10px;}.cls-3,.cls-4{stroke:#e6e6e6;}.cls-4{fill:gray;}</style></defs><title>propeller_bronze</title><path class="cls-1" d="M493.46,111.16l-220,111.72a41.11,41.11,0,0,0-41.74-1.46l-.06-.1V71.58s28-28.84,63.32-36.58a173,173,0,0,1,31.9-4.39c15.5-.44,31.43.93,46,5.15,5,1.45,9.92,3.12,14.75,5C447.54,64.08,493.46,111.16,493.46,111.16Z"/><path class="cls-1" d="M488.1,312.6c2,15.38,2.29,31.36-.42,46.26q-1.41,7.68-3.48,15.19C467.13,436.1,425,486.59,425,486.59L288.36,275.15a41.14,41.14,0,0,0-1-37.24l1.26-.56,149-15.29s31.54,24.9,42.85,59.25A173.94,173.94,0,0,1,488.1,312.6Z"/><path class="cls-1" d="M273.41,222.88a41.36,41.36,0,0,1,14,15,41,41,0,0,1-14.94,54.74h0a41.05,41.05,0,0,1-56-13.45h0a41.07,41.07,0,0,1-2.55-38.7s0,0,0,0a41.07,41.07,0,0,1,59.48-17.62ZM269,257.47a17.7,17.7,0,1,0-17.69,17.7A17.69,17.69,0,0,0,269,257.47Z"/><path class="cls-1" d="M272.46,292.66,287.93,443.5S263,475,228.61,486.26a173.19,173.19,0,0,1-31.3,7.57c-15.38,2-31.36,2.25-46.26-.49q-7.68-1.41-15.18-3.49c-62-17.17-112.45-59.39-112.45-59.39L234.65,295h0a41.09,41.09,0,0,0,37.81-2.33Z"/><path class="cls-1" d="M216.48,279.21,63.35,286.85S33.13,260.36,23.6,225.47a173.32,173.32,0,0,1-6-31.64c-1.24-15.46-.68-31.44,2.8-46.18,1.19-5.06,2.62-10.07,4.25-15C44.89,71.58,89.57,23.32,89.57,23.32L213.93,240.5s0,0,0,0a41.07,41.07,0,0,0,2.55,38.7Z"/><path class="cls-2" d="M213.93,240.5a41.05,41.05,0,1,1,58.53,52.15"/><path class="cls-2" d="M216.48,279.21a41.07,41.07,0,0,1-2.55-38.7"/><path class="cls-2" d="M272.46,292.66a41.05,41.05,0,0,1-56-13.45"/><line class="cls-2" x1="231.61" y1="71.58" x2="231.61" y2="221.32"/><polyline class="cls-2" points="273.4 222.88 273.41 222.88 493.46 111.16"/><path class="cls-2" d="M231.61,71.58s28-28.84,63.32-36.58a173,173,0,0,1,31.9-4.39c15.5-.44,31.43.93,46,5.15,5,1.45,9.92,3.12,14.75,5,60,23.32,105.9,70.4,105.9,70.4"/><line class="cls-2" x1="437.63" y1="222.06" x2="288.66" y2="237.35"/><line class="cls-2" x1="288.36" y1="275.15" x2="424.99" y2="486.59"/><path class="cls-2" d="M437.63,222.06s31.54,24.9,42.85,59.25a173.94,173.94,0,0,1,7.62,31.29c2,15.38,2.29,31.36-.42,46.26q-1.41,7.68-3.48,15.19C467.13,436.1,425,486.59,425,486.59"/><polyline class="cls-2" points="287.93 443.5 272.46 292.66 272.46 292.65"/><line class="cls-2" x1="234.65" y1="295" x2="23.42" y2="430.46"/><path class="cls-2" d="M287.93,443.5S263,475,228.61,486.26a173.19,173.19,0,0,1-31.3,7.57c-15.38,2-31.36,2.25-46.26-.49q-7.68-1.41-15.18-3.49c-62-17.17-112.45-59.39-112.45-59.39"/><polyline class="cls-2" points="63.35 286.85 216.48 279.21 216.49 279.21"/><path class="cls-2" d="M213.93,240.51s0,0,0,0L89.57,23.32"/><path class="cls-2" d="M63.35,286.85S33.13,260.36,23.6,225.47a173.32,173.32,0,0,1-6-31.64c-1.24-15.46-.68-31.44,2.8-46.18,1.19-5.06,2.62-10.07,4.25-15C44.89,71.58,89.57,23.32,89.57,23.32"/><path class="cls-2" d="M269,257.47a17.7,17.7,0,1,1-17.69-17.69A17.69,17.69,0,0,1,269,257.47Z"/><line class="cls-3" x1="242.22" y1="62.33" x2="242.29" y2="217.43"/><path class="cls-2" d="M231.61,71.58s28-28.83,63.32-36.58a173.17,173.17,0,0,1,31.9-4.39c15.51-.45,31.43.93,46,5.15q7.5,2.18,14.75,5c60,23.32,105.9,70.4,105.9,70.4"/><circle class="cls-2" cx="251.31" cy="258.1" r="41.04"/><path class="cls-2" d="M437.63,222.06s31.54,24.9,42.85,59.25a173.17,173.17,0,0,1,7.62,31.28c2,15.38,2.29,31.36-.42,46.27q-1.4,7.68-3.47,15.19C467.13,436.1,425,486.59,425,486.59"/><circle class="cls-2" cx="250.71" cy="257.65" r="41.04"/><path class="cls-2" d="M287.93,443.5S263,475,228.61,486.26a173.17,173.17,0,0,1-31.3,7.57c-15.38,2-31.37,2.24-46.26-.49q-7.68-1.41-15.18-3.49c-62-17.17-112.45-59.38-112.45-59.38"/><circle class="cls-2" cx="250.71" cy="258.1" r="41.04"/><path class="cls-2" d="M63.35,286.85S33.13,260.36,23.6,225.47a173.17,173.17,0,0,1-6-31.63c-1.23-15.47-.67-31.44,2.8-46.18q1.79-7.6,4.25-15C44.89,71.58,89.57,23.32,89.57,23.32"/><line class="cls-4" x1="292.44" y1="264.14" x2="431.84" y2="478.73"/><path class="cls-2" d="M437.14,222.06S468.68,247,480,281.31a173.17,173.17,0,0,1,7.62,31.28c2,15.38,2.29,31.36-.42,46.27q-1.4,7.68-3.47,15.19c-17.07,62-59.21,112.54-59.21,112.54"/><circle class="cls-2" cx="251.7" cy="257.1" r="41.04"/><line class="cls-4" x1="248.62" y1="298.66" x2="33.22" y2="436.8"/><path class="cls-2" d="M287.93,443.5S263,475,228.61,486.26a173.17,173.17,0,0,1-31.3,7.57c-15.38,2-31.37,2.24-46.26-.49q-7.68-1.41-15.18-3.49c-62-17.17-112.45-59.38-112.45-59.38"/><circle class="cls-2" cx="251.7" cy="257.47" r="41.04"/><path class="cls-3" d="M94.84,32.53S84.25,47.22,69.62,67.88c-7.81,11-16,24-22.21,37.26q-1.23,2.63-2.42,5.28c-2.08,4.65-4.12,9.38-6,14.13a153.26,153.26,0,0,0-7.1,21.92A150,150,0,0,0,28.61,166a172.81,172.81,0,0,0,0,33.94q.36,3.5.87,6.91a107.76,107.76,0,0,0,2.76,12.93,121.06,121.06,0,0,0,4.58,13.37A118.86,118.86,0,0,0,49.6,255.88a58.25,58.25,0,0,0,4.13,5.26c2.86,3.27,5.48,6.08,7.8,8.64a60.77,60.77,0,0,1,5.18,6.51c4.56,6.69.8,10.35.8,10.35"/><line class="cls-2" x1="64.35" y1="286.8" x2="217.49" y2="279.16"/><line class="cls-2" x1="213.93" y1="240.51" x2="89.57" y2="23.32"/></svg>