<svg id="Layer_1" data-name="Layer 1" xmlns="http://www.w3.org/2000/svg" viewBox="0 0 512 512"><defs><style>.cls-1,.cls-5{fill:#f7931e;}.cls-2,.cls-3,.cls-4{fill:none;}.cls-2,.cls-3,.cls-4,.cls-5{stroke:#000;}.cls-2{stroke-miterlimit:10;}.cls-2,.cls-3,.cls-5{stroke-width:6px;}.cls-3,.cls-4,.cls-5{stroke-linecap:round;stroke-linejoin:round;}.cls-4{stroke-width:0.5px;}</style></defs><title>rope</title><path class="cls-1" d="M16,423c-1-3-3-8,1-6,41,15,96,13,117-31l3-9c3-13-1-25-2-38-5-40,30-72,69-79,20-3,39-1,58,5,5,2,8,5,12,8a20.92,20.92,0,0,1,4,6v3a3.49,3.49,0,0,1-2,1c-22-7-44-14-68-8-6,2-11,4-17,6-3,1-6,3-9,5a55,55,0,0,0-9,7c-3,4-7,7-10,12-2,4-5,8-6,13-1,3-2,6-2,9,0,4-1,9,0,13,12,39-10,79-47,93a268.08,268.08,0,0,1-27,7c-18,2-34-1-51-6-4-2-8-6-12-8-1-1-1-2-2-3Z"/><path class="cls-2" d="M16,423c-1-3-3-8,1-6,41,15,96,13,117-31l3-9c3-13-1-25-2-38-5-40,30-72,69-79,20-3,39-1,58,5,5,2,8,5,12,8a20.92,20.92,0,0,1,4,6v3a3.49,3.49,0,0,1-2,1c-22-7-44-14-68-8-6,2-11,4-17,6-3,1-6,3-9,5a55,55,0,0,0-9,7c-3,4-7,7-10,12-2,4-5,8-6,13-1,3-2,6-2,9,0,4-1,9,0,13,12,39-10,79-47,93a268.08,268.08,0,0,1-27,7c-18,2-34-1-51-6-4-2-8-6-12-8-1-1-1-2-2-3Z"/><path class="cls-1" d="M235,480c-20,0-33-20-40-37a73.66,73.66,0,0,1-4-14c-1-5-1-9-2-14,0-4,0-9,1-13,2-6,3-12,6-18,6-10,14-18,25-23l18-6c22-10,26-37,19-58-2-6-6-11-9-17-5-9-14-14-20-22,9-6,20,2,26,8,9,10,16,21,20,34,1,5,2,9,3,14,1,7,1,13-1,20-2,8-4,15-9,22a153.8,153.8,0,0,1-12,13c-3,2-6,4-9,5-13,5-28,8-35,22-1,3-3,6-4,9-1,4-2,7-2,11-1,25,15,44,32,61q0,1.5-3,3Z"/><path class="cls-2" d="M235,480c-20,0-33-20-40-37a73.66,73.66,0,0,1-4-14c-1-5-1-9-2-14,0-4,0-9,1-13,2-6,3-12,6-18,6-10,14-18,25-23l18-6c22-10,26-37,19-58-2-6-6-11-9-17-5-9-14-14-20-22,9-6,20,2,26,8,9,10,16,21,20,34,1,5,2,9,3,14,1,7,1,13-1,20-2,8-4,15-9,22a153.8,153.8,0,0,1-12,13c-3,2-6,4-9,5-13,5-28,8-35,22-1,3-3,6-4,9-1,4-2,7-2,11-1,25,15,44,32,61q0,1.5-3,3Z"/><path class="cls-1" d="M110.58,74.74c.85,1-.89,3.83-3.9,6.3s-6.13,3.65-7,2.64.89-3.83,3.9-6.3S109.73,73.73,110.58,74.74Z"/><path class="cls-1" d="M310.16,225.46c4.28,4.12-6.34,21.73-23.73,39.34s-34.94,28.55-39.22,24.43,6.35-21.74,23.74-39.35S305.88,221.34,310.16,225.46Z"/><path class="cls-1" d="M292.31,212.94c4.28,4.12-6.35,21.74-23.73,39.36s-34.94,28.54-39.21,24.43c-3-2.86,1.25-12.24,9.93-23.61,3.41-2.94,6.92-6.21,10.42-9.76a168.28,168.28,0,0,0,13.76-15.71C277,216,288.89,209.65,292.31,212.94Z"/><path class="cls-1" d="M273.46,204c3,2.87-1.26,12.26-10,23.63-.72.62-1.44,1.25-2.17,1.9,3.79-5.35,5.26-11.15,6.57-16.54a64.45,64.45,0,0,0,1.54-9.72C271.22,203,272.6,203.18,273.46,204Z"/><path class="cls-1" d="M176.78,50.07c62.58,17.22,96.72,106.24,92.64,153.21-2.54.43-5.89,1.92-9.79,4.27,7.14-38-19.82-102-64.72-129.14a97.79,97.79,0,0,0-35.53-18.78,81.54,81.54,0,0,0-42.09-.41C135.05,50.49,155.6,44.25,176.78,50.07Z"/><path class="cls-1" d="M194.91,78.4C235.66,111.46,258,172,251.78,212.92A151.87,151.87,0,0,0,240,222.83a57.69,57.69,0,0,0,2-7.8c8.87-42.93-27-121.31-83.5-138.81a70.33,70.33,0,0,0-36.71-1.59,70,70,0,0,1,54.11-4.84A85.53,85.53,0,0,1,194.91,78.4Z"/><path class="cls-1" d="M269.42,203.28a64.45,64.45,0,0,1-1.54,9.72c-1.31,5.39-2.78,11.19-6.57,16.54-2.7,2.42-5.46,5-8.23,7.83l-.39.39A52.67,52.67,0,0,1,234,245.05a35.39,35.39,0,0,0,6.38-4.91A31.4,31.4,0,0,0,247.65,229a25.36,25.36,0,0,0,3.83-3.06c5.37-5.25,6.76-11.55,7.95-17.32.07-.35.15-.7.2-1C263.53,205.2,266.89,203.71,269.42,203.28Z"/><path class="cls-1" d="M259.63,207.55c-.05.35-.13.7-.2,1-1.19,5.77-2.57,12.07-7.95,17.32a25.36,25.36,0,0,1-3.83,3.06,71.19,71.19,0,0,0,2.84-9.54q.76-3.17,1.28-6.52A92.56,92.56,0,0,1,259.63,207.55Z"/><path class="cls-1" d="M159.38,59.62A97.79,97.79,0,0,1,194.91,78.4a85.53,85.53,0,0,0-19-8.62,70,70,0,0,0-54.11,4.84h0C80.48,84,52.41,130.15,66,167.56A62.15,62.15,0,0,0,71,178l-.61.36a68.16,68.16,0,0,1-6.27-13.66c-12.45-38.25,13.39-86,53.21-105.54A81.54,81.54,0,0,1,159.38,59.62Z"/><path class="cls-1" d="M261.32,229.54c.73-.65,1.45-1.28,2.17-1.9a168.28,168.28,0,0,1-13.76,15.71c-3.5,3.55-7,6.83-10.42,9.76a168.1,168.1,0,0,1,13.4-15.34,34.7,34.7,0,0,0,5.07-4.07A30.23,30.23,0,0,0,261.32,229.54Z"/><path class="cls-1" d="M251.78,212.92q-.52,3.35-1.28,6.52a71.19,71.19,0,0,1-2.84,9.54c-4.45,2.94-10.08,4.87-16.59,5.88a23.82,23.82,0,0,0,9-12A151.87,151.87,0,0,1,251.78,212.92Z"/><path class="cls-1" d="M261.32,229.54a30.23,30.23,0,0,1-3.55,4.16,34.7,34.7,0,0,1-5.07,4.07l.39-.39C255.85,234.59,258.61,232,261.32,229.54Z"/><path class="cls-1" d="M231.06,234.85c6.51-1,12.14-2.94,16.59-5.88a31.4,31.4,0,0,1-7.29,11.17,35.39,35.39,0,0,1-6.38,4.91,97.29,97.29,0,0,1-15.5,1.77c2-2.81,4.36-5.76,6.94-8.8h0A31,31,0,0,0,231.06,234.85Z"/><path class="cls-1" d="M234,245.05a52.67,52.67,0,0,0,18.72-7.28,168.1,168.1,0,0,0-13.4,15.34c-13.5,11.64-25.38,18-28.79,14.67-2.26-2.18-.35-8.14,4.54-15.88A57.6,57.6,0,0,0,234,245.05Z"/><path class="cls-1" d="M240,222.83a23.82,23.82,0,0,1-9,12c-1.06.17-2.14.3-3.24.42,2-2.27,4.15-4.56,6.42-6.84C236.18,226.47,238.11,224.61,240,222.83Z"/><path class="cls-1" d="M227.83,235.28c1.1-.12,2.18-.25,3.24-.42a31,31,0,0,1-5.62,3.16C226.21,237.1,227,236.19,227.83,235.28Z"/><path class="cls-1" d="M234,245.05A57.6,57.6,0,0,1,215,251.9q1.53-2.43,3.44-5.08A97.29,97.29,0,0,0,234,245.05Z"/><path class="cls-1" d="M227.83,235.28c-.82.91-1.61,1.82-2.38,2.73h0c-36.66,16.29-127-13.58-154.47-60a62.15,62.15,0,0,1-5-10.49C52.41,130.15,80.48,84,121.81,74.63c-31.33,16.42-50,54.62-38.45,86.49C100.2,207.64,182.26,240.3,227.83,235.28Z"/><path class="cls-1" d="M117.29,59.21C77.47,78.77,51.63,126.5,64.07,164.75a68.16,68.16,0,0,0,6.27,13.66c25.45,42.68,98.63,70.41,148.14,68.41q-1.91,2.64-3.44,5.08C162,262.1,64.53,226,46.68,171.2,32.48,127.6,68,71.73,117.29,59.21Z"/><path class="cls-1" d="M225.43,238c-2.59,3-4.92,6-6.94,8.8-49.52,2-122.7-25.73-148.14-68.41L71,178C98.44,224.45,188.77,254.31,225.43,238Z"/><path class="cls-2" d="M215,251.9C162,262.1,64.53,226,46.68,171.2,32.48,127.6,68,71.73,117.29,59.21"/><path class="cls-2" d="M239.3,253.11c-8.69,11.37-12.9,20.75-9.93,23.61,4.27,4.11,21.83-6.82,39.21-24.43s28-35.23,23.73-39.36c-3.42-3.29-15.31,3-28.83,14.7"/><path class="cls-2" d="M247.21,289.24c4.28,4.12,21.84-6.82,39.22-24.43s28-35.22,23.73-39.34-21.83,6.82-39.21,24.43S242.94,285.12,247.21,289.24Z"/><path class="cls-2" d="M269.42,203.28c4.07-47-30.06-136-92.64-153.21-21.18-5.82-41.73.41-59.49,9.14C77.47,78.77,51.63,126.5,64.07,164.75a68.16,68.16,0,0,0,6.27,13.66c25.45,42.68,98.63,70.41,148.14,68.41"/><path class="cls-2" d="M227.83,235.28c-45.57,5-127.63-27.64-144.47-74.15-11.54-31.87,7.12-70.08,38.45-86.49h0"/><path class="cls-2" d="M240,222.83a57.69,57.69,0,0,0,2-7.8c8.87-42.93-27-121.31-83.5-138.81a70.33,70.33,0,0,0-36.71-1.59,70,70,0,0,1,54.11-4.84,85.53,85.53,0,0,1,19,8.62"/><path class="cls-2" d="M251.78,212.92C258,172,235.66,111.46,194.91,78.4c44.9,27.19,71.86,91.1,64.72,129.14"/><path class="cls-2" d="M225.43,238c-2.59,3-4.92,6-6.94,8.8q-1.91,2.64-3.44,5.08c-4.88,7.74-6.8,13.7-4.54,15.88,3.42,3.29,15.3-3,28.79-14.67,3.41-2.94,6.92-6.21,10.42-9.76a168.28,168.28,0,0,0,13.76-15.71c8.71-11.37,12.95-20.76,10-23.63-.85-.82-2.24-1-4-.73-2.54.43-5.89,1.92-9.79,4.27a92.56,92.56,0,0,0-7.85,5.37A151.87,151.87,0,0,0,240,222.83c-1.92,1.77-3.85,3.64-5.78,5.6-2.26,2.29-4.41,4.58-6.42,6.84-.82.91-1.61,1.82-2.38,2.73"/><path class="cls-1" d="M267.53,189.06c7.83-37.9-19.21-102.76-64.53-130.2C192.35,50.22,180.45,40.55,167.47,37a81.54,81.54,0,0,0-42.09-.41c17.76-8.73,38.31-11.84,59.49-6C252.11,49,286.49,150.38,276,193.46c-1.66,6.84-3.58,14.31-10.11,20.71-5.76,5.63-14,9.35-23.78,11.35a35.39,35.39,0,0,0,6.38-4.91,31.4,31.4,0,0,0,7.29-11.17,25.36,25.36,0,0,0,3.83-3.06C265,201.13,266.34,194.83,267.53,189.06Z"/><path class="cls-1" d="M203,58.86c43,34.86,65.53,100.29,55.59,141a71.19,71.19,0,0,1-2.84,9.54c-4.45,2.94-10.08,4.87-16.59,5.88a24.45,24.45,0,0,0,3-2.5c5.37-5.25,6.76-11.55,8-17.32,8.87-42.93-27-121.32-83.51-138.82-12.84-4-25.28-7.29-36.7-4.7A70,70,0,0,1,184,47.13C190.65,49.18,197,55.21,203,58.86Z"/><path class="cls-1" d="M203,58.86c-6-3.65-12.35-9.67-19-11.73A70,70,0,0,0,129.93,52h0C88.57,61.36,60.5,110.6,74,148a62.15,62.15,0,0,0,5,10.49l-.61.36a68.16,68.16,0,0,1-6.27-13.66C59.72,107,85.56,56.12,125.38,36.56a81.54,81.54,0,0,1,42.09.41C180.45,40.55,192.35,50.22,203,58.86Z"/><path class="cls-1" d="M239.16,215.32c6.51-1,12.14-2.94,16.59-5.88a31.4,31.4,0,0,1-7.29,11.17,35.39,35.39,0,0,1-6.38,4.91c-48.21,9.74-135.39-19.24-163.65-66.65l.61-.36C108.07,207.5,207.2,238.06,239.16,215.32Z"/><path class="cls-1" d="M242.08,225.52c-43.83,26.56-167-11.54-187.32-73.86C40.57,108.06,76.12,49.08,125.38,36.56,85.56,56.12,59.72,107,72.16,145.21a68.16,68.16,0,0,0,6.27,13.66C106.69,206.27,193.87,235.25,242.08,225.52Z"/><path class="cls-1" d="M239.16,215.32C207.2,238.06,108.07,207.5,79,158.5A62.15,62.15,0,0,1,74,148C60.5,110.6,88.57,61.36,129.91,52c-31.33,16.42-50,57.73-38.46,89.6C108.7,189.21,194.36,222.33,239.16,215.32Z"/><path class="cls-2" d="M242.08,225.52c-43.83,26.56-167-11.54-187.32-73.86C40.57,108.06,76.12,49.08,125.38,36.56"/><path class="cls-2" d="M242.08,225.52c9.82-2,18-5.71,23.78-11.35,6.54-6.4,8.46-13.87,10.11-20.71C286.49,150.38,252.11,49,184.88,30.54c-21.18-5.82-41.73-2.7-59.49,6C85.56,56.12,59.72,107,72.16,145.21a68.16,68.16,0,0,0,6.27,13.66C106.69,206.27,193.87,235.25,242.08,225.52Z"/><path class="cls-2" d="M239.16,215.32c-44.8,7-130.46-26.11-147.71-73.74C79.9,109.71,98.58,68.4,129.91,52h0"/><path class="cls-2" d="M239.16,215.32a24.45,24.45,0,0,0,3-2.5c5.37-5.25,6.76-11.55,8-17.32,8.87-42.93-27-121.32-83.51-138.82-12.84-4-25.28-7.29-36.7-4.7A70,70,0,0,1,184,47.13c6.62,2.05,12.95,8.08,19,11.73"/><path class="cls-2" d="M203,58.86c45.32,27.44,72.36,92.3,64.53,130.2-1.19,5.77-2.57,12.07-7.95,17.32a25.36,25.36,0,0,1-3.83,3.06"/><path class="cls-1" d="M315.23,223.89c48.23-19.79,161.69,20.5,181.09,80.08,11.78,36.21-10.72,80.87-46.9,102.15,27.38-23.4,42.53-60.72,32.41-91.8-4.48-13.75-14-26.48-26.51-37.68l-.1-.09c-28.09-26.38-74.33-44.81-108.7-46.53a119.25,119.25,0,0,0-31.84.41C315.74,227.55,316,225.29,315.23,223.89Z"/><path class="cls-1" d="M455.31,276.65c12.54,11.2,22,23.93,26.51,37.68,10.12,31.08-5,68.4-32.41,91.8A91,91,0,0,1,425.71,416h0a81.54,81.54,0,0,1-42.09-.41,91.92,91.92,0,0,1-23.67-10.37,79.14,79.14,0,0,0,10,4,69.14,69.14,0,0,0,36.68,1.76h0A74.67,74.67,0,0,0,440,393.33c30.46-16.82,48.38-54.33,37-85.72C473,296.54,465.32,286.09,455.31,276.65Z"/><path class="cls-1" d="M455.31,276.65c10,9.44,17.72,19.89,21.73,31,11.37,31.39-6.55,68.9-37,85.72C461.28,374.17,472,344,462.54,318a70.69,70.69,0,0,0-11.1-19.42.91.91,0,0,1-.1-.13c-18.19-26-55.33-46.85-90-56.42-1.92-.54-3.85-1-5.75-1.49-.34-.1-.69-.18-1-.25-1.54-.37-3.07-.71-4.59-1-.2-.06-.4-.09-.59-.13l-1.26-.25c-.64-.13-1.27-.25-1.9-.35-1-.19-1.93-.35-2.88-.5l-.4-.07c-3.8-.62-7.52-1.06-11.11-1.31h-.05c-3.07-.24-6.06-.33-8.92-.29a.69.69,0,0,0-.19,0,75.25,75.25,0,0,0-10.73.85c8-5.7,20.27-7.88,34.57-7.17,36.79,4,80.45,21.37,108.7,46.53Z"/><path class="cls-1" d="M459.63,314a67.11,67.11,0,0,0-8.19-15.49A70.69,70.69,0,0,1,462.54,318c9.41,26-1.26,56.21-22.52,75.37a71.68,71.68,0,0,1-18.07,7l.67-.58a77.36,77.36,0,0,0,13-9.08l.16-.14q2.3-2,4.42-4.12c.88-.88,1.75-1.79,2.6-2.72a80.16,80.16,0,0,0,7.27-9.28l.5-.74c.43-.66.85-1.32,1.26-2l.44-.71c.19-.32.38-.64.57-1l.18-.31c.34-.57.66-1.15,1-1.73s.62-1.14.9-1.71.56-1.09.82-1.65c0,0,0-.05,0-.08a71.26,71.26,0,0,0,2.84-6.66l.14-.39c.23-.6.45-1.21.65-1.83.41-1.2.79-2.43,1.12-3.65C464,339.47,464.06,326.29,459.63,314Z"/><path class="cls-1" d="M451.44,298.54A67.11,67.11,0,0,1,459.63,314c4.43,12.25,4.41,25.43.92,38-.34,1.22-.71,2.44-1.12,3.65-.21.61-.43,1.22-.65,1.83l-.14.39c-.84,2.26-1.78,4.47-2.84,6.66,0,0,0,.05,0,.08-.27.55-.54,1.1-.82,1.65L454,368c-.33.57-.65,1.15-1,1.73l-.18.31c-.19.32-.38.64-.57,1l-.44.71c-.41.67-.83,1.33-1.26,2l-.5.74a83.52,83.52,0,0,1-7.27,9.28c-.85.92-1.72,1.83-2.6,2.72q-2.14,2.15-4.42,4.12l-.16.14a78.51,78.51,0,0,1-13,9.05c21.24-19.17,31.9-49.36,22.49-75.34-16.34-45.14-94.13-80-140.36-77.59,1.08-1.41,2.09-2.79,3-4.12,36.48-10.85,112,15.79,143.54,55.72A.91.91,0,0,0,451.44,298.54Z"/><path class="cls-1" d="M311.94,237.2a78.91,78.91,0,0,1,10.74-.86.69.69,0,0,1,.19,0c2.87,0,5.86.06,8.92.29h.05c3.6.26,7.32.7,11.11,1.31l.4.07c1,.16,1.91.32,2.88.5.63.11,1.26.22,1.9.35l1.26.25c.19,0,.39.07.59.13,1.52.31,3.05.65,4.59,1,.34.07.69.15,1,.25q2.87.7,5.75,1.49c34.65,9.57,71.79,30.46,90,56.42-31.5-39.93-107.06-66.57-143.54-55.72,1.27-1.82,2.4-3.57,3.38-5.21l.74-.28Z"/><path class="cls-1" d="M346.51,230c34.37,1.73,80.61,20.15,108.7,46.53C427,251.4,383.3,234,346.51,230Z"/><path class="cls-1" d="M459.43,355.64c.41-1.21.78-2.43,1.12-3.65C460.22,353.21,459.84,354.44,459.43,355.64Z"/><path class="cls-1" d="M458.78,357.47c.22-.61.44-1.22.65-1.83C459.23,356.26,459,356.87,458.78,357.47Z"/><path class="cls-1" d="M455.8,364.52c1.06-2.19,2-4.4,2.84-6.66A71.26,71.26,0,0,1,455.8,364.52Z"/><path class="cls-1" d="M454.95,366.25c.27-.56.55-1.1.82-1.65C455.51,365.16,455.23,365.71,454.95,366.25Z"/><path class="cls-1" d="M454,368l.9-1.71Q454.52,367.12,454,368Z"/><path class="cls-1" d="M453.06,369.7c.33-.58.65-1.16,1-1.73C453.72,368.55,453.4,369.13,453.06,369.7Z"/><path class="cls-1" d="M452.31,371c.19-.33.38-.65.57-1C452.69,370.34,452.5,370.66,452.31,371Z"/><path class="cls-1" d="M450.61,373.68c.43-.67.85-1.33,1.26-2C451.46,372.37,451,373,450.61,373.68Z"/><path class="cls-1" d="M442.84,383.7a83.52,83.52,0,0,0,7.27-9.28A80.16,80.16,0,0,1,442.84,383.7Z"/><path class="cls-1" d="M440.24,386.42c.88-.89,1.75-1.8,2.6-2.72C442,384.63,441.13,385.54,440.24,386.42Z"/><path class="cls-1" d="M355.61,240.5c1.91.45,3.83.94,5.75,1.49Q358.47,241.2,355.61,240.5Z"/><path class="cls-1" d="M425.71,416a91,91,0,0,0,23.71-9.83,95.33,95.33,0,0,1-38.2,20.19,81.54,81.54,0,0,1-42.09-.41,97.79,97.79,0,0,1-35.53-18.78,139.45,139.45,0,0,1-25.11-27C323.7,400,343.29,415.67,366.21,422,387.39,427.81,407.94,424.69,425.71,416Z"/><path class="cls-1" d="M350,239.24c1.52.3,3,.64,4.59,1C353,239.89,351.51,239.55,350,239.24Z"/><path class="cls-1" d="M435.82,390.55q2.29-2,4.42-4.12Q438.11,388.58,435.82,390.55Z"/><path class="cls-1" d="M348.13,238.86l1.26.25Z"/><path class="cls-1" d="M343.36,238c1,.15,1.91.31,2.88.5C345.27,238.33,344.31,238.17,343.36,238Z"/><path class="cls-1" d="M331.84,236.64c3.6.25,7.31.69,11.11,1.31C339.16,237.34,335.45,236.9,331.84,236.64Z"/><path class="cls-1" d="M440,393.33a74.67,74.67,0,0,1-33.34,17.56A77.37,77.37,0,0,0,422,400.35,71.68,71.68,0,0,0,440,393.33Z"/><path class="cls-1" d="M422.65,399.74a78.51,78.51,0,0,0,13-9.05,77.36,77.36,0,0,1-13,9.08Z"/><path class="cls-1" d="M422.65,399.74l0,0-1.44.77.77-.19a77.37,77.37,0,0,1-15.27,10.54h0A69.14,69.14,0,0,1,370,409.14a79.14,79.14,0,0,1-10-4,109.34,109.34,0,0,1-11.87-8.41c-39.57-32.09-61.82-92.73-57.34-134l.25-.26c2.6-2.63,5-5.26,7.31-7.85l3,0c-8.87,42.93,26.76,126.12,83.18,144.12a69.19,69.19,0,0,0,36.68,1.76h0Z"/><path class="cls-1" d="M422.62,399.77l-.67.58-.77.19Z"/><path class="cls-1" d="M322.87,236.34c2.86,0,5.85.05,8.92.29C328.73,236.4,325.74,236.31,322.87,236.34Z"/><path class="cls-1" d="M425.7,416h0c-17.76,8.73-38.31,11.84-59.49,6-22.93-6.31-42.51-22-57.73-41.88-22.79-31.73-34.89-72.85-32.5-104,3.36-2.67,6.87-5.72,10.44-9.1-6.93,40.78,23.79,114.57,73.52,138.14a91.92,91.92,0,0,0,23.67,10.37A81.54,81.54,0,0,0,425.7,416Z"/><path class="cls-1" d="M314.67,230.43a119.25,119.25,0,0,1,31.84-.41c-14.3-.71-26.54,1.46-34.57,7.17h0l-.74.28A43.58,43.58,0,0,0,314.67,230.43Z"/><path class="cls-1" d="M311.95,237.19a75.25,75.25,0,0,1,10.73-.85,78.91,78.91,0,0,0-10.74.86Z"/><path class="cls-1" d="M369.12,425.9a81.54,81.54,0,0,0,42.09.41c-17.76,8.73-38.31,11.84-59.49,6-58.37-16.06-95.06-92.86-93.37-145.31,3.81-1.34,8.84-4.29,14.45-8.45-.46,31.56,12.61,71.38,35.68,101.53a139.45,139.45,0,0,0,25.11,27A97.79,97.79,0,0,0,369.12,425.9Z"/><path class="cls-1" d="M272.8,278.57c1-.78,2.1-1.59,3.18-2.45-2.39,31.13,9.71,72.25,32.5,104C285.41,350,272.34,310.13,272.8,278.57Z"/><path class="cls-3" d="M333.59,407.12a97.79,97.79,0,0,0,35.53,18.78,81.54,81.54,0,0,0,42.09.41"/><path class="cls-3" d="M455.31,276.65c12.54,11.2,22,23.93,26.51,37.68,10.12,31.08-5,68.4-32.41,91.8a95.33,95.33,0,0,1-38.2,20.19"/><path class="cls-3" d="M294.51,237.36a56.44,56.44,0,0,1,20.16-6.93,119.25,119.25,0,0,1,31.84-.41"/><path class="cls-3" d="M440,393.33a74.67,74.67,0,0,1-33.34,17.56"/><path class="cls-3" d="M297.43,247.56a35,35,0,0,1,10.36-4.87c36.48-10.85,112,15.79,143.54,55.72"/><path class="cls-3" d="M260.61,269.42A86.06,86.06,0,0,0,258.34,287c-1.68,52.46,35,129.25,93.37,145.31,21.18,5.82,41.73,2.7,59.49-6"/><path class="cls-3" d="M422.62,399.77l0,0c21.24-19.17,31.9-49.36,22.49-75.34-16.34-45.14-94.13-80-140.36-77.59a72.32,72.32,0,0,0-7.35.75"/><path class="cls-3" d="M406.67,410.91h0A77.37,77.37,0,0,0,422,400.35"/><path class="cls-3" d="M333.59,407.12a139.45,139.45,0,0,1-25.11-27c-22.79-31.73-34.89-72.85-32.5-104A81.21,81.21,0,0,1,278,263"/><path class="cls-3" d="M286.8,265c-.13.66-.26,1.32-.38,2-6.93,40.78,23.79,114.57,73.52,138.14a79.14,79.14,0,0,0,10,4,69.14,69.14,0,0,0,36.68,1.76"/><path class="cls-4" d="M315.23,223.89a2.59,2.59,0,0,0-.51-.69c-4.28-4.12-21.83,6.82-39.21,24.43s-28,35.23-23.74,39.35c1.22,1.17,3.51,1.12,6.57,0,3.81-1.34,8.84-4.29,14.45-8.45,1-.78,2.1-1.59,3.18-2.45,3.36-2.67,6.87-5.72,10.44-9.1,1.43-1.35,2.87-2.77,4.32-4.22l.25-.26c2.6-2.63,5-5.26,7.31-7.85s4.54-5.34,6.47-7.89c1.08-1.41,2.09-2.79,3-4.12,1.27-1.82,2.4-3.57,3.38-5.21a43.58,43.58,0,0,0,3.49-7C315.74,227.55,316,225.29,315.23,223.89Z"/><path class="cls-3" d="M348.08,396.76a109.34,109.34,0,0,0,11.87,8.41,91.92,91.92,0,0,0,23.67,10.37,81.54,81.54,0,0,0,42.09.41"/><path class="cls-3" d="M309,227a45.11,45.11,0,0,1,6.22-3.11c48.23-19.79,161.69,20.5,181.09,80.08,11.78,36.21-10.72,80.87-46.9,102.15A91,91,0,0,1,425.71,416"/><path class="cls-3" d="M322.68,236.34a78.91,78.91,0,0,0-10.74.86"/><path class="cls-3" d="M331.79,236.63c-3.07-.23-6.05-.32-8.92-.29"/><path class="cls-3" d="M343,237.95c-3.8-.61-7.51-1-11.11-1.31"/><path class="cls-3" d="M346.24,238.51c-1-.18-1.92-.34-2.88-.5"/><path class="cls-3" d="M349.4,239.12l-1.26-.25"/><path class="cls-3" d="M354.58,240.25c-1.54-.36-3.07-.7-4.59-1"/><path class="cls-3" d="M361.36,242q-2.89-.79-5.75-1.49"/><path class="cls-3" d="M458.78,357.47c.23-.6.45-1.21.65-1.83.41-1.2.79-2.43,1.12-3.65"/><path class="cls-3" d="M455.8,364.52a71.26,71.26,0,0,0,2.84-6.66"/><path class="cls-3" d="M453.06,369.7c.34-.57.66-1.15,1-1.73s.62-1.14.9-1.71.56-1.09.82-1.65"/><path class="cls-3" d="M452.31,371c.19-.32.38-.64.57-1"/><path class="cls-3" d="M450.61,373.68c.43-.66.85-1.32,1.26-2"/><path class="cls-3" d="M435.82,390.55q2.3-2,4.42-4.12c.88-.88,1.75-1.79,2.6-2.72a80.16,80.16,0,0,0,7.27-9.28"/><path class="cls-3" d="M311.95,237.19c8-5.7,20.27-7.88,34.57-7.17,34.37,1.73,80.61,20.15,108.7,46.53l.1.09c10,9.44,17.72,19.89,21.73,31,11.37,31.39-6.55,68.9-37,85.72a71.68,71.68,0,0,1-18.07,7l-.77.19,1.44-.77a77.36,77.36,0,0,0,13-9.08"/><line class="cls-3" x1="311.94" y1="237.2" x2="311.93" y2="237.2"/><path class="cls-3" d="M275.11,259.06a87.46,87.46,0,0,0-2.31,19.51c-.46,31.56,12.61,71.38,35.68,101.53C323.7,400,343.29,415.67,366.21,422c21.18,5.82,41.73,2.7,59.49-6"/><path class="cls-3" d="M421.16,400.54h0l1.48-.79a78.51,78.51,0,0,0,13-9.05l.16-.14q2.29-2,4.42-4.12c.88-.89,1.75-1.8,2.6-2.72a83.52,83.52,0,0,0,7.27-9.28l.5-.74c.43-.67.85-1.33,1.26-2l.44-.71c.19-.33.38-.65.57-1l.18-.31c.33-.58.65-1.16,1-1.73l.9-1.71c.27-.56.55-1.1.82-1.65,0,0,0-.05,0-.08,1.06-2.19,2-4.4,2.84-6.66l.14-.39c.22-.61.44-1.22.65-1.83.41-1.21.78-2.43,1.12-3.65,3.49-12.52,3.51-25.7-.92-38a67.11,67.11,0,0,0-8.19-15.49.91.91,0,0,1-.1-.13c-18.19-26-55.33-46.85-90-56.42-1.92-.54-3.85-1-5.75-1.49-.34-.1-.69-.18-1-.25-1.54-.37-3.07-.71-4.59-1-.2-.06-.4-.09-.59-.13l-1.26-.25c-.64-.13-1.27-.25-1.9-.35-1-.19-1.93-.35-2.88-.5l-.4-.07c-3.8-.62-7.52-1.06-11.11-1.31h-.05c-3.07-.24-6.06-.33-8.92-.29a.69.69,0,0,0-.19,0,75.25,75.25,0,0,0-10.73.85h0"/><path class="cls-3" d="M348.08,396.76c-39.57-32.09-61.82-92.73-57.34-134a77.86,77.86,0,0,1,1.75-10.19"/><path class="cls-3" d="M301.29,254.66c-8.87,42.93,26.76,126.12,83.18,144.12a69.19,69.19,0,0,0,36.68,1.76"/><path class="cls-5" d="M251.52,288c4.28,4.12,21.83-6.82,39.21-24.43s28-35.23,23.73-39.35-21.83,6.82-39.21,24.43S247.24,283.93,251.52,288Z"/><path class="cls-1" d="M119.86,49c1.19,1.18-1.7,5.95-6.46,10.65s-9.59,7.56-10.78,6.39,1.7-5.95,6.46-10.65S118.67,47.8,119.86,49Z"/><ellipse class="cls-1" cx="259.25" cy="184.58" rx="4.98" ry="18.43"/><path class="cls-5" d="M212.61,263.32c4.28,4.12,21.83-6.82,39.21-24.43s28-35.23,23.73-39.35-21.83,6.82-39.21,24.43S208.33,259.21,212.61,263.32Z"/></svg>