<svg id="Layer_1" data-name="Layer 1" xmlns="http://www.w3.org/2000/svg" viewBox="0 0 512 512"><defs><style>.cls-1,.cls-8{fill:#999;}.cls-2{fill:gray;}.cls-3{fill:#603813;}.cls-4,.cls-5,.cls-6{fill:none;}.cls-4,.cls-5,.cls-6,.cls-7,.cls-8{stroke:#000;}.cls-4,.cls-5{stroke-miterlimit:10;}.cls-4{stroke-width:10px;}.cls-5,.cls-7,.cls-8{stroke-width:6px;}.cls-6,.cls-7,.cls-8{stroke-linecap:round;stroke-linejoin:round;}.cls-6{stroke-width:0.5px;}</style></defs><title>rudder</title><path d="M493.13,82.52c3,1.47,5.45,16.13,5.45,34,0,18.85-2.67,34.13-6,34.13s-5.95-15.28-5.95-34.13c0-5.06.19-9.88.55-14.21,5.34-3.45,8.51-7.74,8.51-12.39v-.27a1.66,1.66,0,0,0,0-.26A11.72,11.72,0,0,0,493.13,82.52Z"/><path class="cls-1" d="M495.72,89.37a1.66,1.66,0,0,1,0,.26v.14C495.73,89.63,495.72,89.5,495.72,89.37Z"/><path class="cls-1" d="M495.72,89.37c0,.13,0,.26,0,.4v.13c-.12,4.54-3.26,8.72-8.5,12.1,1-11.6,3-19.62,5.38-19.62l.21,0A12.13,12.13,0,0,1,495.72,89.37Z"/><path class="cls-1" d="M493.13,82.52a11.72,11.72,0,0,1,2.59,6.85,12.13,12.13,0,0,0-2.89-7A.71.71,0,0,1,493.13,82.52Z"/><path class="cls-1" d="M493.13,82.52a.71.71,0,0,0-.3-.12c-6.18-7.67-21.52-13.09-39.47-13.1l0-.28C471.59,69,487.18,74.64,493.13,82.52Z"/><path class="cls-1" d="M492.83,82.4l-.21,0c-2.38,0-4.43,8-5.38,19.62-7.06,4.56-17.92,7.65-30.31,8.16-.94-14.92-2.16-28.72-3.56-40.85C471.31,69.31,486.66,74.74,492.83,82.4Z"/><path d="M487.23,102c5.24-3.38,8.38-7.56,8.5-12.1,0,4.65-3.17,8.94-8.51,12.39C487.22,102.19,487.23,102.1,487.23,102Z"/><path class="cls-2" d="M487.23,102c0,.1,0,.19,0,.3-7.06,4.55-17.91,7.64-30.28,8.14a2,2,0,0,1,0-.28C469.31,109.65,480.17,106.56,487.23,102Z"/><path class="cls-3" d="M456.93,110.44c5.76,93.12.28,229.61-42,277.76a225.3,225.3,0,0,1-23.43,23c-123.62,105-337.82,62.15-337.82,62.15-9.89-6.53-55.31-39.73-34.1-85.12a118,118,0,0,1,36.93-45.62q4.73-3.5,9.77-6.71a206.94,206.94,0,0,1,23.13-12.72c42.1-19.84,96.69-38.43,147.93-69,6.83-4.07,13.68-8.43,20.46-13.06C334.31,188.8,389.52,67.73,398.71,35.57c1.84-6.48,13.81-6.84,13.81-6.84a28.61,28.61,0,0,1,6.31.18,75.74,75.74,0,0,1,11.84,2.25c4,1.08,7.79,3.07,9.71,6.48,4.47,7.91,11.32,17.77,12.69,29.16.09.73.17,1.47.26,2.22h0c-23.25,0-42.11,9.08-42.39,20.36a1.66,1.66,0,0,0,0,.26v.27c0,11.39,19,20.61,42.41,20.61Q455.14,110.52,456.93,110.44Z"/><path class="cls-2" d="M456.92,110.16a2,2,0,0,0,0,.28q-1.79.08-3.62.08c-23.43,0-42.41-9.22-42.41-20.61.31,11.25,19.17,20.33,42.41,20.33C454.53,110.23,455.74,110.21,456.92,110.16Z"/><path class="cls-1" d="M456.92,110.16c-1.18.05-2.39.08-3.61.08-23.24,0-42.1-9.08-42.41-20.33v-.13c0-.14,0-.27,0-.4.58-11.13,19.33-20.07,42.39-20.07h.05C454.76,81.44,456,95.24,456.92,110.16Z"/><path class="cls-1" d="M453.36,69.3h-.05c-23.06,0-41.82,8.94-42.39,20.07C411.2,78.1,430.06,69,453.31,69h0Z"/><path class="cls-1" d="M410.92,89.37c0,.13,0,.26,0,.4v-.14A1.66,1.66,0,0,1,410.92,89.37Z"/><path class="cls-4" d="M412.53,28.73s-12,.36-13.81,6.84C389.52,67.73,334.31,188.8,257.8,241.1c-6.78,4.64-13.63,9-20.46,13.06-51.24,30.56-105.84,49.15-147.93,69a206.94,206.94,0,0,0-23.13,12.72q-5,3.21-9.77,6.71a118,118,0,0,0-36.93,45.62c-21.21,45.39,24.2,78.59,34.1,85.12,1.18.79,1.85,1.19,1.85,1.19"/><path class="cls-4" d="M453.32,69c-.08-.75-.16-1.48-.26-2.22-1.37-11.39-8.22-21.25-12.69-29.16-1.92-3.41-5.75-5.4-9.71-6.48a75.74,75.74,0,0,0-11.84-2.25,28.61,28.61,0,0,0-6.31-.18"/><path class="cls-4" d="M53.68,473.33s214.19,42.88,337.82-62.15a225.3,225.3,0,0,0,23.43-23c42.3-48.15,47.78-184.63,42-277.76"/><path class="cls-5" d="M487.22,102.3c-7.06,4.55-17.91,7.64-30.28,8.14q-1.79.08-3.62.08c-23.43,0-42.41-9.22-42.41-20.61"/><path class="cls-5" d="M493.13,82.52c3,1.47,5.45,16.13,5.45,34,0,18.85-2.67,34.13-6,34.13s-5.95-15.28-5.95-34.13c0-5.06.19-9.88.55-14.21,0-.1,0-.19,0-.3"/><path class="cls-5" d="M495.72,89.37a1.66,1.66,0,0,1,0,.26v.27c-.12,4.54-3.26,8.72-8.5,12.1-7.06,4.56-17.92,7.65-30.31,8.16-1.18.05-2.39.08-3.61.08-23.24,0-42.1-9.08-42.41-20.33v-.27a1.66,1.66,0,0,1,0-.26C411.2,78.1,430.06,69,453.31,69h0c18.27,0,33.86,5.62,39.8,13.5A11.72,11.72,0,0,1,495.72,89.37Z"/><ellipse class="cls-6" cx="452.77" cy="187.04" rx="42.41" ry="20.6"/><ellipse class="cls-7" cx="492.07" cy="211.64" rx="5.95" ry="34.13"/><ellipse class="cls-8" cx="452.77" cy="184.76" rx="42.41" ry="20.6"/><ellipse class="cls-6" cx="450" cy="274.5" rx="42.41" ry="20.6"/><ellipse class="cls-7" cx="489.31" cy="301.1" rx="5.95" ry="34.13"/><ellipse class="cls-8" cx="450" cy="274.22" rx="42.41" ry="20.6"/></svg>