<svg id="Layer_1" data-name="Layer 1" xmlns="http://www.w3.org/2000/svg" viewBox="0 0 512 512"><defs><style>.cls-1{fill:#6a1a00;}.cls-2{fill:#f7931e;}.cls-3{fill:#fff;}.cls-4,.cls-5,.cls-6,.cls-7,.cls-8,.cls-9{fill:none;}.cls-4,.cls-5,.cls-6,.cls-8,.cls-9{stroke:#000;}.cls-4,.cls-5,.cls-6,.cls-7,.cls-8{stroke-linecap:round;stroke-linejoin:round;}.cls-4,.cls-7{stroke-width:10px;}.cls-5{stroke-width:0.75px;}.cls-6{stroke-width:6px;}.cls-7{stroke:#c1272d;}.cls-8,.cls-9{stroke-width:3px;}.cls-9{stroke-miterlimit:10;}</style></defs><title>rum</title><path class="cls-1" d="M135.91,236.92l-.26-.19a104.61,104.61,0,0,1,9.8-12,92.32,92.32,0,0,1,6.85-6.51c.75-.65,1.52-1.28,2.28-1.89a89.57,89.57,0,0,1,18.65-11c2.19-1,4.37-2,6.51-2.94q2.91-1.29,5.62-2.67c.81-.41,1.6-.84,2.39-1.27q2.53-1.42,4.91-3a51,51,0,0,0,9.65-8.69,42.53,42.53,0,0,0,5.77-8.78c5.1-10,8.41-25.5,10.55-42l62.1.17,2.54-.33c2.14,16.56,5.46,32.13,10.57,42.16a42.53,42.53,0,0,0,5.77,8.78,51,51,0,0,0,9.65,8.69q2.37,1.59,4.91,3c.79.43,1.58.86,2.39,1.27q2.71,1.38,5.62,2.67c2.14,1,4.32,1.93,6.51,2.94a89.57,89.57,0,0,1,18.65,11c.76.61,1.53,1.24,2.28,1.89a92.32,92.32,0,0,1,6.85,6.51,105.51,105.51,0,0,1,11.73,14.85,120.15,120.15,0,0,1,11.66,23.2,217.78,217.78,0,0,1,10.3,38.64c1.41,7.93,2.44,16,3.17,24.22.54,5.93.87,11.89,1.05,17.85.3,9.8.61,19.58.91,29.14.43,13.74.92,27,1.41,39.28,1.55,39.23-1.05,66.08-1.05,66.08s-69.5,23-140.37,24.55c-8.43.19-16.89,0-25.24-.43-50.34-2.78-97.26-15.83-115.61-21.49l.07-.22s-.44-3.51-.87-9.62c-1.16-16.33-.1-50.91,1.11-88.24.09-2.63.18-5.28.29-7.94.27-6.87.62-13.8,1.07-20.71.93-14.36,2.19-28.61,3.76-42,.55-4.68,1.19-9.26,1.89-13.71,1.25-8,2.65-15.48,4.07-22.32A379.52,379.52,0,0,1,135.91,236.92ZM347.3,410.44V299.29c0-31.23-24.65-56.78-54.51-69.18H211.68c-30.38,12.4-55,37.95-55,69.18V410.44c0,31.22,24.65,56.77,54.69,64.54h81.1C322.65,467.21,347.3,441.66,347.3,410.44Z"/><path class="cls-2" d="M347.3,299.29V410.44c0,31.22-24.65,56.77-54.86,64.54h-81.1c-30-7.77-54.69-33.32-54.69-64.54V299.29c0-31.23,24.65-56.78,55-69.18h81.11C322.65,242.51,347.3,268.06,347.3,299.29Zm-10.87,77.95c3.95-4.31,2-11.08-6.27-16.36h0c-.14-11.47-4.13-20.19-10.5-21.21-7.59-1.21-15.93,8.92-19.68,23.25h0l-47.09,21-49.59-21.65a5.14,5.14,0,0,0,.84-1.78,11.74,11.74,0,0,0,.3-2.92c-.21-8.28-5.17-15-10.24-15.75-5.94-.91-11,4.08-11.61,13.37h0c-10.94,6.14-17.24,14.07-14.81,19.79,2.83,6.65,16.49,8,31.62,3.53l.39-.12,32.87,14.84-29.4,13.15a37.55,37.55,0,0,0-6.35-3.14c-11.47-4.41-23.09-2.87-26.06,3.34-2.52,5.28,2.17,12.39,10.7,17.12h0c.2,13.24,5.08,23,12.13,23.08,7.53.07,14.94-11.23,17.53-25.82L253,402.39l42.94,19.39h0c.14,1,.32,1.93.55,2.91,2.69,11.56,10.63,20.42,17.76,19.63,6.07-.68,9.59-8.09,8.84-17.38,10-7.41,15.1-16.07,11.88-21.45-3.75-6.26-17.47-5.94-31.82.34L273.9,393.07l42.82-15.34C324.41,381.66,333.06,380.92,336.43,377.24Z"/><path class="cls-3" d="M316.72,377.73,273.9,393.07l-21-9.18,47.09-21h0c3.75-14.33,12.09-24.46,19.68-23.25,6.37,1,10.36,9.74,10.5,21.21h0c8.25,5.28,10.22,12.05,6.27,16.36C333.06,380.92,324.41,381.66,316.72,377.73Z"/><path class="cls-3" d="M303.12,405.83c14.35-6.28,28.07-6.6,31.82-.34,3.22,5.38-1.9,14-11.88,21.45.75,9.29-2.77,16.7-8.84,17.38-7.13.79-15.07-8.07-17.76-19.63-.23-1-.41-2-.55-2.91h0L253,402.39l-20.31-9.18-32.87-14.84-.39.12c-15.13,4.47-28.79,3.12-31.62-3.53-2.43-5.72,3.87-13.65,14.81-19.79h0c.57-9.29,5.67-14.28,11.61-13.37,5.07.79,10,7.47,10.24,15.75a11.74,11.74,0,0,1-.3,2.92,5.14,5.14,0,0,1-.84,1.78l49.59,21.65,21,9.18Z"/><path class="cls-2" d="M292.68,19.58,268.79,59.25l-33.91.61L211,20.78s20.6-6.15,41.09-6.45C272.45,14,292.68,19.58,292.68,19.58Zm-17.12,6.86c0-1.6-2.59-2.9-5.79-2.9s-5.79,1.3-5.79,2.9,2.6,2.89,5.79,2.89S275.56,28,275.56,26.44Zm-.22,14.16c0-1.59-2.59-2.89-5.78-2.89s-5.79,1.3-5.79,2.89,2.59,2.9,5.79,2.9S275.34,42.2,275.34,40.6Zm-16.89,5.1c0-1.59-2.6-2.89-5.79-2.89s-5.79,1.3-5.79,2.89,2.59,2.9,5.79,2.9S258.45,47.3,258.45,45.7Zm-3.67-13.35c0-1.6-2.59-2.89-5.79-2.89s-5.79,1.29-5.79,2.89,2.59,2.89,5.79,2.89S254.78,34,254.78,32.35Zm-17.49-4.91c0-1.6-2.59-2.9-5.78-2.9s-5.79,1.3-5.79,2.9,2.59,2.89,5.79,2.89S237.29,29,237.29,27.44Zm-.21,14.16c0-1.59-2.59-2.89-5.79-2.89s-5.78,1.3-5.78,2.89,2.59,2.9,5.78,2.9S237.08,43.2,237.08,41.6Z"/><path class="cls-2" d="M279.8,89.83h-.39l-56.93.87h-.39c.62-17.69.36-30.62.36-30.62l12.43-.22,33.91-.61,10.68-.19v1S279.22,72.59,279.8,89.83Z"/><path d="M269.77,23.54c3.2,0,5.79,1.3,5.79,2.9s-2.59,2.89-5.79,2.89S264,28,264,26.44,266.58,23.54,269.77,23.54Z"/><path d="M269.56,37.71c3.19,0,5.78,1.3,5.78,2.89s-2.59,2.9-5.78,2.9-5.79-1.3-5.79-2.9S266.36,37.71,269.56,37.71Z"/><path d="M252.66,42.81c3.19,0,5.79,1.3,5.79,2.89s-2.6,2.9-5.79,2.9-5.79-1.3-5.79-2.9S249.46,42.81,252.66,42.81Z"/><ellipse cx="248.99" cy="32.35" rx="5.79" ry="2.89"/><path class="cls-3" d="M181.55,423.68h0c-8.53-4.73-13.22-11.84-10.7-17.12,3-6.21,14.59-7.75,26.06-3.34a37.55,37.55,0,0,1,6.35,3.14l29.4-13.15L253,402.39l-41.75,18.55c-2.59,14.59-10,25.89-17.53,25.82C186.63,446.69,181.75,436.92,181.55,423.68Z"/><path d="M231.51,24.54c3.19,0,5.78,1.3,5.78,2.9s-2.59,2.89-5.78,2.89-5.79-1.29-5.79-2.89S228.31,24.54,231.51,24.54Z"/><path d="M231.29,38.71c3.2,0,5.79,1.3,5.79,2.89s-2.59,2.9-5.79,2.9-5.78-1.3-5.78-2.9S228.1,38.71,231.29,38.71Z"/><path class="cls-1" d="M135.65,236.73l.26.19a379.52,379.52,0,0,0-10.09,39c-1.42,6.84-2.82,14.34-4.07,22.32-.7,4.45-1.34,9-1.89,13.71-1.57,13.35-2.83,27.6-3.76,42-.45,6.91-.8,13.84-1.07,20.71-.11,2.66-.2,5.31-.29,7.94-1.21,37.33-2.27,71.91-1.11,88.24.43,6.11.87,9.62.87,9.62l-.07.22c-5.25-1.62-8.16-2.63-8.16-2.63s-2.6-26.85-1-66.08c.49-12.26,1-25.54,1.41-39.28.3-9.56.61-19.34.91-29.14.18-6,.51-11.92,1-17.85.73-8.18,1.76-16.29,3.17-24.22a217.78,217.78,0,0,1,10.3-38.64,120.72,120.72,0,0,1,11.66-23.2C134.35,238.6,135,237.66,135.65,236.73Z"/><path class="cls-4" d="M106.27,478s2.91,1,8.16,2.63c18.35,5.66,65.27,18.71,115.61,21.49,8.35.47,16.81.62,25.24.43C326.15,501,395.65,478,395.65,478"/><polyline class="cls-4" points="279.47 59.06 268.79 59.25 234.88 59.86 222.45 60.08"/><path class="cls-4" d="M279.47,60.08s-.25,12.51.33,29.75c.46,13.66,1.44,30.28,3.47,46,2.14,16.56,5.46,32.13,10.57,42.16a42.53,42.53,0,0,0,5.77,8.78,51,51,0,0,0,9.65,8.69q2.37,1.59,4.91,3c.79.43,1.58.86,2.39,1.27q2.71,1.38,5.62,2.67c2.14,1,4.32,1.93,6.51,2.94a89.57,89.57,0,0,1,18.65,11c.76.61,1.53,1.24,2.28,1.89a92.32,92.32,0,0,1,6.85,6.51,105.51,105.51,0,0,1,11.73,14.85,120.15,120.15,0,0,1,11.66,23.2,217.78,217.78,0,0,1,10.3,38.64c1.41,7.93,2.44,16,3.17,24.22.54,5.93.87,11.89,1.05,17.85.3,9.8.61,19.58.91,29.14.43,13.74.92,27,1.41,39.28,1.55,39.23-1.05,66.08-1.05,66.08"/><line class="cls-4" x1="268.79" y1="59.25" x2="292.68" y2="19.58"/><line class="cls-4" x1="234.88" y1="59.86" x2="211.02" y2="20.78"/><path class="cls-4" d="M292.68,19.58S272.45,14,252.11,14.33c-20.49.3-41.09,6.45-41.09,6.45"/><path class="cls-5" d="M258.45,45.7c0,1.6-2.6,2.9-5.79,2.9s-5.79-1.3-5.79-2.9,2.59-2.89,5.79-2.89S258.45,44.11,258.45,45.7Z"/><path class="cls-5" d="M275.56,26.44c0,1.6-2.59,2.89-5.79,2.89S264,28,264,26.44s2.6-2.9,5.79-2.9S275.56,24.84,275.56,26.44Z"/><ellipse class="cls-5" cx="248.99" cy="32.35" rx="5.79" ry="2.89"/><path class="cls-5" d="M237.08,41.6c0,1.6-2.59,2.9-5.79,2.9s-5.78-1.3-5.78-2.9,2.59-2.89,5.78-2.89S237.08,40,237.08,41.6Z"/><path class="cls-5" d="M275.34,40.6c0,1.6-2.59,2.9-5.78,2.9s-5.79-1.3-5.79-2.9,2.59-2.89,5.79-2.89S275.34,39,275.34,40.6Z"/><path class="cls-5" d="M237.29,27.44c0,1.6-2.59,2.89-5.78,2.89s-5.79-1.29-5.79-2.89,2.59-2.9,5.79-2.9S237.29,25.84,237.29,27.44Z"/><path class="cls-4" d="M292.44,475h-81.1c-30-7.77-54.69-33.32-54.69-64.54V299.29c0-31.23,24.65-56.78,55-69.18h81.11c29.86,12.4,54.51,37.95,54.51,69.18V410.44C347.3,441.66,322.65,467.21,292.44,475Z"/><line class="cls-6" x1="280.73" y1="136.16" x2="218.63" y2="135.99"/><line class="cls-4" x1="279.41" y1="89.84" x2="222.48" y2="90.71"/><path class="cls-7" d="M135.92,236.91h0a379.52,379.52,0,0,0-10.09,39c-1.42,6.84-2.82,14.34-4.07,22.32-.7,4.45-1.34,9-1.89,13.71-1.57,13.35-2.83,27.6-3.76,42-.45,6.91-.8,13.84-1.07,20.71-.11,2.66-.2,5.31-.29,7.94-1.21,37.33-2.27,71.91-1.11,88.24.43,6.11.87,9.62.87,9.62"/><path class="cls-4" d="M222.45,60.08s.26,12.93-.36,30.62c-.47,13.54-1.46,29.85-3.46,45.29-2.14,16.5-5.45,32-10.55,42a42.53,42.53,0,0,1-5.77,8.78,51,51,0,0,1-9.65,8.69q-2.37,1.59-4.91,3c-.79.43-1.58.86-2.39,1.27q-2.72,1.38-5.62,2.67c-2.14,1-4.32,1.93-6.51,2.94a89.57,89.57,0,0,0-18.65,11c-.76.61-1.53,1.24-2.28,1.89a92.32,92.32,0,0,0-6.85,6.51,104.61,104.61,0,0,0-9.8,12c-.66.93-1.3,1.87-1.93,2.84a120.72,120.72,0,0,0-11.66,23.2,217.78,217.78,0,0,0-10.3,38.64c-1.41,7.93-2.44,16-3.17,24.22-.54,5.93-.87,11.89-1,17.85-.3,9.8-.61,19.58-.91,29.14-.43,13.74-.92,27-1.41,39.28-1.55,39.23,1,66.08,1,66.08"/><path class="cls-8" d="M299.62,364.31c.11-.46.23-.92.35-1.38h0c3.75-14.33,12.09-24.46,19.68-23.25,6.37,1,10.36,9.74,10.5,21.21a57.53,57.53,0,0,1-1,11.2c0,.19-.07.37-.1.55"/><path class="cls-8" d="M330.16,360.88c8.25,5.28,10.22,12.05,6.27,16.36-3.37,3.68-12,4.42-19.71.49l-.05,0a12.61,12.61,0,0,1-2.51-1.7,5.36,5.36,0,0,1-1.27-1.68c-.87-1.7-.85-4.24-.65-6.88.31-4.15.87-8.14-1-9.52"/><polyline class="cls-8" points="232.88 393.11 232.65 393.21 203.25 406.36 201.93 406.95"/><polyline class="cls-8" points="299.97 362.93 252.88 383.89 252.5 384.06"/><polyline class="cls-8" points="253.33 402.22 252.96 402.39 211.21 420.94"/><polyline class="cls-8" points="316.85 377.68 316.72 377.73 273.9 393.07 273.49 393.22"/><line class="cls-8" x1="181.87" y1="419.62" x2="181.87" y2="419.61"/><path class="cls-8" d="M181.87,416.52h0v0c0,.39,0,2.84,0,3"/><path class="cls-8" d="M211.5,419c-.07.47-.21,1.52-.29,2-2.59,14.59-10,25.89-17.53,25.82-7.05-.07-11.93-9.84-12.13-23.08a57.85,57.85,0,0,1,.32-7.11"/><path class="cls-8" d="M181.54,423.68c-8.53-4.73-13.22-11.84-10.7-17.12,3-6.21,14.59-7.75,26.06-3.34a37.55,37.55,0,0,1,6.35,3.14l.29.18"/><path class="cls-8" d="M301.74,406.45l1.38-.62c14.35-6.28,28.07-6.6,31.82-.34,3.22,5.38-1.9,14-11.88,21.45a66.52,66.52,0,0,1-9.29,5.77l-.53.27"/><path class="cls-8" d="M323.06,426.94c.75,9.29-2.77,16.7-8.84,17.38-7.13.79-15.07-8.07-17.76-19.63-.23-1-.41-2-.55-2.91a31.92,31.92,0,0,1-.34-4.16"/><polyline class="cls-8" points="303.12 405.83 273.9 393.07 252.88 383.89 203.29 362.24 202.85 362.05"/><polyline class="cls-8" points="295.9 421.78 252.96 402.39 232.65 393.21 199.78 378.37 198.85 377.95"/><path class="cls-8" d="M182.58,355.16a70.84,70.84,0,0,1,10.06-4.59l.56-.2"/><path class="cls-8" d="M200.85,378l-1.07.33-.39.12c-15.13,4.47-28.79,3.12-31.62-3.53-2.43-5.72,3.87-13.65,14.81-19.79"/><path class="cls-8" d="M182.58,355.17h0c.57-9.29,5.67-14.28,11.61-13.37,5.07.79,10,7.47,10.24,15.75a11.74,11.74,0,0,1-.3,2.92,5.14,5.14,0,0,1-.84,1.78l-.07.11c-1.13,1.58-3.49,2.86-6,4.07-4,1.89-8,3.53-8.25,5.75"/><path class="cls-7" d="M366.4,236.91a374,374,0,0,1,10.1,39c1.42,6.83,2.82,14.34,4.07,22.31.7,4.45,1.34,9,1.89,13.71,1.56,13.35,2.82,27.6,3.76,42,.45,6.91.8,13.84,1.07,20.71q.16,4,.29,7.94c1.21,37.33,2.27,71.91,1.11,88.23-.43,6.12-.88,9.63-.88,9.63"/><path class="cls-4" d="M279.47,60.08S277.75,146.42,293.84,178a42.7,42.7,0,0,0,5.77,8.78,50.46,50.46,0,0,0,9.65,8.69q2.37,1.6,4.91,3,1.17.65,2.39,1.27,2.71,1.38,5.62,2.67c2.15,1,4.32,1.93,6.51,2.93a90,90,0,0,1,18.65,11q1.15.91,2.29,1.88a92.78,92.78,0,0,1,6.85,6.52,105.25,105.25,0,0,1,11.73,14.85,120.43,120.43,0,0,1,11.66,23.2,217,217,0,0,1,10.3,38.64c1.41,7.93,2.44,16,3.17,24.22.53,5.93.86,11.9,1,17.85.3,9.8.61,19.58.91,29.14.43,13.74.92,27,1.41,39.28,1.56,39.23-1,66.08-1,66.08"/><path class="cls-4" d="M106.29,478s59.06,20.55,123.76,24.12c8.36.46,16.81.61,25.24.42C326.17,500.95,395.66,478,395.66,478"/><path class="cls-3" d="M218.62,286.34h0c0,.17,1.33,13.46,5.71,16.59a6.52,6.52,0,0,0,.72.44,11.15,11.15,0,0,0,9.22.12,16.65,16.65,0,0,0,3.76-2.08,6.76,6.76,0,0,0,1.48-1.59c.25-.35.5-.74.74-1.14h0c2.47-2.71,4.32-8.78,5.07-11.54.24-.87.36-1.41.36-1.41l.07-.05c-.5-1.28-2.3-5.14-6-6.13a12.84,12.84,0,0,0-6-.05,33,33,0,0,0-7.91,3.06c-3.6,1.86-6.45,3.38-7.21,3.79Zm58.84,51.84v19.59a3.39,3.39,0,0,1-3.09,3.57l-44.89.82a3.25,3.25,0,0,1-3.09-3.42V338.22c-6,1.24-12.64,2-15.34,0a3.31,3.31,0,0,1-.86-.9c-1.52-2.42-.9-5.63.25-9.2.39-1.2.83-2.5,1.28-3.84l.12-.36a19.3,19.3,0,0,1-10.15-9.55c-3.81-8.15-3-20.69-3-20.69h0c.67-20.69,24.29-36.82,53.25-36.38,29.39.45,53.22,17.67,53.22,38.79h0c-.11,4.22-.71,10.37-2.91,15.24a19.23,19.23,0,0,1-10,9.67c0,.21,0,.42,0,.61a6.12,6.12,0,0,0,.1,1.4,10.91,10.91,0,0,0,.55,1.91c.48,1.21,1,2.39,1.41,3.47.28.68.53,1.37.73,2.05.77,2.58,1,4.92-.21,6.8a3.19,3.19,0,0,1-.85.89C291.13,340.22,283.76,339.41,277.47,338.18Zm-17.12-50.63c.75,2.75,2.6,8.83,5.07,11.54.24.41.49.79.74,1.14a6.76,6.76,0,0,0,1.48,1.59,16.68,16.68,0,0,0,3.76,2.08,11.14,11.14,0,0,0,9.22-.12,6.34,6.34,0,0,0,.72-.44c4.34-3.1,5.67-16.17,5.71-16.58h0c-.76-.41-3.61-1.93-7.21-3.79a33.06,33.06,0,0,0-7.91-3.06,12.84,12.84,0,0,0-6,.05c-3.72,1-5.52,4.85-6,6.13l.07.05S260.11,286.68,260.34,287.54Zm-2.92,31.76c1.42-.29,1.6-3.46.39-7.09s-3.33-6.34-4.75-6.06a1.07,1.07,0,0,0-.63.4c-1.38.53-3.18,2.79-4.43,5.7-1.52,3.56-1.63,6.73-.24,7.1s3.61-2.06,5.13-5.45C254.13,317.2,256.09,319.57,257.42,319.3Z"/><path d="M287,286.75h0c-.33,1.85-2.12,10.79-6.25,13.22s-9.7,2.14-13.92.23a4.62,4.62,0,0,1-1.45-1.13,71.47,71.47,0,0,1-5.07-11.54c-.24-.87-.36-1.4-.36-1.4l-.07-.05c.5-1.28,2.29-5.14,6-6.13a12.84,12.84,0,0,1,6-.05,33.06,33.06,0,0,1,7.91,3.06C283.43,284.82,286.27,286.34,287,286.75Z"/><path d="M287,286.76c0,.41-1.37,13.48-5.71,16.58a6.34,6.34,0,0,1-.72.44,11.14,11.14,0,0,1-9.22.12,16.68,16.68,0,0,1-3.76-2.08,6.76,6.76,0,0,1-1.48-1.59c-.25-.36-.5-.74-.74-1.14a4.62,4.62,0,0,0,1.45,1.13c4.22,1.91,9.79,2.21,13.92-.23S286.71,288.61,287,286.76Z"/><path d="M265.41,299.09c-2.47-2.71-4.33-8.79-5.07-11.54A71.47,71.47,0,0,0,265.41,299.09Z"/><path d="M257.82,312.21c1.2,3.63,1,6.81-.39,7.09s-3.29-2.1-4.52-5.4l.15-.33c1.52-3.56,1.63-6.74.24-7.1a1.39,1.39,0,0,0-.85.08,1.07,1.07,0,0,1,.63-.4C254.49,305.86,256.62,308.58,257.82,312.21Z"/><path d="M253.29,306.47c1.39.36,1.28,3.54-.24,7.1l-.15.33q-.12-.32-.23-.66c-1-3-1-5.69-.23-6.69A1.39,1.39,0,0,1,253.29,306.47Z"/><path d="M252.67,313.25q.11.33.23.66c-1.53,3.38-3.79,5.8-5.13,5.45s-1.28-3.54.24-7.1c1.25-2.91,3.05-5.17,4.43-5.7C251.63,307.56,251.68,310.25,252.67,313.25Z"/><path d="M245.75,285.67l-.07.05s-.13.54-.36,1.41a71.41,71.41,0,0,1-5.07,11.54h0a4.59,4.59,0,0,1-1.45,1.12c-4.22,1.9-9.79,2.21-13.92-.23s-5.92-11.41-6.25-13.23c.76-.41,3.61-1.93,7.21-3.79a33,33,0,0,1,7.91-3.06,12.84,12.84,0,0,1,6,.05C243.46,280.53,245.25,284.39,245.75,285.67Z"/><path d="M240.25,298.67a71.41,71.41,0,0,0,5.07-11.54c-.75,2.76-2.6,8.83-5.07,11.54Z"/><path d="M240.25,298.67c-.24.4-.49.79-.74,1.14a6.76,6.76,0,0,1-1.48,1.59,16.65,16.65,0,0,1-3.76,2.08,11.15,11.15,0,0,1-9.22-.12,6.52,6.52,0,0,1-.72-.44c-4.38-3.13-5.69-16.42-5.71-16.59h0c.33,1.83,2.12,10.79,6.25,13.23s9.7,2.13,13.92.23A4.59,4.59,0,0,0,240.25,298.67Z"/><polygon points="218.62 286.33 218.62 286.34 218.62 286.33 218.62 286.33"/><path class="cls-8" d="M198.67,294.6q0-.46,0-.91c.67-20.69,24.29-36.82,53.25-36.38,29.39.45,53.22,17.67,53.22,38.79"/><path class="cls-8" d="M252.9,313.9c-1.53,3.38-3.79,5.8-5.13,5.45s-1.28-3.54.24-7.1c1.25-2.91,3.05-5.17,4.43-5.7"/><path class="cls-8" d="M252.44,306.55a1.07,1.07,0,0,1,.63-.4c1.42-.29,3.55,2.42,4.75,6.06s1,6.81-.39,7.09-3.29-2.1-4.52-5.4q-.12-.32-.23-.66C251.68,310.25,251.63,307.56,252.44,306.55Z"/><path class="cls-9" d="M245.9,286.08s0-.15-.15-.41c-.5-1.28-2.3-5.14-6-6.13a12.84,12.84,0,0,0-6-.05,33,33,0,0,0-7.91,3.06c-3.6,1.86-6.45,3.38-7.21,3.79h0l-.2.11"/><path class="cls-9" d="M218.62,286.34h0l-.06-.33"/><path class="cls-8" d="M240.25,298.67a4.59,4.59,0,0,1-1.45,1.12c-4.22,1.9-9.79,2.21-13.92-.23s-5.92-11.41-6.25-13.23"/><path class="cls-9" d="M245.32,287.13c-.75,2.76-2.6,8.83-5.07,11.54"/><path class="cls-8" d="M245.68,285.72s-.13.54-.36,1.41"/><path class="cls-8" d="M245.72,286s-.14.44-.4,1.17a71.41,71.41,0,0,1-5.07,11.54h0c-.24.4-.49.79-.74,1.14a6.76,6.76,0,0,1-1.48,1.59,16.65,16.65,0,0,1-3.76,2.08,11.15,11.15,0,0,1-9.22-.12,6.52,6.52,0,0,1-.72-.44c-4.38-3.13-5.69-16.42-5.71-16.59h0"/><path class="cls-9" d="M287,286.75l.2.11"/><path class="cls-9" d="M259.76,286.5s0-.15.15-.41c.5-1.28,2.29-5.14,6-6.13a12.84,12.84,0,0,1,6-.05,33.06,33.06,0,0,1,7.91,3.06c3.6,1.86,6.45,3.38,7.21,3.79"/><path class="cls-9" d="M287,286.75h0c0-.21.06-.33.06-.33"/><path class="cls-8" d="M265.41,299.09a4.62,4.62,0,0,0,1.45,1.13c4.22,1.91,9.79,2.21,13.92-.23s5.91-11.37,6.25-13.22"/><path class="cls-9" d="M260.34,287.54c.75,2.75,2.6,8.83,5.07,11.54"/><path class="cls-8" d="M260,286.14s.12.54.36,1.4"/><path class="cls-9" d="M287,286.76h0"/><path class="cls-8" d="M259.94,286.37s.14.44.4,1.17a71.47,71.47,0,0,0,5.07,11.54c.24.41.49.79.74,1.14a6.76,6.76,0,0,0,1.48,1.59,16.68,16.68,0,0,0,3.76,2.08,11.14,11.14,0,0,0,9.22-.12,6.34,6.34,0,0,0,.72-.44c4.34-3.1,5.67-16.17,5.71-16.58"/><path class="cls-8" d="M198.67,293.69s-.8,12.54,3,20.69a19.3,19.3,0,0,0,10.15,9.55"/><path class="cls-8" d="M305.12,291.18s.15,2,.07,4.93c-.11,4.22-.71,10.37-2.91,15.24a19.23,19.23,0,0,1-10,9.67l0,0"/><path class="cls-8" d="M207.6,307.2s1.58,7.26,3.93,11.14a5.6,5.6,0,0,1,.88,2.55,4.78,4.78,0,0,1-.11,1.37c-.13.57-.29,1.13-.46,1.68l-.12.36c-.45,1.34-.89,2.64-1.28,3.84-1.16,3.58-1.78,6.79-.25,9.2a3.31,3.31,0,0,0,.86.9c2.7,2,9.36,1.22,15.34,0s11.23-2.95,11.23-2.95"/><path class="cls-8" d="M294.31,308.42A106,106,0,0,0,292.26,321c0,.21,0,.42,0,.61a6.12,6.12,0,0,0,.1,1.4,10.91,10.91,0,0,0,.55,1.91c.48,1.21,1,2.39,1.41,3.47.28.68.53,1.37.73,2.05.77,2.58,1,4.92-.21,6.8a3.19,3.19,0,0,1-.85.89c-2.83,2.06-10.19,1.24-16.49,0-5.59-1.09-10.34-2.5-10.34-2.5"/><path class="cls-8" d="M277.47,338.18v19.59a3.39,3.39,0,0,1-3.09,3.57l-44.89.82a3.25,3.25,0,0,1-3.09-3.42V338.2"/><path class="cls-8" d="M276.18,347.87s-2.79,1-7,2a84.05,84.05,0,0,1-9.55,1.78,59.18,59.18,0,0,1-6.76.47c-1.81,0-3.64-.07-5.45-.21a90.85,90.85,0,0,1-10.29-1.47c-5.52-1.1-9.41-2.33-9.41-2.33"/><polyline class="cls-8" points="237.14 343.46 237.14 350.45 237.14 357.18"/><polyline class="cls-8" points="247.43 343.75 247.43 351.93 247.43 357.46"/><polyline class="cls-8" points="259.63 344.08 259.63 351.67 259.63 357.79"/><polyline class="cls-8" points="269.19 343.75 269.19 349.89 269.19 357.46"/></svg>