<svg id="Layer_1" data-name="Layer 1" xmlns="http://www.w3.org/2000/svg" viewBox="0 0 512 512"><defs><style>.cls-1{fill:#33f;}.cls-2{fill:#666;}.cls-3,.cls-4{fill:none;stroke:#000;stroke-linecap:round;stroke-linejoin:round;}.cls-3{stroke-width:10px;}.cls-4{stroke-width:6px;}</style></defs><title>sail</title><path class="cls-1" d="M404.43,427.11l-83,2.91-16.13.57-162.67,5.69,0-.48,195.6-71.26C358.73,406.71,384.09,428,404.43,427.11Z"/><path class="cls-2" d="M301.92,208.58c-2.17-25.31-3.64-52.13-4.86-79.69-1.3-29.42-2.32-59.69-3.62-89.84l-1.13,1.11c1.16-4.19,2.47-6.45,3.92-6.52,9.5-.41,21.28,93.54,26.3,209.85,1.36,31.45,2.09,61.31,2.24,88.15q-5-14.5-9.12-31.14-.87-3.52-1.68-7.13C308.32,268.34,304.58,239.59,301.92,208.58Z"/><path class="cls-2" d="M305.29,430.58l16.13-.57c-1.73,15.72-4.09,24.68-7,24.81S308.37,446.17,305.29,430.58Z"/><path class="cls-1" d="M314,293.36,86.34,387.45a419.29,419.29,0,0,1,22.3-92l193.28-86.85C304.58,239.59,308.32,268.34,314,293.36Z"/><path class="cls-1" d="M293.44,39c1.3,30.15,2.32,60.42,3.62,89.84L154,207.61C208.56,123.73,282.35,50,292.31,40.16h0Z"/><path class="cls-3" d="M154,207.62c-7.52,11.56-14.67,23.3-21.24,35.1a374.64,374.64,0,0,0-24.13,52.71,419.29,419.29,0,0,0-22.3,92c-3.89,30.9-2.91,50.89-2.91,50.89"/><path class="cls-3" d="M292.31,40.16c-10,9.8-83.74,83.56-138.29,167.44"/><path class="cls-3" d="M293.44,39l-1.13,1.11"/><path class="cls-3" d="M324.77,331.64a288.67,288.67,0,0,0,13.43,32.88c20.53,42.18,45.89,63.46,66.23,62.58"/><path class="cls-3" d="M293.44,39c1.3,30.15,2.32,60.42,3.62,89.84,1.22,27.56,2.69,54.38,4.86,79.69,2.66,31,6.39,59.76,12,84.79q.8,3.61,1.68,7.13,4.13,16.64,9.12,31.14"/><polyline class="cls-3" points="404.43 427.11 321.42 430.01 305.29 430.58 142.62 436.26 83.44 438.34"/><path class="cls-4" d="M292.31,40.16h0c1.16-4.19,2.47-6.45,3.92-6.52,9.5-.41,21.28,93.54,26.3,209.85,1.36,31.45,2.09,61.31,2.24,88.15h0"/><path class="cls-4" d="M305.29,430.58c3.09,15.59,6.22,24.36,9.13,24.24s5.26-9.09,7-24.81"/><path class="cls-3" d="M297.06,128.88,154,207.61a0,0,0,0,0,0,0"/><polyline class="cls-3" points="301.93 208.56 301.92 208.57 108.64 295.43"/><polyline class="cls-3" points="313.96 293.37 86.34 387.45 86.33 387.45"/><line class="cls-3" x1="338.2" y1="364.53" x2="142.6" y2="435.78"/></svg>