<svg id="Layer_1" data-name="Layer 1" xmlns="http://www.w3.org/2000/svg" viewBox="0 0 512 512"><defs><style>.cls-1{fill:#999;}.cls-2{fill:gray;}.cls-3{fill:#603813;}.cls-4{fill:#f7931e;}.cls-5{fill:red;}.cls-10,.cls-11,.cls-6,.cls-7,.cls-8,.cls-9{fill:none;}.cls-11,.cls-6,.cls-7,.cls-8{stroke:#000;}.cls-6,.cls-7,.cls-9{stroke-miterlimit:10;}.cls-10,.cls-6,.cls-8,.cls-9{stroke-width:10px;}.cls-11,.cls-7{stroke-width:6px;}.cls-10,.cls-11,.cls-8{stroke-linecap:round;stroke-linejoin:round;}.cls-10,.cls-9{stroke:#e6e6e6;}</style></defs><title>scimitar</title><path class="cls-1" d="M189,321l.48-8.53-28.22-1.55v0s42.14-29.51,82.23-86.15c42-59.29,82-145.83,82-145.83l.18-1.06a158.87,158.87,0,0,0,71-3.52c40.71-11.75,85-44.85,87.75-46.91h.45c-9,17.45-74.94,143.77-139.15,206.72-96.06,94.17-157.85,118.38-157.85,118.38l-.64,0,.43-7.64Z"/><path class="cls-2" d="M218.27,403.56A13.22,13.22,0,0,1,216,422.19l-3.13,2.42A13.54,13.54,0,0,1,194,422.34l-3.69-4.66.28-.22s2.19-9.43,8.09-14.26c5.71-4.67,15-4.95,15.37-5h0Z"/><path class="cls-3" d="M188.33,365.71l25.73,32.53c-.37,0-9.66.29-15.37,5-5.9,4.83-8.09,14.26-8.09,14.26l-.28.22-30.07-38-.16-.2v-.2l25.17,1.38,0-.8.35,0,.88-15.61.67,0Z"/><path class="cls-4" d="M118.75,355.18l2.57-45.63,23.61,1.3,44.12,2.42-.45,8-3.29,58.57-67.74-3.72Zm57.84-10.09a23.47,23.47,0,1,0-23.47,23.23A23.35,23.35,0,0,0,176.59,345.09Z"/><polygon class="cls-4" points="185.31 379.85 185.27 380.65 160.1 379.27 137.43 378.02 117.19 376.91 118.39 355.45 118.75 355.18 117.57 376.13 185.31 379.85"/><ellipse class="cls-5" cx="153.12" cy="345.09" rx="23.47" ry="23.23"/><polygon class="cls-3" points="144.27 310.01 144.93 310.85 121.32 309.55 121.36 308.75 144.27 310.01"/><path class="cls-3" d="M115.55,273.72,144.27,310l-22.91-1.26,0,.8-.35,0-1.07,19.14-.87-1.11L91.25,292.45s9.85-1.46,15.86-6.1S115.55,273.72,115.55,273.72Z"/><path class="cls-3" d="M137.43,378l-.08,1.45-.26.2L55.88,442.6s.36-9.9-4-16.17-13.51-9-13.51-9l80-62-1.2,21.46Z"/><polygon class="cls-4" points="119.9 328.67 120.97 309.53 121.32 309.55 118.75 355.18 118.39 355.45 119.9 328.67"/><path class="cls-2" d="M112.22,269.51l3.33,4.21s-2.3,7.9-8.44,12.63-15.86,6.1-15.86,6.1L88,288.29a13.24,13.24,0,0,1,2.29-18.64l3.13-2.41A13.54,13.54,0,0,1,112.22,269.51Z"/><path class="cls-2" d="M51.88,426.43c4.36,6.27,4,16.17,4,16.17l-6.42,5a13.53,13.53,0,0,1-18.82-2.27l-2.45-3.08a13.23,13.23,0,0,1,2.29-18.65l7.89-6.11S47.49,420.13,51.88,426.43Z"/><path class="cls-6" d="M137.35,379.47l-.26.2L55.88,442.6l-6.42,5a13.53,13.53,0,0,1-18.82-2.27l-2.45-3.08a13.23,13.23,0,0,1,2.29-18.65l7.89-6.11,80-62,.36-.27L119,355l1.11-.86"/><path class="cls-6" d="M120.14,329l-.24-.31-.87-1.11L91.25,292.45,88,288.29a13.24,13.24,0,0,1,2.29-18.64l3.13-2.41a13.54,13.54,0,0,1,18.84,2.27l3.33,4.21L144.27,310l.66.84.9,1.13.15.2"/><path class="cls-6" d="M214.07,398.24l4.2,5.32A13.22,13.22,0,0,1,216,422.19l-3.13,2.42A13.54,13.54,0,0,1,194,422.34l-3.69-4.66-30.07-38-.16-.2"/><polyline class="cls-6" points="187.21 364.3 188.33 365.71 214.06 398.24"/><polygon class="cls-6" points="121.32 309.55 120.97 309.53 119.9 328.67 118.39 355.45 117.19 376.91 137.43 378.02 160.1 379.27 185.27 380.65 185.31 379.85 188.6 321.28 189.05 313.27 144.93 310.85 121.32 309.55"/><ellipse class="cls-6" cx="153.12" cy="345.09" rx="23.47" ry="23.23"/><path class="cls-6" d="M38.37,417.46s9.12,2.67,13.51,9,4,16.17,4,16.17"/><path class="cls-6" d="M115.55,273.72s-2.3,7.9-8.44,12.63-15.86,6.1-15.86,6.1"/><path class="cls-6" d="M214.07,398.24h0c-.37,0-9.66.29-15.37,5-5.9,4.83-8.09,14.26-8.09,14.26"/><path class="cls-7" d="M375.16,117.65s-30.77,56-73.74,102.83l-1.71,1.86C253.75,271.85,197.56,314.57,189,321l-.36.26-.77.58"/><path class="cls-6" d="M484.51,27.35l-.13.1c-2.73,2.06-47,35.16-87.75,46.91a158.87,158.87,0,0,1-71,3.52c-3.89-.72-6.06-1.32-6.06-1.32"/><path class="cls-8" d="M325.43,78.94s-40,86.54-82,145.83c-40.09,56.64-82.23,86.15-82.23,86.15"/><path class="cls-8" d="M187.83,352.56s61.79-24.21,157.85-118.38c64.21-63,130.19-189.27,139.15-206.72.68-1.32,1-2,1-2"/><polygon class="cls-8" points="144.27 310.01 121.36 308.75 121.32 309.55 118.75 355.18 117.57 376.13 185.31 379.85 185.66 379.87 186.54 364.26 187.19 352.52 187.62 344.88 188.96 321.02 189.44 312.49 161.22 310.94 144.27 310.01"/><path class="cls-9" d="M452.58,69.67a775.91,775.91,0,0,1-72.83,110.82c-6.87,8.68-14.1,17.37-21.61,25.87s-15.31,16.83-23.32,24.85C268,298.05,187.62,344.88,187.62,344.88"/><polygon class="cls-8" points="121.36 309.53 117.57 376.91 185.66 380.65 189.44 313.27 121.36 309.53"/><path class="cls-10" d="M454.91,70.43a775.93,775.93,0,0,1-72.83,110.82c-6.87,8.68-14.1,17.37-21.61,25.87S345.16,223.94,337.15,232C270.37,298.81,190,345.64,190,345.64"/><path class="cls-11" d="M322.55,79.83s27.75,47.35,63.59,37.62c41-11.13,90.81-79.54,90.81-79.54"/><path class="cls-8" d="M187.83,354.47s61.79-24.21,157.85-118.38C414.75,168.38,485.86,27.35,485.86,27.35"/><polygon class="cls-8" points="121.36 310.08 117.57 377.46 185.66 381.2 189.44 313.82 121.36 310.08"/></svg>