<svg id="Layer_1" data-name="Layer 1" xmlns="http://www.w3.org/2000/svg" viewBox="0 0 512 512"><defs><style>.cls-1{fill:#f7931e;}.cls-2{fill:none;stroke:#000;stroke-miterlimit:10;stroke-width:10px;}</style></defs><title>ships_wheel</title><path class="cls-1" d="M471.23,233.11c15.29,0,27.67,9,27.67,20.21s-12.38,20.21-27.67,20.21a34.53,34.53,0,0,1-16.63-4.07h12.74a9.4,9.4,0,0,0,9.33-9.4v-12a9.39,9.39,0,0,0-9.33-9.4H453.89l-.09-1.06A34.3,34.3,0,0,1,471.23,233.11Z"/><path class="cls-1" d="M476.67,248.09v12a9.4,9.4,0,0,1-9.33,9.4H454.6c-.22-.11-.44-.24-.65-.37.38-4.88.56-9.83.56-14.81q0-7.86-.62-15.59h13.45A9.39,9.39,0,0,1,476.67,248.09Z"/><path class="cls-1" d="M454.6,269.46h-.68c0-.11,0-.24,0-.37C454.16,269.22,454.38,269.35,454.6,269.46Z"/><path class="cls-1" d="M454.51,254.28c0,5-.18,9.93-.56,14.81l-1.77-30.3v-.1h1.72Q454.51,246.42,454.51,254.28Z"/><path class="cls-1" d="M452.18,238.79l1.77,30.3c0,.13,0,.26,0,.37Z"/><path class="cls-1" d="M452.18,238.79l1.74,30.67a193.73,193.73,0,0,1-48.06,113.28q-2,2.24-4,4.41l-.33,0-12.24,12.32c-1.79,1.61-3.6,3.18-5.45,4.72A200,200,0,0,1,270.4,449.83h-.62c-.44-.64-.91-1.24-1.4-1.82H242.44a20.1,20.1,0,0,0-1.38,1.78H239.7a199.93,199.93,0,0,1-113.11-46c-1-.83-2-1.67-3-2.52L107,385c-.82-.88-1.61-1.77-2.39-2.68a193.65,193.65,0,0,1-47.7-112.86l.1-30.77a.15.15,0,0,0-.07-.05,193.85,193.85,0,0,1,48.57-113.43h0l22.39-21h0c0-.15,0-.29-.08-.43A199.85,199.85,0,0,1,238,58.92l.85-.07c.28.58.58,1.15.9,1.69v2l30.7,1.18v-2A26.75,26.75,0,0,0,272,58.85l.85.07a199.73,199.73,0,0,1,109.89,44.61L405,124.81A193.73,193.73,0,0,1,453.8,237.63c-.56.34-1.11.69-1.63,1.06Zm-26.06,30.64c.42-5,.65-10,.65-15.15s-.24-10.45-.69-15.59A173.16,173.16,0,0,0,364.87,121.5s0,0,0,0A171.6,171.6,0,0,0,270.4,81.94q-8.06-.76-16.33-.77-7.26,0-14.37.6a171.68,171.68,0,0,0-95.37,38.84A173.08,173.08,0,0,0,82.06,238.69q-.69,7.71-.69,15.59,0,7.68.65,15.18a172.49,172.49,0,0,0,39.55,95.86,174.92,174.92,0,0,0,21.71,21.75,171.6,171.6,0,0,0,96.42,39.71q7.11.6,14.37.6,8.26,0,16.33-.76A173,173,0,0,0,426.12,269.46Z"/><path class="cls-1" d="M453.8,237.63l.09,1.06h-1.72C452.69,238.32,453.24,238,453.8,237.63Z"/><path class="cls-1" d="M421.46,397.09c10.8,10.88,13.2,26.1,5.37,34s-23,5.47-33.76-5.41A34.77,34.77,0,0,1,384,410.31a23.93,23.93,0,0,1-.81-4.72l6.1-6.15q6.56-5.85,12.57-12.29a21.71,21.71,0,0,1,3,.47A33.9,33.9,0,0,1,421.46,397.09Z"/><path class="cls-1" d="M426.72,81.23c7.83,7.85,5.39,23-5.46,33.92a34.61,34.61,0,0,1-16,9.34l13.25-13.29a9.26,9.26,0,0,0,0-13l-8.69-8.72a9.22,9.22,0,0,0-13,0l-13.26,13.3a35,35,0,0,1,9.33-16C403.73,75.82,418.88,73.37,426.72,81.23Z"/><path class="cls-1" d="M426.77,254.28c0,5.11-.23,10.16-.65,15.15v0H292.84L291,267.58a38.86,38.86,0,0,0,1.11-28.89h134C426.53,243.83,426.77,249,426.77,254.28Z"/><path class="cls-1" d="M418.52,98.16a9.26,9.26,0,0,1,0,13l-13.25,13.29-.49.11s0,0,0,0A199.72,199.72,0,0,0,383.35,104h0l0,0c.07-.4.17-.81.26-1.22l13.26-13.3a9.22,9.22,0,0,1,13,0Z"/><path class="cls-1" d="M405.27,124.49l-.32.32-.17-.21Z"/><path class="cls-1" d="M405,124.81l-22.19-21.28c.18.14.36.28.53.43l0,0h0l21.39,20.55s0,0,0,0Z"/><path class="cls-1" d="M404.74,124.56,383.35,104A199.72,199.72,0,0,1,404.74,124.56Z"/><path class="cls-1" d="M401.51,387.12l.33,0q-6,6.42-12.57,12.29Z"/><path class="cls-1" d="M292.84,269.46l94.59,94.81a172.24,172.24,0,0,1-21.54,21.92l-95.49-95.7h0v-3a38.81,38.81,0,0,0,19.66-18.05h2.78Z"/><path class="cls-1" d="M364.87,121.5l21.69,21.74-91.34,91.55-3.35,3.35a38.76,38.76,0,0,0-21.37-22.09l3-3,91.34-91.56S364.87,121.5,364.87,121.5Z"/><path class="cls-1" d="M382.76,103.53l.79-.79c-.09.41-.19.82-.26,1.22C383.12,103.81,382.94,103.67,382.76,103.53Z"/><path class="cls-1" d="M291,267.58l1.87,1.88h-2.78C290.38,268.84,290.68,268.22,291,267.58Z"/><path class="cls-1" d="M292.08,238.69A38.86,38.86,0,0,1,291,267.58l-14.24-14.27,14.59-14.62Z"/><path class="cls-1" d="M291.87,238.14l-.55.55H270.4V216.15l.1-.1A38.76,38.76,0,0,1,291.87,238.14Z"/><polygon class="cls-1" points="291.32 238.69 276.73 253.31 270.4 246.97 270.4 238.69 291.32 238.69"/><path class="cls-1" d="M276.73,253.31,291,267.58c-.29.64-.59,1.26-.91,1.88H270.4v-9.79l5.59-5.61Z"/><path class="cls-1" d="M270.4,269.46h19.66a38.81,38.81,0,0,1-19.66,18.05Z"/><polygon class="cls-1" points="270.4 246.97 276.73 253.31 275.99 254.06 270.4 259.67 270.4 248.39 270.4 246.97"/><path class="cls-1" d="M275.49,43.21A36.26,36.26,0,0,1,272.87,57c-.26.65-.55,1.28-.85,1.89l-1.62-.13V42.79a9.39,9.39,0,0,0-9.33-9.4H249a9.4,9.4,0,0,0-9.34,9.4v16l-.9.08c-.3-.61-.58-1.24-.85-1.89a36.45,36.45,0,0,1-2.61-13.75c0-15.38,9-27.85,20.07-27.85S275.49,27.83,275.49,43.21Z"/><path class="cls-1" d="M270.4,450.75a34.4,34.4,0,0,1,5.09,18.51c0,15.39-9,27.86-20.08,27.86s-20.07-12.47-20.07-27.86a34.85,34.85,0,0,1,4.36-17.32v17a9.4,9.4,0,0,0,9.34,9.41h12A9.4,9.4,0,0,0,270.4,469v-18.2Z"/><path class="cls-1" d="M270.4,58.72l1.62.13a26.75,26.75,0,0,1-1.62,2.88Z"/><path class="cls-1" d="M270.5,216.05l-.1.1V216Z"/><path class="cls-1" d="M270.4,452.71V469a9.4,9.4,0,0,1-9.33,9.41H249A9.4,9.4,0,0,1,239.7,469v-17q.62-1.08,1.29-2.07l1.45.1h0q6.42.42,12.93.41c4.35,0,8.65-.13,12.93-.41h0l1.43-.1c.2.29.4.58.59.88Z"/><path class="cls-1" d="M270.4,449.83v.92c-.19-.3-.39-.59-.59-.88Z"/><path class="cls-1" d="M270.4,296.44V426.62q-8.06.76-16.33.76-7.26,0-14.37-.6V290.44l2.46-2.47a38.81,38.81,0,0,0,26.08.36l2.16,2.15h0Z"/><path class="cls-1" d="M270.4,288.93v1.55l-2.15-2.16c.72-.25,1.44-.52,2.15-.81Z"/><path class="cls-1" d="M270.4,269.46v18.05c-.71.29-1.43.56-2.15.81l-.27-.26-13-13,.7-.69,4.9-4.92Z"/><polygon class="cls-1" points="270.4 259.67 270.4 269.46 260.62 269.46 270.4 259.67"/><polygon class="cls-1" points="270.4 248.39 270.4 259.67 260.62 269.46 250.78 269.46 249.43 269.46 249.42 269.46 239.7 259.71 239.7 258.48 239.7 246.92 247.91 238.69 260.83 238.69 262.14 238.69 270.4 246.97 270.4 248.39"/><polygon class="cls-1" points="270.4 238.69 270.4 246.97 262.14 238.69 270.4 238.69"/><polygon class="cls-1" points="270.4 216.15 270.4 238.69 262.14 238.69 255.02 231.55 270.4 216.15"/><path class="cls-1" d="M270.4,216v.14L255,231.55,240,216.45A38.76,38.76,0,0,1,270.4,216Z"/><path class="cls-1" d="M270.4,211.7V216a38.76,38.76,0,0,0-30.45.44l-.25-.25V81.77q7.11-.6,14.37-.6,8.26,0,16.33.77Z"/><polygon class="cls-1" points="270.4 61.73 270.4 63.68 239.7 62.5 239.7 60.54 270.4 61.73"/><path class="cls-1" d="M270.4,58.72v3l-30.7-1.19V58.77c5.18-.39,10.42-.6,15.71-.6Q263,58.17,270.4,58.72Z"/><path class="cls-1" d="M270.4,42.79V58.72q-7.41-.54-15-.55c-5.29,0-10.53.21-15.71.6v-16a9.4,9.4,0,0,1,9.34-9.4h12A9.39,9.39,0,0,1,270.4,42.79Z"/><path class="cls-1" d="M270.4,290.48l-2.16-2.15h0Z"/><path class="cls-1" d="M270.4,449.83l-.59,0,0,0Z"/><path class="cls-1" d="M269.78,449.83l0,0-1.43.1h0c-4.28.28-8.58.41-12.93.41s-8.65-.13-12.93-.41h0l-1.45-.1.07-.08Z"/><path class="cls-1" d="M269.78,449.83l-28.72,0a20.1,20.1,0,0,1,1.38-1.78h25.94C268.87,448.59,269.34,449.19,269.78,449.83Z"/><path class="cls-1" d="M268.25,288.32h0l-.26-.27Z"/><path class="cls-1" d="M268,288.06l.26.27a38.81,38.81,0,0,1-26.08-.36L255,275.07Z"/><polygon class="cls-1" points="255.02 231.55 262.14 238.69 260.83 238.69 247.91 238.69 254.41 232.18 255.02 231.55"/><polygon class="cls-1" points="260.62 269.46 255.72 274.38 255.02 275.07 249.43 269.46 250.78 269.46 260.62 269.46"/><polygon class="cls-1" points="249.43 269.46 255.02 275.07 249.42 269.46 249.43 269.46"/><path class="cls-1" d="M240,216.45,255,231.55l-.61.63-6.5,6.51H239.7V216.57Z"/><path class="cls-1" d="M249.42,269.46l5.6,5.61L242.16,288q-1.24-.47-2.46-1V269.46Z"/><polygon class="cls-1" points="239.7 259.71 249.42 269.46 239.7 269.46 239.7 259.71"/><polygon class="cls-1" points="247.91 238.69 239.7 246.92 239.7 238.69 247.91 238.69"/><path class="cls-1" d="M242.16,288l-2.46,2.47V287Q240.92,287.51,242.16,288Z"/><path class="cls-1" d="M241.06,449.79l-.07.08-1.26-.08Z"/><path class="cls-1" d="M239.73,449.79l1.26.08q-.68,1-1.29,2.07v-2.15Z"/><path class="cls-1" d="M239.7,216.2l.25.25-.25.12Z"/><path class="cls-1" d="M239.7,287v3.49L235,295.12l-91.76,91.95a174.92,174.92,0,0,1-21.71-21.75l91.76-92,3.88-3.9h4.11A38.71,38.71,0,0,0,239.7,287Z"/><path class="cls-1" d="M239.7,269.46V287a38.71,38.71,0,0,1-18.38-17.49Z"/><path class="cls-1" d="M239.7,259.71v9.75H221.32c-.48-.92-.91-1.85-1.31-2.81l13.31-13.34Z"/><polygon class="cls-1" points="239.7 258.48 239.7 259.71 233.32 253.31 233.9 252.73 239.7 246.92 239.7 258.48"/><path class="cls-1" d="M239.7,238.69v8.23l-5.8,5.81-.58.58-14.17-14.19.15-.43h20.4Z"/><path class="cls-1" d="M239.7,217.27v21.42H219.3a38.75,38.75,0,0,1,20.4-22.12Z"/><path class="cls-1" d="M239.7,216.2v.37a38.75,38.75,0,0,0-20.4,22.12h-.58l-96.27-96.5a174.23,174.23,0,0,1,21.88-21.58l93.55,93.76Z"/><path class="cls-1" d="M239.7,58.77v1.77c-.32-.54-.62-1.11-.9-1.69Z"/><polygon class="cls-1" points="236.08 212.56 237.88 214.37 144.33 120.61 236.08 212.56"/><path class="cls-1" d="M219.15,239.12l14.17,14.19L220,266.65a38.86,38.86,0,0,1-.86-27.53Z"/><path class="cls-1" d="M221.32,269.46h-4.11l2.8-2.81C220.41,267.61,220.84,268.54,221.32,269.46Z"/><path class="cls-1" d="M220,266.65l-2.8,2.81H82q-.64-7.5-.65-15.18,0-7.87.69-15.59H218.72l.43.43a38.86,38.86,0,0,0,.86,27.53Z"/><path class="cls-1" d="M219.3,238.69l-.15.43-.42-.43Z"/><polygon class="cls-1" points="218.73 238.69 219.15 239.12 218.72 238.69 218.73 238.69"/><path class="cls-1" d="M127.91,104.15h0l-21.83,20.42a197.2,197.2,0,0,1,21.56-20.71Z"/><path class="cls-1" d="M127.91,104.15l-.27-.28.19-.15C127.86,103.86,127.89,104,127.91,104.15Z"/><path class="cls-1" d="M127.91,104.16l-22.39,21c.18-.21.36-.41.56-.62Z"/><path class="cls-1" d="M127.83,103.72l-.19.15L113,89.15a9.23,9.23,0,0,0-13,0l-8.69,8.72a9.26,9.26,0,0,0,0,13l13.21,13.24A34.94,34.94,0,0,1,90,115.22c-10.81-10.88-13.21-26.1-5.38-34s23-5.47,33.77,5.41A34.19,34.19,0,0,1,127.83,103.72Z"/><path class="cls-1" d="M113,89.15l14.69,14.72a197.2,197.2,0,0,0-21.56,20.71c-.55-.12-1.08-.27-1.63-.43L91.24,110.91a9.26,9.26,0,0,1,0-13l8.69-8.72A9.23,9.23,0,0,1,113,89.15Z"/><path class="cls-1" d="M126.59,403.81l-3.66,3.67a25.32,25.32,0,0,0,.71-6.19C124.61,402.14,125.6,403,126.59,403.81Z"/><path class="cls-1" d="M123.64,401.29a25.32,25.32,0,0,1-.71,6.19l-10.27,10.29a9.22,9.22,0,0,1-13,0L91,409.05a9.26,9.26,0,0,1,0-13l10.26-10.29h0A24.45,24.45,0,0,1,107,385,196.85,196.85,0,0,0,123.64,401.29Z"/><path class="cls-1" d="M107,385l16.64,16.29A196.85,196.85,0,0,1,107,385Z"/><path class="cls-1" d="M112.66,417.77l10.27-10.29a34.68,34.68,0,0,1-9.33,16c-10.86,10.88-26,13.34-33.85,5.48S74.36,406,85.22,395.07a34.63,34.63,0,0,1,16-9.35L91,396a9.26,9.26,0,0,0,0,13l8.7,8.72A9.22,9.22,0,0,0,112.66,417.77Z"/><path class="cls-1" d="M106.08,124.58c-.2.21-.38.41-.56.62h0l-1.06-1.06C105,124.31,105.53,124.46,106.08,124.58Z"/><path class="cls-1" d="M104.61,382.32c.78.91,1.57,1.8,2.39,2.68a24.45,24.45,0,0,0-5.78.72Z"/><path class="cls-1" d="M57,238.69l-.1,30.77c0-.45-.08-.9-.1-1.36Z"/><path class="cls-1" d="M57,238.69l-.2,29.41q-.5-6.84-.5-13.82c0-5.24.22-10.44.62-15.59Z"/><path class="cls-1" d="M57,238.69h-.08a.11.11,0,0,1,0-.05A.15.15,0,0,1,57,238.69Z"/><path class="cls-1" d="M56.94,238.64a.11.11,0,0,0,0,.05H42.47a9.4,9.4,0,0,0-9.34,9.4v12a9.4,9.4,0,0,0,9.34,9.4H54.59A34.54,34.54,0,0,1,38,273.53c-15.27,0-27.66-9-27.66-20.21S22.68,233.11,38,233.11A33.51,33.51,0,0,1,56.94,238.64Z"/><path class="cls-1" d="M42.47,238.69H56.93c-.4,5.15-.62,10.35-.62,15.59q0,7,.5,13.82a24.84,24.84,0,0,1-2.22,1.36H42.47a9.4,9.4,0,0,1-9.34-9.4v-12A9.4,9.4,0,0,1,42.47,238.69Z"/><path class="cls-1" d="M56.91,269.46H54.59a24.84,24.84,0,0,0,2.22-1.36C56.83,268.56,56.87,269,56.91,269.46Z"/><path class="cls-2" d="M401.51,387.12l.33,0a21.71,21.71,0,0,1,3,.47,33.9,33.9,0,0,1,16.6,9.47c10.8,10.88,13.2,26.1,5.37,34s-23,5.47-33.76-5.41A34.77,34.77,0,0,1,384,410.31a23.93,23.93,0,0,1-.81-4.72"/><polyline class="cls-2" points="217.21 269.46 211.71 269.46 82.02 269.46"/><polyline class="cls-2" points="426.12 269.46 296.84 269.46 292.84 269.46"/><polyline class="cls-2" points="218.72 238.69 211.71 238.69 82.06 238.69"/><polyline class="cls-2" points="426.08 238.69 296.84 238.69 292.08 238.69"/><line class="cls-2" x1="54.59" y1="269.46" x2="56.91" y2="269.46"/><line class="cls-2" x1="453.92" y1="269.46" x2="454.6" y2="269.46"/><line class="cls-2" x1="270.4" y1="61.73" x2="270.4" y2="63.68"/><line class="cls-2" x1="239.7" y1="62.5" x2="239.7" y2="60.54"/><line class="cls-2" x1="239.7" y1="451.94" x2="239.7" y2="449.79"/><line class="cls-2" x1="270.4" y1="449.83" x2="270.4" y2="450.75"/><polyline class="cls-2" points="239.7 216.2 239.7 211.14 239.7 81.77"/><polyline class="cls-2" points="239.7 426.78 239.7 297.01 239.7 290.44"/><polyline class="cls-2" points="270.4 216.01 270.4 211.7 270.4 81.94"/><polyline class="cls-2" points="270.4 426.62 270.4 296.44 270.4 290.49"/><line class="cls-2" x1="218.72" y1="238.69" x2="122.45" y2="142.19"/><polyline class="cls-2" points="365.89 386.19 270.4 290.49 270.4 290.48"/><polyline class="cls-2" points="144.33 120.61 236.08 212.56 237.88 214.37"/><line class="cls-2" x1="239.7" y1="216.2" x2="237.88" y2="214.37"/><line class="cls-2" x1="387.43" y1="364.27" x2="292.84" y2="269.46"/><line class="cls-2" x1="104.45" y1="124.15" x2="105.51" y2="125.21"/><line class="cls-2" x1="405.27" y1="124.49" x2="404.95" y2="124.81"/><line class="cls-2" x1="382.76" y1="103.53" x2="383.55" y2="102.74"/><path class="cls-2" d="M101.22,385.72l3.39-3.4c.78.91,1.57,1.8,2.39,2.68"/><path class="cls-2" d="M123.64,401.29c1,.85,2,1.69,3,2.52l-3.66,3.67"/><polyline class="cls-2" points="364.87 121.5 386.56 143.24 295.22 234.79 291.87 238.14 291.32 238.69"/><polyline class="cls-2" points="270.4 216.15 270.5 216.05 273.51 213.04 364.85 121.48"/><polyline class="cls-2" points="121.57 365.32 213.33 273.36 217.21 269.46"/><polyline class="cls-2" points="239.7 290.44 235.04 295.12 143.28 387.07"/><path class="cls-2" d="M292.08,238.69A38.86,38.86,0,0,1,291,267.58c-.29.64-.59,1.26-.91,1.88a38.81,38.81,0,0,1-19.66,18.05c-.71.29-1.43.56-2.15.81h0a38.81,38.81,0,0,1-26.08-.36q-1.24-.47-2.46-1a38.71,38.71,0,0,1-18.38-17.49c-.48-.92-.91-1.85-1.31-2.81a38.86,38.86,0,0,1-.86-27.53l.15-.43a38.75,38.75,0,0,1,20.4-22.12l.25-.12A38.76,38.76,0,0,1,270.4,216l.1,0a38.76,38.76,0,0,1,21.37,22.09Z"/><path class="cls-2" d="M121.57,365.32A172.49,172.49,0,0,1,82,269.46q-.64-7.5-.65-15.18,0-7.87.69-15.59A172.89,172.89,0,0,1,239.7,81.77q7.11-.6,14.37-.6,8.26,0,16.33.77a171.6,171.6,0,0,1,94.45,39.54s0,0,0,0a173.16,173.16,0,0,1,61.21,117.19c.45,5.14.69,10.34.69,15.59s-.23,10.16-.65,15.15v0A173,173,0,0,1,270.4,426.62q-8.06.76-16.33.76-7.26,0-14.37-.6a171.6,171.6,0,0,1-96.42-39.71"/><path class="cls-2" d="M239.7,60.54c-.32-.54-.62-1.11-.9-1.69s-.58-1.24-.85-1.89a36.45,36.45,0,0,1-2.61-13.75c0-15.38,9-27.85,20.07-27.85s20.08,12.47,20.08,27.85A36.26,36.26,0,0,1,272.87,57c-.26.65-.55,1.28-.85,1.89a26.75,26.75,0,0,1-1.62,2.88"/><path class="cls-2" d="M383.29,104c.07-.4.17-.81.26-1.22a35,35,0,0,1,9.33-16c10.85-10.88,26-13.33,33.84-5.47s5.39,23-5.46,33.92a34.61,34.61,0,0,1-16,9.34l-.49.11"/><path class="cls-2" d="M123.64,401.29a25.32,25.32,0,0,1-.71,6.19,34.68,34.68,0,0,1-9.33,16c-10.86,10.88-26,13.34-33.85,5.48S74.36,406,85.22,395.07a34.63,34.63,0,0,1,16-9.35h0A24.45,24.45,0,0,1,107,385"/><path class="cls-2" d="M268.38,448c.49.58,1,1.18,1.4,1.82l0,0c.2.29.4.58.59.88a34.4,34.4,0,0,1,5.09,18.51c0,15.39-9,27.86-20.08,27.86s-20.07-12.47-20.07-27.86a34.85,34.85,0,0,1,4.36-17.32q.62-1.08,1.29-2.07l.07-.08a20.1,20.1,0,0,1,1.38-1.78"/><path class="cls-2" d="M56.81,268.1a24.84,24.84,0,0,1-2.22,1.36A34.54,34.54,0,0,1,38,273.53c-15.27,0-27.66-9-27.66-20.21S22.68,233.11,38,233.11a33.51,33.51,0,0,1,19,5.53.15.15,0,0,1,.07.05"/><path class="cls-2" d="M452.17,238.69c.52-.37,1.07-.72,1.63-1.06a34.3,34.3,0,0,1,17.43-4.52c15.29,0,27.67,9,27.67,20.21s-12.38,20.21-27.67,20.21a34.53,34.53,0,0,1-16.63-4.07c-.22-.11-.44-.24-.65-.37"/><path class="cls-2" d="M106.08,124.58c-.55-.12-1.08-.27-1.63-.43A34.94,34.94,0,0,1,90,115.22c-10.81-10.88-13.21-26.1-5.38-34s23-5.47,33.77,5.41a34.19,34.19,0,0,1,9.48,17.08c0,.14.06.28.08.43h0"/><path class="cls-2" d="M107,385l16.64,16.29A196.85,196.85,0,0,1,107,385Z"/><path class="cls-2" d="M143.28,387.07a174.92,174.92,0,0,1-21.71-21.75"/><path class="cls-2" d="M104.61,382.32a193.65,193.65,0,0,1-47.7-112.86c0-.45-.08-.9-.1-1.36q-.5-6.84-.5-13.82c0-5.24.22-10.44.62-15.59a.11.11,0,0,1,0-.05,193.85,193.85,0,0,1,48.57-113.43h0c.18-.21.36-.41.56-.62a197.2,197.2,0,0,1,21.56-20.71l.19-.15A199.85,199.85,0,0,1,238,58.92l.85-.07.9-.08c5.18-.39,10.42-.6,15.71-.6q7.57,0,15,.55l1.62.13.85.07a199.73,199.73,0,0,1,109.89,44.61c.18.14.36.28.53.43l0,0h0a199.72,199.72,0,0,1,21.39,20.55s0,0,0,0l.17.21A193.73,193.73,0,0,1,453.8,237.63l.09,1.06q.62,7.73.62,15.59c0,5-.18,9.93-.56,14.81,0,.13,0,.26,0,.37a193.73,193.73,0,0,1-48.06,113.28q-2,2.24-4,4.41-6,6.42-12.57,12.29c-1.79,1.61-3.6,3.18-5.45,4.72A200,200,0,0,1,270.4,449.83l-.59,0-1.43.1h0c-4.28.28-8.58.41-12.93.41s-8.65-.13-12.93-.41h0l-1.45-.1-1.26-.08h0a199.93,199.93,0,0,1-113.11-46"/></svg>