<svg id="Layer_1" data-name="Layer 1" xmlns="http://www.w3.org/2000/svg" viewBox="0 0 512 512"><defs><style>.cls-1{fill:#fff;}.cls-2,.cls-3{fill:none;stroke:#000;stroke-width:10px;}.cls-2{stroke-linecap:round;stroke-linejoin:round;}.cls-3{stroke-miterlimit:10;}</style></defs><title>skull</title><path class="cls-1" d="M403,174.69h0c-3.23-1.56-15.23-7.33-30.42-14.42-10.06-4.69-21.64-9.33-33.35-11.63a60,60,0,0,0-25.32.21c-15.7,3.78-23.27,18.46-25.38,23.31l.31.2h0s.53,2.08,1.54,5.41h0c3.16,10.51,11,33.52,21.36,43.8h0c1,1.54,2.06,3,3.12,4.35a27,27,0,0,0,6.25,6.06,73.23,73.23,0,0,0,15.86,7.91c13.2,4.56,27.29,5.07,38.9-.47a27.34,27.34,0,0,0,3-1.69c18.61-12,24.1-63.08,24.1-63.08Zm-174.2-4.12c-2.12-4.86-9.69-19.53-25.38-23.3a60,60,0,0,0-25.32-.21c-11.72,2.3-23.29,6.93-33.36,11.63-15.19,7.09-27.2,12.87-30.42,14.42,0,0,0,0,0,0,.17,1.55,5.77,51.26,24.09,63a27.4,27.4,0,0,0,3,1.69c11.61,5.54,25.7,5,38.9.46a72.73,72.73,0,0,0,15.85-7.91,26.92,26.92,0,0,0,6.26-6.06c1.06-1.35,2.09-2.81,3.12-4.35,10.4-10.29,18.21-33.31,21.37-43.82h0c1-3.33,1.54-5.41,1.54-5.41ZM30.18,201.1c2.84-78.68,102.47-140,224.7-138.35,124,1.69,224.57,67.2,224.57,147.53h.1c-.48,16-3,39.42-12.29,58-13.31,26.49-39.86,36-42.26,36.8-.06.8-.1,1.57-.13,2.33a20.83,20.83,0,0,0,.42,5.33,38.1,38.1,0,0,0,2.31,7.26c2,4.62,4.07,9.08,5.94,13.19a78.74,78.74,0,0,1,3.09,7.81c3.25,9.81,4,18.72-.9,25.88a12.82,12.82,0,0,1-3.58,3.37c-11.95,7.84-43,4.73-69.58.06l0,74.49a13.46,13.46,0,0,1-13,13.57l-189.42,3.12a12.93,12.93,0,0,1-13-13l0-78c-25.22,4.69-53.34,7.54-64.74.05a13.2,13.2,0,0,1-3.63-3.41c-6.43-9.19-3.81-21.4,1.06-35,1.64-4.56,3.49-9.51,5.4-14.61q.25-.68.5-1.38S57,307.17,42.81,279.78c-16.07-31-12.7-78.68-12.7-78.68ZM278,298.49c6-1.09,6.74-13.17,1.67-27s-14.06-24.12-20.05-23A4.59,4.59,0,0,0,257,250c-5.82,2-13.44,10.62-18.69,21.68-6.43,13.53-6.88,25.61-1,27C243,300,252.49,290.83,258.92,278,264.11,290.49,272.37,299.52,278,298.49Z"/><path d="M403,174.69h0s-5.49,51.11-24.1,63.08a27.34,27.34,0,0,1-3,1.69c-11.61,5.54-25.7,5-38.9.47A73.23,73.23,0,0,1,321.08,232a27,27,0,0,1-6.25-6.06c-1.06-1.35-2.1-2.81-3.12-4.35h0a19.31,19.31,0,0,0,6.14,4.29c17.82,7.25,41.33,8.41,58.75-.87s25-43.38,26.36-50.33Z"/><path d="M403,174.69c-1.37,6.94-8.93,41-26.36,50.33s-40.92,8.12-58.75.87a19.31,19.31,0,0,1-6.14-4.29h0c-9.4-14.18-17.86-34.79-21.36-43.8h0c-1-3.33-1.54-5.41-1.54-5.41h0l-.31-.2c2.12-4.86,9.69-19.53,25.38-23.31a60,60,0,0,1,25.32-.21c11.71,2.31,23.29,6.94,33.35,11.63C387.72,167.36,399.72,173.14,403,174.69Z"/><path d="M311.7,221.59c-10.39-10.29-18.2-33.3-21.36-43.8C293.84,186.81,302.3,207.42,311.7,221.59Z"/><path d="M279.67,271.51c5.08,13.81,4.33,25.89-1.67,27-5.63,1-13.89-8-19.08-20.54.21-.42.42-.84.62-1.26,6.43-13.53,6.88-25.62,1-27A6.48,6.48,0,0,0,257,250a4.59,4.59,0,0,1,2.65-1.52C265.61,247.39,274.59,257.7,279.67,271.51Z"/><path d="M260.55,249.68c5.88,1.39,5.42,13.48-1,27-.2.43-.41.85-.62,1.26-.33-.82-.66-1.65-1-2.49-4.2-11.41-4.42-21.63-1-25.46A6.48,6.48,0,0,1,260.55,249.68Z"/><path d="M258,275.46c.31.84.64,1.67,1,2.49-6.43,12.87-16,22.07-21.66,20.73-5.88-1.39-5.42-13.47,1-27C243.53,260.62,251.15,252,257,250,253.53,253.83,253.75,264.05,258,275.46Z"/><path d="M228.76,170.58l-.32.21s-.53,2.08-1.54,5.41h0c-3.51,9-12,29.65-21.37,43.82a19.31,19.31,0,0,1-6.14,4.29c-17.82,7.24-41.33,8.41-58.75-.87s-25-43.26-26.35-50.29c0,0,0,0,0,0,3.22-1.55,15.23-7.33,30.42-14.42,10.06-4.7,21.64-9.33,33.36-11.63a60,60,0,0,1,25.32.21C219.07,151,226.64,165.72,228.76,170.58Z"/><path d="M205.52,220c9.39-14.17,17.87-34.8,21.37-43.82C223.74,186.72,215.92,209.74,205.52,220Z"/><path d="M205.52,220c-1,1.55-2.06,3-3.12,4.35a26.92,26.92,0,0,1-6.26,6.06,72.73,72.73,0,0,1-15.85,7.91c-13.2,4.56-27.29,5.08-38.9-.46a27.4,27.4,0,0,1-3-1.69c-18.32-11.79-23.92-61.5-24.09-63,1.39,7,9,41,26.35,50.29s40.93,8.12,58.75.87A19.31,19.31,0,0,0,205.52,220Z"/><path class="cls-2" d="M30.11,204.56q0-1.73.06-3.46c2.84-78.68,102.47-140,224.7-138.35,124,1.69,224.57,67.2,224.57,147.53"/><path class="cls-2" d="M258.92,278c-6.43,12.87-16,22.07-21.66,20.73-5.88-1.39-5.42-13.47,1-27C243.53,260.62,251.15,252,257,250"/><path class="cls-2" d="M257,250a4.59,4.59,0,0,1,2.65-1.52c6-1.09,15,9.22,20.05,23s4.33,25.89-1.67,27c-5.63,1-13.89-8-19.08-20.54-.33-.82-.66-1.65-1-2.49C253.75,264.05,253.53,253.83,257,250Z"/><path class="cls-3" d="M229.39,172.15s-.2-.59-.63-1.57c-2.12-4.86-9.69-19.53-25.38-23.3a60,60,0,0,0-25.32-.21c-11.72,2.3-23.29,6.93-33.36,11.63-15.19,7.09-27.2,12.87-30.42,14.42l-.86.42"/><path class="cls-3" d="M114.28,173.12c-.16-.8-.24-1.24-.24-1.24"/><path class="cls-2" d="M205.52,220a19.31,19.31,0,0,1-6.14,4.29c-17.82,7.24-41.33,8.41-58.75-.87s-25-43.26-26.35-50.29"/><path class="cls-3" d="M226.9,176.21c-3.16,10.51-11,33.53-21.37,43.82"/><path class="cls-2" d="M228.44,170.79s-.53,2.08-1.54,5.41"/><path class="cls-2" d="M228.61,171.69s-.61,1.68-1.7,4.51h0c-3.51,9-12,29.65-21.37,43.82-1,1.55-2.06,3-3.12,4.35a26.92,26.92,0,0,1-6.26,6.06,72.73,72.73,0,0,1-15.85,7.91c-13.2,4.56-27.29,5.08-38.9-.46a27.4,27.4,0,0,1-3-1.69c-18.32-11.79-23.92-61.5-24.09-63,0,0,0,0,0,0"/><path class="cls-3" d="M403,174.69h0l.86.41"/><path class="cls-3" d="M287.84,173.73s.2-.58.63-1.57c2.12-4.86,9.69-19.53,25.38-23.31a60,60,0,0,1,25.32-.21c11.71,2.31,23.29,6.94,33.35,11.63,15.19,7.09,27.19,12.86,30.42,14.42"/><path class="cls-3" d="M403,174.69h0c.16-.8.23-1.24.23-1.24"/><path class="cls-2" d="M311.71,221.6a19.31,19.31,0,0,0,6.14,4.29c17.82,7.25,41.33,8.41,58.75-.87s25-43.38,26.36-50.33"/><path class="cls-3" d="M290.34,177.79c3.16,10.51,11,33.52,21.36,43.8"/><path class="cls-2" d="M288.79,172.37s.53,2.08,1.54,5.41"/><path class="cls-3" d="M311.71,221.6h0c1,1.54,2.06,3,3.12,4.35a27,27,0,0,0,6.25,6.06,73.23,73.23,0,0,0,15.86,7.91c13.2,4.56,27.29,5.07,38.9-.47a27.34,27.34,0,0,0,3-1.69c18.61-12,24.1-63.08,24.1-63.08"/><path class="cls-2" d="M290.34,177.79c3.5,9,12,29.63,21.36,43.8h0"/><path class="cls-3" d="M290.33,177.78h0"/><path class="cls-2" d="M288.63,173.27s.61,1.68,1.7,4.51"/><path class="cls-2" d="M30.11,201.1s-3.37,47.7,12.7,78.68C57,307.17,85.63,316.09,85.63,316.09"/><path class="cls-2" d="M479.25,191.56a182.76,182.76,0,0,1,.3,18.73c-.48,16-3,39.42-12.29,58-13.31,26.49-39.86,36-42.26,36.8l-.17.06"/><path class="cls-2" d="M67.75,252.45S74.43,280,84.34,294.82A19.93,19.93,0,0,1,88,304.51a16.56,16.56,0,0,1-.46,5.2c-.56,2.16-1.21,4.3-1.94,6.39q-.24.7-.5,1.38c-1.91,5.1-3.76,10.05-5.4,14.61-4.87,13.6-7.49,25.81-1.06,35a13.2,13.2,0,0,0,3.63,3.41c11.4,7.49,39.51,4.64,64.74-.05s47.38-11.22,47.38-11.22"/><path class="cls-2" d="M433.66,257.09s-7.4,29.76-8.66,48c-.06.8-.1,1.57-.13,2.33a20.83,20.83,0,0,0,.42,5.33,38.1,38.1,0,0,0,2.31,7.26c2,4.62,4.07,9.08,5.94,13.19a78.74,78.74,0,0,1,3.09,7.81c3.25,9.81,4,18.72-.9,25.88a12.82,12.82,0,0,1-3.58,3.37c-11.95,7.84-43,4.73-69.58.06-23.58-4.14-43.63-9.5-43.63-9.5"/><path class="cls-2" d="M362.56,370.28l0,74.49a13.46,13.46,0,0,1-13,13.57l-189.42,3.12a12.93,12.93,0,0,1-13-13l0-78v-.09"/><path class="cls-2" d="M357.14,407.14s-11.79,3.77-29.49,7.67a389.56,389.56,0,0,1-40.31,6.78,275.35,275.35,0,0,1-28.51,1.77c-7.64.05-15.37-.25-23-.81A423,423,0,0,1,192.4,417c-23.28-4.18-39.72-8.85-39.72-8.85"/><polyline class="cls-2" points="192.4 390.38 192.4 416.96 192.4 442.52"/><polyline class="cls-2" points="235.83 391.46 235.83 422.56 235.83 443.61"/><polyline class="cls-2" points="287.33 392.72 287.33 421.6 287.33 444.87"/><polyline class="cls-2" points="327.64 391.46 327.64 414.82 327.64 443.61"/></svg>