<svg id="Layer_1" data-name="Layer 1" xmlns="http://www.w3.org/2000/svg" viewBox="0 0 512 512"><defs><style>.cls-1,.cls-3{fill:#fff;stroke-miterlimit:10;}.cls-1,.cls-2,.cls-3{stroke:#000;}.cls-1,.cls-2{stroke-width:10px;}.cls-2{stroke-linecap:round;stroke-linejoin:round;}</style></defs><title>spiked_cannon_ball</title><path class="cls-1" d="M315.46,402.83c-14.88-14.88-9.25-44.65,12.59-66.49s51.6-27.47,66.49-12.59S401.72,410,401.72,410,330.35,417.71,315.46,402.83Z"/><path class="cls-1" d="M397.1,208.22c-14.88,14.88-44.65,9.25-66.49-12.59S303.14,144,318,129.15,404.28,122,404.28,122,412,193.34,397.1,208.22Z"/><path class="cls-1" d="M120,323.76c14.88-14.88,44.65-9.25,66.49,12.59s27.47,51.6,12.59,66.49S112.82,410,112.82,410,105.12,338.64,120,323.76Z"/><path class="cls-1" d="M197.21,128.05c14.88,14.88,9.25,44.65-12.59,66.49S133,222,118.13,207.13,111,120.88,111,120.88,182.32,113.17,197.21,128.05Z"/><circle class="cls-2" cx="255.8" cy="262.03" r="157.78"/><path class="cls-1" d="M311.72,118.22c0,21-25,38.11-55.91,38.11s-55.91-17.06-55.91-38.11S255.8,52.15,255.8,52.15,311.72,97.17,311.72,118.22Z"/><circle class="cls-3" cx="255.85" cy="261.05" r="49.95"/><path class="cls-1" d="M399.61,317.94c-21,0-38.11-25-38.11-55.91s17.06-55.91,38.11-55.91S465.68,262,465.68,262,420.66,317.94,399.61,317.94Z"/><path class="cls-1" d="M199.89,405.83c0-21,25-38.11,55.91-38.11s55.91,17.06,55.91,38.11S255.8,471.9,255.8,471.9,199.89,426.88,199.89,405.83Z"/><path class="cls-1" d="M112,206.11c21,0,38.11,25,38.11,55.91S133,317.94,112,317.94,45.93,262,45.93,262,90.95,206.11,112,206.11Z"/></svg>