<svg id="Layer_1" data-name="Layer 1" xmlns="http://www.w3.org/2000/svg" viewBox="0 0 512 512"><defs><style>.cls-1,.cls-3{fill:#f7931e;}.cls-1,.cls-2,.cls-6,.cls-7{stroke:#000;stroke-miterlimit:10;}.cls-1,.cls-2,.cls-6{stroke-width:10px;}.cls-2,.cls-7{fill:#fff;}.cls-4{fill:#754c24;}.cls-5{fill:#00e3ff;}.cls-6{fill:none;}.cls-7{stroke-width:6px;}</style></defs><title>telescope</title><path class="cls-1" d="M467.85,473.43c-26.6,23-54.66,34.67-62.67,26.07s7.06-34.21,33.66-57.21,54.66-34.67,62.67-26.07S494.45,450.43,467.85,473.43Z"/><line class="cls-2" x1="101.26" y1="143.9" x2="101.27" y2="143.9"/><polygon class="cls-3" points="347.49 255.52 424.32 340.07 332.87 417.2 256.04 332.65 347.49 255.52"/><path class="cls-4" d="M356.92,247.06,243.72,342.8,21,227.11c24.26,9.31,84.07-19.64,142.54-70.61,60.15-52.41,97.9-109.83,89.95-134.63L356.8,246.93Z"/><path class="cls-5" d="M253.51,21.86c8,24.8-29.8,82.22-89.95,134.63-58.47,51-118.28,79.92-142.54,70.61l-3.81-2a15.19,15.19,0,0,1-3.16-2.84C-3.24,201.73,35.67,138.93,100.95,82S233.18-4.32,250.45,16.24a16.12,16.12,0,0,1,1.25,1.7s0,0,0,.05Z"/><path class="cls-5" d="M253.51,21.86,251.73,18A16.88,16.88,0,0,1,253.51,21.86Z"/><path class="cls-5" d="M17.21,225.13l3.81,2A18.53,18.53,0,0,1,17.21,225.13Z"/><polyline class="cls-6" points="361.13 243.51 356.92 247.06 243.72 342.8 242.04 344.21"/><path class="cls-6" d="M251.7,17.94a16.12,16.12,0,0,0-1.25-1.7C233.18-4.32,166.23,25.13,100.95,82S-3.24,201.73,14.05,222.29a15.19,15.19,0,0,0,3.16,2.84,18.53,18.53,0,0,0,3.81,2c24.26,9.31,84.07-19.64,142.54-70.61,60.15-52.41,97.9-109.83,89.95-134.63A16.88,16.88,0,0,0,251.73,18"/><path class="cls-6" d="M251.7,17.94s0,0,0,.05l1.78,3.87L356.8,246.93"/><polyline class="cls-6" points="17.21 225.13 21.02 227.11 243.72 342.8 248.44 345.25"/><polygon class="cls-6" points="424.32 340.07 332.87 417.2 256.04 332.65 347.49 255.52 424.32 340.07"/><polygon class="cls-1" points="477.31 428.84 421.88 476.76 352.04 401.79 407.47 353.86 477.31 428.84"/><ellipse class="cls-7" cx="173.99" cy="71.82" rx="39.93" ry="8.8" transform="translate(-5.24 129.33) rotate(-40.22)"/></svg>